<?xml version="1.0" encoding="utf-8" standalone="no"?>
<!DOCTYPE svg PUBLIC "-//W3C//DTD SVG 1.1//EN"
  "http://www.w3.org/Graphics/SVG/1.1/DTD/svg11.dtd">
<svg xmlns:xlink="http://www.w3.org/1999/xlink" width="547.401554pt" height="325.986375pt" viewBox="0 0 547.401554 325.986375" xmlns="http://www.w3.org/2000/svg" version="1.1">
 <metadata>
  <rdf:RDF xmlns:dc="http://purl.org/dc/elements/1.1/" xmlns:cc="http://creativecommons.org/ns#" xmlns:rdf="http://www.w3.org/1999/02/22-rdf-syntax-ns#">
   <cc:Work>
    <dc:type rdf:resource="http://purl.org/dc/dcmitype/StillImage"/>
    <dc:date>2024-11-26T13:50:01.659484</dc:date>
    <dc:format>image/svg+xml</dc:format>
    <dc:creator>
     <cc:Agent>
      <dc:title>Matplotlib v3.6.2, https://matplotlib.org/</dc:title>
     </cc:Agent>
    </dc:creator>
   </cc:Work>
  </rdf:RDF>
 </metadata>
 <defs>
  <style type="text/css">*{stroke-linejoin: round; stroke-linecap: butt}</style>
 </defs>
 <g id="figure_1">
  <g id="patch_1">
   <path d="M 0 325.986375 
L 547.401554 325.986375 
L 547.401554 0 
L 0 0 
z
" style="fill: #ffffff"/>
  </g>
  <g id="axes_1">
   <g id="patch_2">
    <path d="M 79.814229 288.430125 
L 494.073429 288.430125 
L 494.073429 22.318125 
L 79.814229 22.318125 
z
" style="fill: #ffffff"/>
   </g>
   <g id="matplotlib.axis_1">
    <g id="xtick_1">
     <g id="line2d_1">
      <path d="M 79.814229 288.430125 
L 79.814229 22.318125 
" clip-path="url(#pcee0d6e617)" style="fill: none; stroke: #b0b0b0; stroke-opacity: 0.5; stroke-width: 0.8; stroke-linecap: square"/>
     </g>
     <g id="line2d_2">
      <defs>
       <path id="m14cb9ffa3f" d="M 0 0 
L 0 3.5 
" style="stroke: #000000; stroke-width: 0.8"/>
      </defs>
      <g>
       <use xlink:href="#m14cb9ffa3f" x="79.814229" y="288.430125" style="stroke: #000000; stroke-width: 0.8"/>
      </g>
     </g>
     <g id="text_1">
      <!-- 0.0 -->
      <g transform="translate(71.862667 303.028562) scale(0.1 -0.1)">
       <defs>
        <path id="DejaVuSans-30" d="M 2034 4250 
Q 1547 4250 1301 3770 
Q 1056 3291 1056 2328 
Q 1056 1369 1301 889 
Q 1547 409 2034 409 
Q 2525 409 2770 889 
Q 3016 1369 3016 2328 
Q 3016 3291 2770 3770 
Q 2525 4250 2034 4250 
z
M 2034 4750 
Q 2819 4750 3233 4129 
Q 3647 3509 3647 2328 
Q 3647 1150 3233 529 
Q 2819 -91 2034 -91 
Q 1250 -91 836 529 
Q 422 1150 422 2328 
Q 422 3509 836 4129 
Q 1250 4750 2034 4750 
z
" transform="scale(0.015625)"/>
        <path id="DejaVuSans-2e" d="M 684 794 
L 1344 794 
L 1344 0 
L 684 0 
L 684 794 
z
" transform="scale(0.015625)"/>
       </defs>
       <use xlink:href="#DejaVuSans-30"/>
       <use xlink:href="#DejaVuSans-2e" x="63.623047"/>
       <use xlink:href="#DejaVuSans-30" x="95.410156"/>
      </g>
     </g>
    </g>
    <g id="xtick_2">
     <g id="line2d_3">
      <path d="M 162.666069 288.430125 
L 162.666069 22.318125 
" clip-path="url(#pcee0d6e617)" style="fill: none; stroke: #b0b0b0; stroke-opacity: 0.5; stroke-width: 0.8; stroke-linecap: square"/>
     </g>
     <g id="line2d_4">
      <g>
       <use xlink:href="#m14cb9ffa3f" x="162.666069" y="288.430125" style="stroke: #000000; stroke-width: 0.8"/>
      </g>
     </g>
     <g id="text_2">
      <!-- 0.2 -->
      <g transform="translate(154.714506 303.028562) scale(0.1 -0.1)">
       <defs>
        <path id="DejaVuSans-32" d="M 1228 531 
L 3431 531 
L 3431 0 
L 469 0 
L 469 531 
Q 828 903 1448 1529 
Q 2069 2156 2228 2338 
Q 2531 2678 2651 2914 
Q 2772 3150 2772 3378 
Q 2772 3750 2511 3984 
Q 2250 4219 1831 4219 
Q 1534 4219 1204 4116 
Q 875 4013 500 3803 
L 500 4441 
Q 881 4594 1212 4672 
Q 1544 4750 1819 4750 
Q 2544 4750 2975 4387 
Q 3406 4025 3406 3419 
Q 3406 3131 3298 2873 
Q 3191 2616 2906 2266 
Q 2828 2175 2409 1742 
Q 1991 1309 1228 531 
z
" transform="scale(0.015625)"/>
       </defs>
       <use xlink:href="#DejaVuSans-30"/>
       <use xlink:href="#DejaVuSans-2e" x="63.623047"/>
       <use xlink:href="#DejaVuSans-32" x="95.410156"/>
      </g>
     </g>
    </g>
    <g id="xtick_3">
     <g id="line2d_5">
      <path d="M 245.517909 288.430125 
L 245.517909 22.318125 
" clip-path="url(#pcee0d6e617)" style="fill: none; stroke: #b0b0b0; stroke-opacity: 0.5; stroke-width: 0.8; stroke-linecap: square"/>
     </g>
     <g id="line2d_6">
      <g>
       <use xlink:href="#m14cb9ffa3f" x="245.517909" y="288.430125" style="stroke: #000000; stroke-width: 0.8"/>
      </g>
     </g>
     <g id="text_3">
      <!-- 0.4 -->
      <g transform="translate(237.566347 303.028562) scale(0.1 -0.1)">
       <defs>
        <path id="DejaVuSans-34" d="M 2419 4116 
L 825 1625 
L 2419 1625 
L 2419 4116 
z
M 2253 4666 
L 3047 4666 
L 3047 1625 
L 3713 1625 
L 3713 1100 
L 3047 1100 
L 3047 0 
L 2419 0 
L 2419 1100 
L 313 1100 
L 313 1709 
L 2253 4666 
z
" transform="scale(0.015625)"/>
       </defs>
       <use xlink:href="#DejaVuSans-30"/>
       <use xlink:href="#DejaVuSans-2e" x="63.623047"/>
       <use xlink:href="#DejaVuSans-34" x="95.410156"/>
      </g>
     </g>
    </g>
    <g id="xtick_4">
     <g id="line2d_7">
      <path d="M 328.369749 288.430125 
L 328.369749 22.318125 
" clip-path="url(#pcee0d6e617)" style="fill: none; stroke: #b0b0b0; stroke-opacity: 0.5; stroke-width: 0.8; stroke-linecap: square"/>
     </g>
     <g id="line2d_8">
      <g>
       <use xlink:href="#m14cb9ffa3f" x="328.369749" y="288.430125" style="stroke: #000000; stroke-width: 0.8"/>
      </g>
     </g>
     <g id="text_4">
      <!-- 0.6 -->
      <g transform="translate(320.418186 303.028562) scale(0.1 -0.1)">
       <defs>
        <path id="DejaVuSans-36" d="M 2113 2584 
Q 1688 2584 1439 2293 
Q 1191 2003 1191 1497 
Q 1191 994 1439 701 
Q 1688 409 2113 409 
Q 2538 409 2786 701 
Q 3034 994 3034 1497 
Q 3034 2003 2786 2293 
Q 2538 2584 2113 2584 
z
M 3366 4563 
L 3366 3988 
Q 3128 4100 2886 4159 
Q 2644 4219 2406 4219 
Q 1781 4219 1451 3797 
Q 1122 3375 1075 2522 
Q 1259 2794 1537 2939 
Q 1816 3084 2150 3084 
Q 2853 3084 3261 2657 
Q 3669 2231 3669 1497 
Q 3669 778 3244 343 
Q 2819 -91 2113 -91 
Q 1303 -91 875 529 
Q 447 1150 447 2328 
Q 447 3434 972 4092 
Q 1497 4750 2381 4750 
Q 2619 4750 2861 4703 
Q 3103 4656 3366 4563 
z
" transform="scale(0.015625)"/>
       </defs>
       <use xlink:href="#DejaVuSans-30"/>
       <use xlink:href="#DejaVuSans-2e" x="63.623047"/>
       <use xlink:href="#DejaVuSans-36" x="95.410156"/>
      </g>
     </g>
    </g>
    <g id="xtick_5">
     <g id="line2d_9">
      <path d="M 411.221589 288.430125 
L 411.221589 22.318125 
" clip-path="url(#pcee0d6e617)" style="fill: none; stroke: #b0b0b0; stroke-opacity: 0.5; stroke-width: 0.8; stroke-linecap: square"/>
     </g>
     <g id="line2d_10">
      <g>
       <use xlink:href="#m14cb9ffa3f" x="411.221589" y="288.430125" style="stroke: #000000; stroke-width: 0.8"/>
      </g>
     </g>
     <g id="text_5">
      <!-- 0.8 -->
      <g transform="translate(403.270026 303.028562) scale(0.1 -0.1)">
       <defs>
        <path id="DejaVuSans-38" d="M 2034 2216 
Q 1584 2216 1326 1975 
Q 1069 1734 1069 1313 
Q 1069 891 1326 650 
Q 1584 409 2034 409 
Q 2484 409 2743 651 
Q 3003 894 3003 1313 
Q 3003 1734 2745 1975 
Q 2488 2216 2034 2216 
z
M 1403 2484 
Q 997 2584 770 2862 
Q 544 3141 544 3541 
Q 544 4100 942 4425 
Q 1341 4750 2034 4750 
Q 2731 4750 3128 4425 
Q 3525 4100 3525 3541 
Q 3525 3141 3298 2862 
Q 3072 2584 2669 2484 
Q 3125 2378 3379 2068 
Q 3634 1759 3634 1313 
Q 3634 634 3220 271 
Q 2806 -91 2034 -91 
Q 1263 -91 848 271 
Q 434 634 434 1313 
Q 434 1759 690 2068 
Q 947 2378 1403 2484 
z
M 1172 3481 
Q 1172 3119 1398 2916 
Q 1625 2713 2034 2713 
Q 2441 2713 2670 2916 
Q 2900 3119 2900 3481 
Q 2900 3844 2670 4047 
Q 2441 4250 2034 4250 
Q 1625 4250 1398 4047 
Q 1172 3844 1172 3481 
z
" transform="scale(0.015625)"/>
       </defs>
       <use xlink:href="#DejaVuSans-30"/>
       <use xlink:href="#DejaVuSans-2e" x="63.623047"/>
       <use xlink:href="#DejaVuSans-38" x="95.410156"/>
      </g>
     </g>
    </g>
    <g id="xtick_6">
     <g id="line2d_11">
      <path d="M 494.073429 288.430125 
L 494.073429 22.318125 
" clip-path="url(#pcee0d6e617)" style="fill: none; stroke: #b0b0b0; stroke-opacity: 0.5; stroke-width: 0.8; stroke-linecap: square"/>
     </g>
     <g id="line2d_12">
      <g>
       <use xlink:href="#m14cb9ffa3f" x="494.073429" y="288.430125" style="stroke: #000000; stroke-width: 0.8"/>
      </g>
     </g>
     <g id="text_6">
      <!-- 1.0 -->
      <g transform="translate(486.121866 303.028562) scale(0.1 -0.1)">
       <defs>
        <path id="DejaVuSans-31" d="M 794 531 
L 1825 531 
L 1825 4091 
L 703 3866 
L 703 4441 
L 1819 4666 
L 2450 4666 
L 2450 531 
L 3481 531 
L 3481 0 
L 794 0 
L 794 531 
z
" transform="scale(0.015625)"/>
       </defs>
       <use xlink:href="#DejaVuSans-31"/>
       <use xlink:href="#DejaVuSans-2e" x="63.623047"/>
       <use xlink:href="#DejaVuSans-30" x="95.410156"/>
      </g>
     </g>
    </g>
    <g id="text_7">
     <!-- Zeit in s -->
     <g transform="translate(266.752423 316.706687) scale(0.1 -0.1)">
      <defs>
       <path id="DejaVuSans-5a" d="M 359 4666 
L 4025 4666 
L 4025 4184 
L 1075 531 
L 4097 531 
L 4097 0 
L 288 0 
L 288 481 
L 3238 4134 
L 359 4134 
L 359 4666 
z
" transform="scale(0.015625)"/>
       <path id="DejaVuSans-65" d="M 3597 1894 
L 3597 1613 
L 953 1613 
Q 991 1019 1311 708 
Q 1631 397 2203 397 
Q 2534 397 2845 478 
Q 3156 559 3463 722 
L 3463 178 
Q 3153 47 2828 -22 
Q 2503 -91 2169 -91 
Q 1331 -91 842 396 
Q 353 884 353 1716 
Q 353 2575 817 3079 
Q 1281 3584 2069 3584 
Q 2775 3584 3186 3129 
Q 3597 2675 3597 1894 
z
M 3022 2063 
Q 3016 2534 2758 2815 
Q 2500 3097 2075 3097 
Q 1594 3097 1305 2825 
Q 1016 2553 972 2059 
L 3022 2063 
z
" transform="scale(0.015625)"/>
       <path id="DejaVuSans-69" d="M 603 3500 
L 1178 3500 
L 1178 0 
L 603 0 
L 603 3500 
z
M 603 4863 
L 1178 4863 
L 1178 4134 
L 603 4134 
L 603 4863 
z
" transform="scale(0.015625)"/>
       <path id="DejaVuSans-74" d="M 1172 4494 
L 1172 3500 
L 2356 3500 
L 2356 3053 
L 1172 3053 
L 1172 1153 
Q 1172 725 1289 603 
Q 1406 481 1766 481 
L 2356 481 
L 2356 0 
L 1766 0 
Q 1100 0 847 248 
Q 594 497 594 1153 
L 594 3053 
L 172 3053 
L 172 3500 
L 594 3500 
L 594 4494 
L 1172 4494 
z
" transform="scale(0.015625)"/>
       <path id="DejaVuSans-20" transform="scale(0.015625)"/>
       <path id="DejaVuSans-6e" d="M 3513 2113 
L 3513 0 
L 2938 0 
L 2938 2094 
Q 2938 2591 2744 2837 
Q 2550 3084 2163 3084 
Q 1697 3084 1428 2787 
Q 1159 2491 1159 1978 
L 1159 0 
L 581 0 
L 581 3500 
L 1159 3500 
L 1159 2956 
Q 1366 3272 1645 3428 
Q 1925 3584 2291 3584 
Q 2894 3584 3203 3211 
Q 3513 2838 3513 2113 
z
" transform="scale(0.015625)"/>
       <path id="DejaVuSans-73" d="M 2834 3397 
L 2834 2853 
Q 2591 2978 2328 3040 
Q 2066 3103 1784 3103 
Q 1356 3103 1142 2972 
Q 928 2841 928 2578 
Q 928 2378 1081 2264 
Q 1234 2150 1697 2047 
L 1894 2003 
Q 2506 1872 2764 1633 
Q 3022 1394 3022 966 
Q 3022 478 2636 193 
Q 2250 -91 1575 -91 
Q 1294 -91 989 -36 
Q 684 19 347 128 
L 347 722 
Q 666 556 975 473 
Q 1284 391 1588 391 
Q 1994 391 2212 530 
Q 2431 669 2431 922 
Q 2431 1156 2273 1281 
Q 2116 1406 1581 1522 
L 1381 1569 
Q 847 1681 609 1914 
Q 372 2147 372 2553 
Q 372 3047 722 3315 
Q 1072 3584 1716 3584 
Q 2034 3584 2315 3537 
Q 2597 3491 2834 3397 
z
" transform="scale(0.015625)"/>
      </defs>
      <use xlink:href="#DejaVuSans-5a"/>
      <use xlink:href="#DejaVuSans-65" x="68.505859"/>
      <use xlink:href="#DejaVuSans-69" x="130.029297"/>
      <use xlink:href="#DejaVuSans-74" x="157.8125"/>
      <use xlink:href="#DejaVuSans-20" x="197.021484"/>
      <use xlink:href="#DejaVuSans-69" x="228.808594"/>
      <use xlink:href="#DejaVuSans-6e" x="256.591797"/>
      <use xlink:href="#DejaVuSans-20" x="319.970703"/>
      <use xlink:href="#DejaVuSans-73" x="351.757812"/>
     </g>
    </g>
   </g>
   <g id="matplotlib.axis_2">
    <g id="ytick_1">
     <g id="line2d_13">
      <path d="M 79.814229 288.430125 
L 494.073429 288.430125 
" clip-path="url(#pcee0d6e617)" style="fill: none; stroke: #b0b0b0; stroke-opacity: 0.5; stroke-width: 0.8; stroke-linecap: square"/>
     </g>
     <g id="line2d_14">
      <defs>
       <path id="m1d2d7f532a" d="M 0 0 
L -3.5 0 
" style="stroke: #000000; stroke-width: 0.8"/>
      </defs>
      <g>
       <use xlink:href="#m1d2d7f532a" x="79.814229" y="288.430125" style="stroke: #000000; stroke-width: 0.8"/>
      </g>
     </g>
     <g id="text_8">
      <!-- 0 -->
      <g transform="translate(66.451729 292.229344) scale(0.1 -0.1)">
       <use xlink:href="#DejaVuSans-30"/>
      </g>
     </g>
    </g>
    <g id="ytick_2">
     <g id="line2d_15">
      <path d="M 79.814229 256.020918 
L 494.073429 256.020918 
" clip-path="url(#pcee0d6e617)" style="fill: none; stroke: #b0b0b0; stroke-opacity: 0.5; stroke-width: 0.8; stroke-linecap: square"/>
     </g>
     <g id="line2d_16">
      <g>
       <use xlink:href="#m1d2d7f532a" x="79.814229" y="256.020918" style="stroke: #000000; stroke-width: 0.8"/>
      </g>
     </g>
     <g id="text_9">
      <!-- 1 -->
      <g transform="translate(66.451729 259.820137) scale(0.1 -0.1)">
       <use xlink:href="#DejaVuSans-31"/>
      </g>
     </g>
    </g>
    <g id="ytick_3">
     <g id="line2d_17">
      <path d="M 79.814229 223.611711 
L 494.073429 223.611711 
" clip-path="url(#pcee0d6e617)" style="fill: none; stroke: #b0b0b0; stroke-opacity: 0.5; stroke-width: 0.8; stroke-linecap: square"/>
     </g>
     <g id="line2d_18">
      <g>
       <use xlink:href="#m1d2d7f532a" x="79.814229" y="223.611711" style="stroke: #000000; stroke-width: 0.8"/>
      </g>
     </g>
     <g id="text_10">
      <!-- 2 -->
      <g transform="translate(66.451729 227.410929) scale(0.1 -0.1)">
       <use xlink:href="#DejaVuSans-32"/>
      </g>
     </g>
    </g>
    <g id="ytick_4">
     <g id="line2d_19">
      <path d="M 79.814229 191.202504 
L 494.073429 191.202504 
" clip-path="url(#pcee0d6e617)" style="fill: none; stroke: #b0b0b0; stroke-opacity: 0.5; stroke-width: 0.8; stroke-linecap: square"/>
     </g>
     <g id="line2d_20">
      <g>
       <use xlink:href="#m1d2d7f532a" x="79.814229" y="191.202504" style="stroke: #000000; stroke-width: 0.8"/>
      </g>
     </g>
     <g id="text_11">
      <!-- 3 -->
      <g transform="translate(66.451729 195.001722) scale(0.1 -0.1)">
       <defs>
        <path id="DejaVuSans-33" d="M 2597 2516 
Q 3050 2419 3304 2112 
Q 3559 1806 3559 1356 
Q 3559 666 3084 287 
Q 2609 -91 1734 -91 
Q 1441 -91 1130 -33 
Q 819 25 488 141 
L 488 750 
Q 750 597 1062 519 
Q 1375 441 1716 441 
Q 2309 441 2620 675 
Q 2931 909 2931 1356 
Q 2931 1769 2642 2001 
Q 2353 2234 1838 2234 
L 1294 2234 
L 1294 2753 
L 1863 2753 
Q 2328 2753 2575 2939 
Q 2822 3125 2822 3475 
Q 2822 3834 2567 4026 
Q 2313 4219 1838 4219 
Q 1578 4219 1281 4162 
Q 984 4106 628 3988 
L 628 4550 
Q 988 4650 1302 4700 
Q 1616 4750 1894 4750 
Q 2613 4750 3031 4423 
Q 3450 4097 3450 3541 
Q 3450 3153 3228 2886 
Q 3006 2619 2597 2516 
z
" transform="scale(0.015625)"/>
       </defs>
       <use xlink:href="#DejaVuSans-33"/>
      </g>
     </g>
    </g>
    <g id="ytick_5">
     <g id="line2d_21">
      <path d="M 79.814229 158.793296 
L 494.073429 158.793296 
" clip-path="url(#pcee0d6e617)" style="fill: none; stroke: #b0b0b0; stroke-opacity: 0.5; stroke-width: 0.8; stroke-linecap: square"/>
     </g>
     <g id="line2d_22">
      <g>
       <use xlink:href="#m1d2d7f532a" x="79.814229" y="158.793296" style="stroke: #000000; stroke-width: 0.8"/>
      </g>
     </g>
     <g id="text_12">
      <!-- 4 -->
      <g transform="translate(66.451729 162.592515) scale(0.1 -0.1)">
       <use xlink:href="#DejaVuSans-34"/>
      </g>
     </g>
    </g>
    <g id="ytick_6">
     <g id="line2d_23">
      <path d="M 79.814229 126.384089 
L 494.073429 126.384089 
" clip-path="url(#pcee0d6e617)" style="fill: none; stroke: #b0b0b0; stroke-opacity: 0.5; stroke-width: 0.8; stroke-linecap: square"/>
     </g>
     <g id="line2d_24">
      <g>
       <use xlink:href="#m1d2d7f532a" x="79.814229" y="126.384089" style="stroke: #000000; stroke-width: 0.8"/>
      </g>
     </g>
     <g id="text_13">
      <!-- 5 -->
      <g transform="translate(66.451729 130.183308) scale(0.1 -0.1)">
       <defs>
        <path id="DejaVuSans-35" d="M 691 4666 
L 3169 4666 
L 3169 4134 
L 1269 4134 
L 1269 2991 
Q 1406 3038 1543 3061 
Q 1681 3084 1819 3084 
Q 2600 3084 3056 2656 
Q 3513 2228 3513 1497 
Q 3513 744 3044 326 
Q 2575 -91 1722 -91 
Q 1428 -91 1123 -41 
Q 819 9 494 109 
L 494 744 
Q 775 591 1075 516 
Q 1375 441 1709 441 
Q 2250 441 2565 725 
Q 2881 1009 2881 1497 
Q 2881 1984 2565 2268 
Q 2250 2553 1709 2553 
Q 1456 2553 1204 2497 
Q 953 2441 691 2322 
L 691 4666 
z
" transform="scale(0.015625)"/>
       </defs>
       <use xlink:href="#DejaVuSans-35"/>
      </g>
     </g>
    </g>
    <g id="ytick_7">
     <g id="line2d_25">
      <path d="M 79.814229 93.974882 
L 494.073429 93.974882 
" clip-path="url(#pcee0d6e617)" style="fill: none; stroke: #b0b0b0; stroke-opacity: 0.5; stroke-width: 0.8; stroke-linecap: square"/>
     </g>
     <g id="line2d_26">
      <g>
       <use xlink:href="#m1d2d7f532a" x="79.814229" y="93.974882" style="stroke: #000000; stroke-width: 0.8"/>
      </g>
     </g>
     <g id="text_14">
      <!-- 6 -->
      <g transform="translate(66.451729 97.774101) scale(0.1 -0.1)">
       <use xlink:href="#DejaVuSans-36"/>
      </g>
     </g>
    </g>
    <g id="ytick_8">
     <g id="line2d_27">
      <path d="M 79.814229 61.565675 
L 494.073429 61.565675 
" clip-path="url(#pcee0d6e617)" style="fill: none; stroke: #b0b0b0; stroke-opacity: 0.5; stroke-width: 0.8; stroke-linecap: square"/>
     </g>
     <g id="line2d_28">
      <g>
       <use xlink:href="#m1d2d7f532a" x="79.814229" y="61.565675" style="stroke: #000000; stroke-width: 0.8"/>
      </g>
     </g>
     <g id="text_15">
      <!-- 7 -->
      <g transform="translate(66.451729 65.364894) scale(0.1 -0.1)">
       <defs>
        <path id="DejaVuSans-37" d="M 525 4666 
L 3525 4666 
L 3525 4397 
L 1831 0 
L 1172 0 
L 2766 4134 
L 525 4134 
L 525 4666 
z
" transform="scale(0.015625)"/>
       </defs>
       <use xlink:href="#DejaVuSans-37"/>
      </g>
     </g>
    </g>
    <g id="ytick_9">
     <g id="line2d_29">
      <path d="M 79.814229 29.156468 
L 494.073429 29.156468 
" clip-path="url(#pcee0d6e617)" style="fill: none; stroke: #b0b0b0; stroke-opacity: 0.5; stroke-width: 0.8; stroke-linecap: square"/>
     </g>
     <g id="line2d_30">
      <g>
       <use xlink:href="#m1d2d7f532a" x="79.814229" y="29.156468" style="stroke: #000000; stroke-width: 0.8"/>
      </g>
     </g>
     <g id="text_16">
      <!-- 8 -->
      <g transform="translate(66.451729 32.955686) scale(0.1 -0.1)">
       <use xlink:href="#DejaVuSans-38"/>
      </g>
     </g>
    </g>
    <g id="text_17">
     <!-- Strom in A -->
     <g transform="translate(60.372042 181.537406) rotate(-90) scale(0.1 -0.1)">
      <defs>
       <path id="DejaVuSans-53" d="M 3425 4513 
L 3425 3897 
Q 3066 4069 2747 4153 
Q 2428 4238 2131 4238 
Q 1616 4238 1336 4038 
Q 1056 3838 1056 3469 
Q 1056 3159 1242 3001 
Q 1428 2844 1947 2747 
L 2328 2669 
Q 3034 2534 3370 2195 
Q 3706 1856 3706 1288 
Q 3706 609 3251 259 
Q 2797 -91 1919 -91 
Q 1588 -91 1214 -16 
Q 841 59 441 206 
L 441 856 
Q 825 641 1194 531 
Q 1563 422 1919 422 
Q 2459 422 2753 634 
Q 3047 847 3047 1241 
Q 3047 1584 2836 1778 
Q 2625 1972 2144 2069 
L 1759 2144 
Q 1053 2284 737 2584 
Q 422 2884 422 3419 
Q 422 4038 858 4394 
Q 1294 4750 2059 4750 
Q 2388 4750 2728 4690 
Q 3069 4631 3425 4513 
z
" transform="scale(0.015625)"/>
       <path id="DejaVuSans-72" d="M 2631 2963 
Q 2534 3019 2420 3045 
Q 2306 3072 2169 3072 
Q 1681 3072 1420 2755 
Q 1159 2438 1159 1844 
L 1159 0 
L 581 0 
L 581 3500 
L 1159 3500 
L 1159 2956 
Q 1341 3275 1631 3429 
Q 1922 3584 2338 3584 
Q 2397 3584 2469 3576 
Q 2541 3569 2628 3553 
L 2631 2963 
z
" transform="scale(0.015625)"/>
       <path id="DejaVuSans-6f" d="M 1959 3097 
Q 1497 3097 1228 2736 
Q 959 2375 959 1747 
Q 959 1119 1226 758 
Q 1494 397 1959 397 
Q 2419 397 2687 759 
Q 2956 1122 2956 1747 
Q 2956 2369 2687 2733 
Q 2419 3097 1959 3097 
z
M 1959 3584 
Q 2709 3584 3137 3096 
Q 3566 2609 3566 1747 
Q 3566 888 3137 398 
Q 2709 -91 1959 -91 
Q 1206 -91 779 398 
Q 353 888 353 1747 
Q 353 2609 779 3096 
Q 1206 3584 1959 3584 
z
" transform="scale(0.015625)"/>
       <path id="DejaVuSans-6d" d="M 3328 2828 
Q 3544 3216 3844 3400 
Q 4144 3584 4550 3584 
Q 5097 3584 5394 3201 
Q 5691 2819 5691 2113 
L 5691 0 
L 5113 0 
L 5113 2094 
Q 5113 2597 4934 2840 
Q 4756 3084 4391 3084 
Q 3944 3084 3684 2787 
Q 3425 2491 3425 1978 
L 3425 0 
L 2847 0 
L 2847 2094 
Q 2847 2600 2669 2842 
Q 2491 3084 2119 3084 
Q 1678 3084 1418 2786 
Q 1159 2488 1159 1978 
L 1159 0 
L 581 0 
L 581 3500 
L 1159 3500 
L 1159 2956 
Q 1356 3278 1631 3431 
Q 1906 3584 2284 3584 
Q 2666 3584 2933 3390 
Q 3200 3197 3328 2828 
z
" transform="scale(0.015625)"/>
       <path id="DejaVuSans-41" d="M 2188 4044 
L 1331 1722 
L 3047 1722 
L 2188 4044 
z
M 1831 4666 
L 2547 4666 
L 4325 0 
L 3669 0 
L 3244 1197 
L 1141 1197 
L 716 0 
L 50 0 
L 1831 4666 
z
" transform="scale(0.015625)"/>
      </defs>
      <use xlink:href="#DejaVuSans-53"/>
      <use xlink:href="#DejaVuSans-74" x="63.476562"/>
      <use xlink:href="#DejaVuSans-72" x="102.685547"/>
      <use xlink:href="#DejaVuSans-6f" x="141.548828"/>
      <use xlink:href="#DejaVuSans-6d" x="202.730469"/>
      <use xlink:href="#DejaVuSans-20" x="300.142578"/>
      <use xlink:href="#DejaVuSans-69" x="331.929688"/>
      <use xlink:href="#DejaVuSans-6e" x="359.712891"/>
      <use xlink:href="#DejaVuSans-20" x="423.091797"/>
      <use xlink:href="#DejaVuSans-41" x="454.878906"/>
     </g>
    </g>
   </g>
   <g id="line2d_31">
    <path d="M 79.814229 288.430125 
L 51.230344 291.671046 
L 55.372936 287.133757 
L 59.515528 289.078309 
L 63.65812 285.837388 
L 67.800712 286.485573 
L 71.943304 287.133757 
L 76.085896 287.781941 
L 80.228488 286.485573 
L 84.37108 287.781941 
L 88.513672 285.837388 
L 92.656264 245.001787 
L 97.213115 98.983578 
L 101.355707 54.435649 
L 105.498299 49.89836 
L 109.640891 42.120151 
L 113.783483 36.286493 
L 117.926075 40.175598 
L 122.068667 34.990125 
L 126.211259 42.120151 
L 130.353851 42.120151 
L 134.496443 46.009255 
L 138.639035 46.009255 
L 143.195887 42.41478 
L 147.338479 47.953808 
L 151.481071 47.953808 
L 155.623663 48.601992 
L 159.766255 47.953808 
L 163.908847 47.953808 
L 168.051439 50.546544 
L 172.194031 47.953808 
L 176.336623 46.009255 
L 180.479215 41.471966 
L 184.621807 44.064703 
L 189.178658 40.647005 
L 193.32125 46.009255 
L 197.463842 41.471966 
L 201.606434 47.305624 
L 205.749026 43.416519 
L 209.891618 47.305624 
L 214.03421 46.65744 
L 218.176802 49.250176 
L 222.319394 53.787465 
L 226.461986 88.141225 
L 230.604578 112.124038 
L 235.161429 141.999434 
L 239.304021 163.330585 
L 243.446613 188.609767 
L 247.589205 206.758923 
L 251.731797 219.074422 
L 255.874389 231.38992 
L 260.016981 235.279025 
L 264.159573 242.409051 
L 268.302165 242.409051 
L 272.444757 244.353603 
L 276.587349 245.001787 
L 281.1442 249.244447 
L 285.286792 252.131813 
L 289.429384 254.076365 
L 293.571976 254.72455 
L 297.714568 256.669102 
L 301.85716 258.613654 
L 305.999752 259.261839 
L 310.142344 263.799128 
L 314.284936 263.150943 
L 318.427528 263.799128 
L 322.57012 261.854575 
L 327.126971 269.27923 
L 331.269563 265.74368 
L 335.412155 254.076365 
L 339.554747 266.391864 
L 343.697339 274.818258 
L 347.839931 272.225521 
L 351.982523 266.391864 
L 356.125115 270.929153 
L 360.267707 275.466442 
L 364.410299 274.170074 
L 368.552891 267.040048 
L 373.109743 268.689972 
L 377.252335 274.170074 
L 381.394927 274.818258 
L 385.537519 270.280969 
L 389.680111 270.280969 
L 393.822703 271.577337 
L 397.965295 273.52189 
L 402.107887 269.632785 
L 406.250479 267.688232 
L 410.393071 274.818258 
L 414.535663 273.52189 
L 419.092514 266.332938 
L 423.235106 271.577337 
L 427.377698 274.818258 
L 431.52029 268.984601 
L 435.662882 265.74368 
L 439.805474 271.577337 
L 443.948066 273.52189 
L 448.090658 268.984601 
L 452.23325 259.910023 
L 456.375842 259.261839 
L 460.518434 274.818258 
L 465.075285 274.582555 
" clip-path="url(#pcee0d6e617)" style="fill: none; stroke: #00008b; stroke-width: 1.5; stroke-linecap: square"/>
   </g>
   <g id="line2d_32">
    <path d="M 79.814229 288.430125 
L 51.230344 278.707363 
L 55.372936 285.837388 
L 59.515528 284.54102 
L 63.65812 285.837388 
L 67.800712 285.837388 
L 71.943304 285.837388 
L 76.085896 285.837388 
L 80.228488 287.133757 
L 84.37108 285.837388 
L 88.513672 286.485573 
L 92.656264 284.54102 
L 97.213115 284.010688 
L 101.355707 286.485573 
L 105.498299 284.54102 
L 109.640891 285.189204 
L 113.783483 284.54102 
L 117.926075 284.54102 
L 122.068667 285.189204 
L 126.211259 230.093552 
L 130.353851 90.085777 
L 134.496443 53.787465 
L 138.639035 49.89836 
L 143.195887 37.700713 
L 147.338479 38.87923 
L 151.481071 36.286493 
L 155.623663 36.934677 
L 159.766255 40.175598 
L 163.908847 42.768335 
L 168.051439 43.416519 
L 172.194031 46.65744 
L 176.336623 44.712887 
L 180.479215 47.305624 
L 184.621807 46.009255 
L 189.178658 48.896621 
L 193.32125 49.250176 
L 197.463842 46.65744 
L 201.606434 47.953808 
L 205.749026 49.250176 
L 209.891618 44.712887 
L 214.03421 42.120151 
L 218.176802 41.471966 
L 222.319394 41.471966 
L 226.461986 44.064703 
L 230.604578 42.120151 
L 235.161429 44.771813 
L 239.304021 46.009255 
L 243.446613 45.361071 
L 247.589205 46.65744 
L 251.731797 47.953808 
L 255.874389 66.751148 
L 260.016981 93.326698 
L 264.159573 125.735905 
L 268.302165 148.42235 
L 272.444757 169.812427 
L 276.587349 194.443424 
L 281.1442 208.585624 
L 285.286792 222.963527 
L 289.429384 233.334473 
L 293.571976 237.223578 
L 297.714568 242.409051 
L 301.85716 242.409051 
L 305.999752 243.705419 
L 310.142344 244.353603 
L 314.284936 246.94634 
L 318.427528 249.539076 
L 322.57012 254.076365 
L 327.126971 253.369255 
L 331.269563 256.020918 
L 335.412155 258.613654 
L 339.554747 259.910023 
L 343.697339 261.854575 
L 347.839931 261.206391 
L 351.982523 267.040048 
L 356.125115 262.502759 
L 360.267707 262.502759 
L 364.410299 268.984601 
L 368.552891 268.336417 
L 373.109743 246.887414 
L 377.252335 239.816314 
L 381.394927 278.059179 
L 385.537519 272.225521 
L 389.680111 273.52189 
L 393.822703 272.225521 
L 397.965295 274.170074 
L 402.107887 274.170074 
L 406.250479 272.873706 
L 410.393071 272.225521 
L 414.535663 268.984601 
L 419.092514 271.636263 
L 423.235106 274.170074 
L 427.377698 272.873706 
L 431.52029 268.336417 
L 435.662882 267.688232 
L 439.805474 274.818258 
L 443.948066 270.929153 
L 448.090658 269.632785 
L 452.23325 269.632785 
L 456.375842 270.280969 
L 460.518434 271.577337 
L 465.075285 268.689972 
" clip-path="url(#pcee0d6e617)" style="fill: none; stroke: #1e90ff; stroke-width: 1.5; stroke-linecap: square"/>
   </g>
   <g id="patch_3">
    <path d="M 79.814229 288.430125 
L 79.814229 22.318125 
" style="fill: none; stroke: #000000; stroke-width: 0.8; stroke-linejoin: miter; stroke-linecap: square"/>
   </g>
   <g id="patch_4">
    <path d="M 494.073429 288.430125 
L 494.073429 22.318125 
" style="fill: none; stroke: #000000; stroke-width: 0.8; stroke-linejoin: miter; stroke-linecap: square"/>
   </g>
   <g id="patch_5">
    <path d="M 79.814229 288.430125 
L 494.073429 288.430125 
" style="fill: none; stroke: #000000; stroke-width: 0.8; stroke-linejoin: miter; stroke-linecap: square"/>
   </g>
   <g id="patch_6">
    <path d="M 79.814229 22.318125 
L 494.073429 22.318125 
" style="fill: none; stroke: #000000; stroke-width: 0.8; stroke-linejoin: miter; stroke-linecap: square"/>
   </g>
   <g id="text_18">
    <!-- Anlaufkurven -->
    <g transform="translate(247.176954 16.318125) scale(0.12 -0.12)">
     <defs>
      <path id="DejaVuSans-6c" d="M 603 4863 
L 1178 4863 
L 1178 0 
L 603 0 
L 603 4863 
z
" transform="scale(0.015625)"/>
      <path id="DejaVuSans-61" d="M 2194 1759 
Q 1497 1759 1228 1600 
Q 959 1441 959 1056 
Q 959 750 1161 570 
Q 1363 391 1709 391 
Q 2188 391 2477 730 
Q 2766 1069 2766 1631 
L 2766 1759 
L 2194 1759 
z
M 3341 1997 
L 3341 0 
L 2766 0 
L 2766 531 
Q 2569 213 2275 61 
Q 1981 -91 1556 -91 
Q 1019 -91 701 211 
Q 384 513 384 1019 
Q 384 1609 779 1909 
Q 1175 2209 1959 2209 
L 2766 2209 
L 2766 2266 
Q 2766 2663 2505 2880 
Q 2244 3097 1772 3097 
Q 1472 3097 1187 3025 
Q 903 2953 641 2809 
L 641 3341 
Q 956 3463 1253 3523 
Q 1550 3584 1831 3584 
Q 2591 3584 2966 3190 
Q 3341 2797 3341 1997 
z
" transform="scale(0.015625)"/>
      <path id="DejaVuSans-75" d="M 544 1381 
L 544 3500 
L 1119 3500 
L 1119 1403 
Q 1119 906 1312 657 
Q 1506 409 1894 409 
Q 2359 409 2629 706 
Q 2900 1003 2900 1516 
L 2900 3500 
L 3475 3500 
L 3475 0 
L 2900 0 
L 2900 538 
Q 2691 219 2414 64 
Q 2138 -91 1772 -91 
Q 1169 -91 856 284 
Q 544 659 544 1381 
z
M 1991 3584 
L 1991 3584 
z
" transform="scale(0.015625)"/>
      <path id="DejaVuSans-66" d="M 2375 4863 
L 2375 4384 
L 1825 4384 
Q 1516 4384 1395 4259 
Q 1275 4134 1275 3809 
L 1275 3500 
L 2222 3500 
L 2222 3053 
L 1275 3053 
L 1275 0 
L 697 0 
L 697 3053 
L 147 3053 
L 147 3500 
L 697 3500 
L 697 3744 
Q 697 4328 969 4595 
Q 1241 4863 1831 4863 
L 2375 4863 
z
" transform="scale(0.015625)"/>
      <path id="DejaVuSans-6b" d="M 581 4863 
L 1159 4863 
L 1159 1991 
L 2875 3500 
L 3609 3500 
L 1753 1863 
L 3688 0 
L 2938 0 
L 1159 1709 
L 1159 0 
L 581 0 
L 581 4863 
z
" transform="scale(0.015625)"/>
      <path id="DejaVuSans-76" d="M 191 3500 
L 800 3500 
L 1894 563 
L 2988 3500 
L 3597 3500 
L 2284 0 
L 1503 0 
L 191 3500 
z
" transform="scale(0.015625)"/>
     </defs>
     <use xlink:href="#DejaVuSans-41"/>
     <use xlink:href="#DejaVuSans-6e" x="68.408203"/>
     <use xlink:href="#DejaVuSans-6c" x="131.787109"/>
     <use xlink:href="#DejaVuSans-61" x="159.570312"/>
     <use xlink:href="#DejaVuSans-75" x="220.849609"/>
     <use xlink:href="#DejaVuSans-66" x="284.228516"/>
     <use xlink:href="#DejaVuSans-6b" x="319.433594"/>
     <use xlink:href="#DejaVuSans-75" x="374.21875"/>
     <use xlink:href="#DejaVuSans-72" x="437.597656"/>
     <use xlink:href="#DejaVuSans-76" x="478.710938"/>
     <use xlink:href="#DejaVuSans-65" x="537.890625"/>
     <use xlink:href="#DejaVuSans-6e" x="599.414062"/>
    </g>
   </g>
  </g>
  <g id="axes_2">
   <g id="matplotlib.axis_3">
    <g id="ytick_10">
     <g id="line2d_33">
      <defs>
       <path id="m56e7261bf8" d="M 0 0 
L 3.5 0 
" style="stroke: #000000; stroke-width: 0.8"/>
      </defs>
      <g>
       <use xlink:href="#m56e7261bf8" x="494.073429" y="288.430125" style="stroke: #000000; stroke-width: 0.8"/>
      </g>
     </g>
     <g id="text_19">
      <!-- 0 -->
      <g transform="translate(501.073429 292.229344) scale(0.1 -0.1)">
       <use xlink:href="#DejaVuSans-30"/>
      </g>
     </g>
    </g>
    <g id="ytick_11">
     <g id="line2d_34">
      <g>
       <use xlink:href="#m56e7261bf8" x="494.073429" y="254.772754" style="stroke: #000000; stroke-width: 0.8"/>
      </g>
     </g>
     <g id="text_20">
      <!-- 200 -->
      <g transform="translate(501.073429 258.571973) scale(0.1 -0.1)">
       <use xlink:href="#DejaVuSans-32"/>
       <use xlink:href="#DejaVuSans-30" x="63.623047"/>
       <use xlink:href="#DejaVuSans-30" x="127.246094"/>
      </g>
     </g>
    </g>
    <g id="ytick_12">
     <g id="line2d_35">
      <g>
       <use xlink:href="#m56e7261bf8" x="494.073429" y="221.115384" style="stroke: #000000; stroke-width: 0.8"/>
      </g>
     </g>
     <g id="text_21">
      <!-- 400 -->
      <g transform="translate(501.073429 224.914603) scale(0.1 -0.1)">
       <use xlink:href="#DejaVuSans-34"/>
       <use xlink:href="#DejaVuSans-30" x="63.623047"/>
       <use xlink:href="#DejaVuSans-30" x="127.246094"/>
      </g>
     </g>
    </g>
    <g id="ytick_13">
     <g id="line2d_36">
      <g>
       <use xlink:href="#m56e7261bf8" x="494.073429" y="187.458013" style="stroke: #000000; stroke-width: 0.8"/>
      </g>
     </g>
     <g id="text_22">
      <!-- 600 -->
      <g transform="translate(501.073429 191.257232) scale(0.1 -0.1)">
       <use xlink:href="#DejaVuSans-36"/>
       <use xlink:href="#DejaVuSans-30" x="63.623047"/>
       <use xlink:href="#DejaVuSans-30" x="127.246094"/>
      </g>
     </g>
    </g>
    <g id="ytick_14">
     <g id="line2d_37">
      <g>
       <use xlink:href="#m56e7261bf8" x="494.073429" y="153.800643" style="stroke: #000000; stroke-width: 0.8"/>
      </g>
     </g>
     <g id="text_23">
      <!-- 800 -->
      <g transform="translate(501.073429 157.599862) scale(0.1 -0.1)">
       <use xlink:href="#DejaVuSans-38"/>
       <use xlink:href="#DejaVuSans-30" x="63.623047"/>
       <use xlink:href="#DejaVuSans-30" x="127.246094"/>
      </g>
     </g>
    </g>
    <g id="ytick_15">
     <g id="line2d_38">
      <g>
       <use xlink:href="#m56e7261bf8" x="494.073429" y="120.143272" style="stroke: #000000; stroke-width: 0.8"/>
      </g>
     </g>
     <g id="text_24">
      <!-- 1000 -->
      <g transform="translate(501.073429 123.942491) scale(0.1 -0.1)">
       <use xlink:href="#DejaVuSans-31"/>
       <use xlink:href="#DejaVuSans-30" x="63.623047"/>
       <use xlink:href="#DejaVuSans-30" x="127.246094"/>
       <use xlink:href="#DejaVuSans-30" x="190.869141"/>
      </g>
     </g>
    </g>
    <g id="ytick_16">
     <g id="line2d_39">
      <g>
       <use xlink:href="#m56e7261bf8" x="494.073429" y="86.485902" style="stroke: #000000; stroke-width: 0.8"/>
      </g>
     </g>
     <g id="text_25">
      <!-- 1200 -->
      <g transform="translate(501.073429 90.285121) scale(0.1 -0.1)">
       <use xlink:href="#DejaVuSans-31"/>
       <use xlink:href="#DejaVuSans-32" x="63.623047"/>
       <use xlink:href="#DejaVuSans-30" x="127.246094"/>
       <use xlink:href="#DejaVuSans-30" x="190.869141"/>
      </g>
     </g>
    </g>
    <g id="ytick_17">
     <g id="line2d_40">
      <g>
       <use xlink:href="#m56e7261bf8" x="494.073429" y="52.828531" style="stroke: #000000; stroke-width: 0.8"/>
      </g>
     </g>
     <g id="text_26">
      <!-- 1400 -->
      <g transform="translate(501.073429 56.62775) scale(0.1 -0.1)">
       <use xlink:href="#DejaVuSans-31"/>
       <use xlink:href="#DejaVuSans-34" x="63.623047"/>
       <use xlink:href="#DejaVuSans-30" x="127.246094"/>
       <use xlink:href="#DejaVuSans-30" x="190.869141"/>
      </g>
     </g>
    </g>
    <g id="text_27">
     <!-- Drehzahl in rpm -->
     <g transform="translate(538.121867 195.494437) rotate(-90) scale(0.1 -0.1)">
      <defs>
       <path id="DejaVuSans-44" d="M 1259 4147 
L 1259 519 
L 2022 519 
Q 2988 519 3436 956 
Q 3884 1394 3884 2338 
Q 3884 3275 3436 3711 
Q 2988 4147 2022 4147 
L 1259 4147 
z
M 628 4666 
L 1925 4666 
Q 3281 4666 3915 4102 
Q 4550 3538 4550 2338 
Q 4550 1131 3912 565 
Q 3275 0 1925 0 
L 628 0 
L 628 4666 
z
" transform="scale(0.015625)"/>
       <path id="DejaVuSans-68" d="M 3513 2113 
L 3513 0 
L 2938 0 
L 2938 2094 
Q 2938 2591 2744 2837 
Q 2550 3084 2163 3084 
Q 1697 3084 1428 2787 
Q 1159 2491 1159 1978 
L 1159 0 
L 581 0 
L 581 4863 
L 1159 4863 
L 1159 2956 
Q 1366 3272 1645 3428 
Q 1925 3584 2291 3584 
Q 2894 3584 3203 3211 
Q 3513 2838 3513 2113 
z
" transform="scale(0.015625)"/>
       <path id="DejaVuSans-7a" d="M 353 3500 
L 3084 3500 
L 3084 2975 
L 922 459 
L 3084 459 
L 3084 0 
L 275 0 
L 275 525 
L 2438 3041 
L 353 3041 
L 353 3500 
z
" transform="scale(0.015625)"/>
       <path id="DejaVuSans-70" d="M 1159 525 
L 1159 -1331 
L 581 -1331 
L 581 3500 
L 1159 3500 
L 1159 2969 
Q 1341 3281 1617 3432 
Q 1894 3584 2278 3584 
Q 2916 3584 3314 3078 
Q 3713 2572 3713 1747 
Q 3713 922 3314 415 
Q 2916 -91 2278 -91 
Q 1894 -91 1617 61 
Q 1341 213 1159 525 
z
M 3116 1747 
Q 3116 2381 2855 2742 
Q 2594 3103 2138 3103 
Q 1681 3103 1420 2742 
Q 1159 2381 1159 1747 
Q 1159 1113 1420 752 
Q 1681 391 2138 391 
Q 2594 391 2855 752 
Q 3116 1113 3116 1747 
z
" transform="scale(0.015625)"/>
      </defs>
      <use xlink:href="#DejaVuSans-44"/>
      <use xlink:href="#DejaVuSans-72" x="77.001953"/>
      <use xlink:href="#DejaVuSans-65" x="115.865234"/>
      <use xlink:href="#DejaVuSans-68" x="177.388672"/>
      <use xlink:href="#DejaVuSans-7a" x="240.767578"/>
      <use xlink:href="#DejaVuSans-61" x="293.257812"/>
      <use xlink:href="#DejaVuSans-68" x="354.537109"/>
      <use xlink:href="#DejaVuSans-6c" x="417.916016"/>
      <use xlink:href="#DejaVuSans-20" x="445.699219"/>
      <use xlink:href="#DejaVuSans-69" x="477.486328"/>
      <use xlink:href="#DejaVuSans-6e" x="505.269531"/>
      <use xlink:href="#DejaVuSans-20" x="568.648438"/>
      <use xlink:href="#DejaVuSans-72" x="600.435547"/>
      <use xlink:href="#DejaVuSans-70" x="641.548828"/>
      <use xlink:href="#DejaVuSans-6d" x="705.025391"/>
     </g>
    </g>
   </g>
   <g id="line2d_41">
    <path d="M 79.814229 288.430125 
L 51.230344 288.430125 
L 55.372936 288.766699 
L 59.515528 288.093551 
L 63.65812 288.430125 
L 67.800712 288.430125 
L 71.943304 288.430125 
L 76.085896 288.430125 
L 80.228488 288.430125 
L 84.37108 288.430125 
L 88.513672 288.430125 
L 92.656264 288.430125 
L 97.213115 281.698651 
L 101.355707 277.99634 
L 105.498299 268.90885 
L 109.640891 261.840802 
L 113.783483 252.416739 
L 117.926075 244.675543 
L 122.068667 237.944069 
L 126.211259 228.183432 
L 130.353851 221.451958 
L 134.496443 213.037615 
L 138.639035 204.286699 
L 143.195887 196.943272 
L 147.338479 188.131161 
L 151.481071 181.73626 
L 155.623663 173.995065 
L 159.766255 166.590444 
L 163.908847 157.839527 
L 168.051439 150.434906 
L 172.194031 142.020563 
L 176.336623 134.952515 
L 180.479215 127.547894 
L 184.621807 120.479846 
L 189.178658 112.49387 
L 193.32125 104.660882 
L 197.463842 98.602555 
L 201.606434 91.534507 
L 205.749026 85.476181 
L 209.891618 79.417854 
L 214.03421 75.042396 
L 218.176802 70.330364 
L 222.319394 64.272037 
L 226.461986 59.560005 
L 230.604578 56.530842 
L 235.161429 53.74646 
L 239.304021 50.135942 
L 243.446613 47.443352 
L 247.589205 45.760484 
L 251.731797 45.760484 
L 255.874389 43.404468 
L 260.016981 43.067894 
L 264.159573 42.394747 
L 268.302165 41.721599 
L 272.444757 42.058173 
L 276.587349 42.058173 
L 281.1442 39.977535 
L 285.286792 40.038731 
L 289.429384 39.029009 
L 293.571976 38.019288 
L 297.714568 38.355862 
L 301.85716 38.019288 
L 305.999752 39.029009 
L 310.142344 37.346141 
L 314.284936 38.692436 
L 318.427528 37.682715 
L 322.57012 35.999846 
L 327.126971 36.917774 
L 331.269563 37.346141 
L 335.412155 36.33642 
L 339.554747 35.326699 
L 343.697339 36.672994 
L 347.839931 36.33642 
L 351.982523 35.999846 
L 356.125115 35.999846 
L 360.267707 36.672994 
L 364.410299 36.672994 
L 368.552891 37.682715 
L 373.109743 36.305822 
L 377.252335 35.326699 
L 381.394927 35.999846 
L 385.537519 35.999846 
L 389.680111 35.999846 
L 393.822703 35.999846 
L 397.965295 37.346141 
L 402.107887 37.682715 
L 406.250479 37.682715 
L 410.393071 36.672994 
L 414.535663 36.672994 
L 419.092514 36.611798 
L 423.235106 36.672994 
L 427.377698 36.672994 
L 431.52029 36.672994 
L 435.662882 36.672994 
L 439.805474 35.999846 
L 443.948066 35.999846 
L 448.090658 37.009567 
L 452.23325 37.009567 
L 456.375842 34.990125 
L 460.518434 36.672994 
L 465.075285 35.999846 
" clip-path="url(#pcee0d6e617)" style="fill: none; stroke: #ff8c00; stroke-width: 1.5; stroke-linecap: square"/>
   </g>
   <g id="line2d_42">
    <path d="M 79.814229 288.430125 
L 51.230344 288.430125 
L 55.372936 288.766699 
L 59.515528 288.430125 
L 63.65812 288.430125 
L 67.800712 288.430125 
L 71.943304 288.430125 
L 76.085896 288.430125 
L 80.228488 288.430125 
L 84.37108 288.430125 
L 88.513672 288.430125 
L 92.656264 288.430125 
L 97.213115 288.430125 
L 101.355707 288.430125 
L 105.498299 289.103272 
L 109.640891 288.766699 
L 113.783483 288.430125 
L 117.926075 288.430125 
L 122.068667 288.430125 
L 126.211259 288.430125 
L 130.353851 282.371798 
L 134.496443 277.99634 
L 138.639035 269.581998 
L 143.195887 260.280324 
L 147.338479 252.080165 
L 151.481071 243.665822 
L 155.623663 235.25148 
L 159.766255 227.846858 
L 163.908847 219.095942 
L 168.051439 210.345025 
L 172.194031 202.940404 
L 176.336623 195.535782 
L 180.479215 187.458013 
L 184.621807 179.043671 
L 189.178658 171.853233 
L 193.32125 162.888133 
L 197.463842 155.483511 
L 201.606434 147.405743 
L 205.749026 138.9914 
L 209.891618 132.259926 
L 214.03421 124.518731 
L 218.176802 117.114109 
L 222.319394 109.709488 
L 226.461986 103.651161 
L 230.604578 95.909966 
L 235.161429 88.627735 
L 239.304021 82.783591 
L 243.446613 77.734986 
L 247.589205 72.68638 
L 251.731797 68.647496 
L 255.874389 62.589169 
L 260.016981 58.886858 
L 264.159573 55.184547 
L 268.302165 52.491958 
L 272.444757 49.799368 
L 276.587349 47.106778 
L 281.1442 45.179129 
L 285.286792 44.750762 
L 289.429384 43.404468 
L 293.571976 43.067894 
L 297.714568 41.385025 
L 301.85716 41.048452 
L 305.999752 40.375304 
L 310.142344 40.375304 
L 314.284936 39.365583 
L 318.427528 39.702157 
L 322.57012 38.355862 
L 327.126971 39.365583 
L 331.269563 38.355862 
L 335.412155 39.029009 
L 339.554747 38.019288 
L 343.697339 37.682715 
L 347.839931 38.019288 
L 351.982523 38.355862 
L 356.125115 37.682715 
L 360.267707 37.009567 
L 364.410299 37.682715 
L 368.552891 36.33642 
L 373.109743 37.835703 
L 377.252335 35.326699 
L 381.394927 35.663272 
L 385.537519 37.009567 
L 389.680111 35.999846 
L 393.822703 35.663272 
L 397.965295 36.672994 
L 402.107887 35.999846 
L 406.250479 36.672994 
L 410.393071 35.999846 
L 414.535663 36.33642 
L 419.092514 35.69387 
L 423.235106 36.33642 
L 427.377698 36.33642 
L 431.52029 36.33642 
L 435.662882 37.009567 
L 439.805474 35.999846 
L 443.948066 36.672994 
L 448.090658 37.009567 
L 452.23325 38.355862 
L 456.375842 37.346141 
L 460.518434 35.999846 
L 465.075285 36.917774 
" clip-path="url(#pcee0d6e617)" style="fill: none; stroke: #ffd700; stroke-width: 1.5; stroke-linecap: square"/>
   </g>
   <g id="patch_7">
    <path d="M 79.814229 288.430125 
L 79.814229 22.318125 
" style="fill: none; stroke: #000000; stroke-width: 0.8; stroke-linejoin: miter; stroke-linecap: square"/>
   </g>
   <g id="patch_8">
    <path d="M 494.073429 288.430125 
L 494.073429 22.318125 
" style="fill: none; stroke: #000000; stroke-width: 0.8; stroke-linejoin: miter; stroke-linecap: square"/>
   </g>
   <g id="patch_9">
    <path d="M 79.814229 288.430125 
L 494.073429 288.430125 
" style="fill: none; stroke: #000000; stroke-width: 0.8; stroke-linejoin: miter; stroke-linecap: square"/>
   </g>
   <g id="patch_10">
    <path d="M 79.814229 22.318125 
L 494.073429 22.318125 
" style="fill: none; stroke: #000000; stroke-width: 0.8; stroke-linejoin: miter; stroke-linecap: square"/>
   </g>
  </g>
  <g id="axes_3">
   <g id="matplotlib.axis_4">
    <g id="ytick_18">
     <g id="line2d_43">
      <g>
       <use xlink:href="#m1d2d7f532a" x="30.103125" y="288.430125" style="stroke: #000000; stroke-width: 0.8"/>
      </g>
     </g>
     <g id="text_28">
      <!-- 0.0 -->
      <g transform="translate(7.2 292.229344) scale(0.1 -0.1)">
       <use xlink:href="#DejaVuSans-30"/>
       <use xlink:href="#DejaVuSans-2e" x="63.623047"/>
       <use xlink:href="#DejaVuSans-30" x="95.410156"/>
      </g>
     </g>
    </g>
    <g id="ytick_19">
     <g id="line2d_44">
      <g>
       <use xlink:href="#m1d2d7f532a" x="30.103125" y="235.207725" style="stroke: #000000; stroke-width: 0.8"/>
      </g>
     </g>
     <g id="text_29">
      <!-- 0.2 -->
      <g transform="translate(7.2 239.006944) scale(0.1 -0.1)">
       <use xlink:href="#DejaVuSans-30"/>
       <use xlink:href="#DejaVuSans-2e" x="63.623047"/>
       <use xlink:href="#DejaVuSans-32" x="95.410156"/>
      </g>
     </g>
    </g>
    <g id="ytick_20">
     <g id="line2d_45">
      <g>
       <use xlink:href="#m1d2d7f532a" x="30.103125" y="181.985325" style="stroke: #000000; stroke-width: 0.8"/>
      </g>
     </g>
     <g id="text_30">
      <!-- 0.4 -->
      <g transform="translate(7.2 185.784544) scale(0.1 -0.1)">
       <use xlink:href="#DejaVuSans-30"/>
       <use xlink:href="#DejaVuSans-2e" x="63.623047"/>
       <use xlink:href="#DejaVuSans-34" x="95.410156"/>
      </g>
     </g>
    </g>
    <g id="ytick_21">
     <g id="line2d_46">
      <g>
       <use xlink:href="#m1d2d7f532a" x="30.103125" y="128.762925" style="stroke: #000000; stroke-width: 0.8"/>
      </g>
     </g>
     <g id="text_31">
      <!-- 0.6 -->
      <g transform="translate(7.2 132.562144) scale(0.1 -0.1)">
       <use xlink:href="#DejaVuSans-30"/>
       <use xlink:href="#DejaVuSans-2e" x="63.623047"/>
       <use xlink:href="#DejaVuSans-36" x="95.410156"/>
      </g>
     </g>
    </g>
    <g id="ytick_22">
     <g id="line2d_47">
      <g>
       <use xlink:href="#m1d2d7f532a" x="30.103125" y="75.540525" style="stroke: #000000; stroke-width: 0.8"/>
      </g>
     </g>
     <g id="text_32">
      <!-- 0.8 -->
      <g transform="translate(7.2 79.339744) scale(0.1 -0.1)">
       <use xlink:href="#DejaVuSans-30"/>
       <use xlink:href="#DejaVuSans-2e" x="63.623047"/>
       <use xlink:href="#DejaVuSans-38" x="95.410156"/>
      </g>
     </g>
    </g>
    <g id="ytick_23">
     <g id="line2d_48">
      <g>
       <use xlink:href="#m1d2d7f532a" x="30.103125" y="22.318125" style="stroke: #000000; stroke-width: 0.8"/>
      </g>
     </g>
     <g id="text_33">
      <!-- 1.0 -->
      <g transform="translate(7.2 26.117344) scale(0.1 -0.1)">
       <use xlink:href="#DejaVuSans-31"/>
       <use xlink:href="#DejaVuSans-2e" x="63.623047"/>
       <use xlink:href="#DejaVuSans-30" x="95.410156"/>
      </g>
     </g>
    </g>
   </g>
   <g id="patch_11">
    <path d="M 30.103125 288.430125 
L 30.103125 22.318125 
" style="fill: none; stroke: #000000; stroke-width: 0.8; stroke-linejoin: miter; stroke-linecap: square"/>
   </g>
   <g id="patch_12">
    <path d="M 494.073429 288.430125 
L 494.073429 22.318125 
" style="fill: none; stroke: #000000; stroke-width: 0.8; stroke-linejoin: miter; stroke-linecap: square"/>
   </g>
   <g id="patch_13">
    <path d="M 79.814229 288.430125 
L 494.073429 288.430125 
" style="fill: none; stroke: #000000; stroke-width: 0.8; stroke-linejoin: miter; stroke-linecap: square"/>
   </g>
   <g id="patch_14">
    <path d="M 79.814229 22.318125 
L 494.073429 22.318125 
" style="fill: none; stroke: #000000; stroke-width: 0.8; stroke-linejoin: miter; stroke-linecap: square"/>
   </g>
  </g>
  <g id="legend_1">
   <g id="patch_15">
    <path d="M 394.697429 215.358625 
L 480.806804 215.358625 
Q 482.806804 215.358625 482.806804 213.358625 
L 482.806804 155.646125 
Q 482.806804 153.646125 480.806804 153.646125 
L 394.697429 153.646125 
Q 392.697429 153.646125 392.697429 155.646125 
L 392.697429 213.358625 
Q 392.697429 215.358625 394.697429 215.358625 
z
" style="fill: #ffffff; opacity: 0.8; stroke: #cccccc; stroke-linejoin: miter"/>
   </g>
   <g id="line2d_49">
    <path d="M 396.697429 161.744562 
L 406.697429 161.744562 
L 416.697429 161.744562 
" style="fill: none; stroke: #00008b; stroke-width: 1.5; stroke-linecap: square"/>
   </g>
   <g id="text_34">
    <!-- Strom 1 -->
    <g transform="translate(424.697429 165.244562) scale(0.1 -0.1)">
     <use xlink:href="#DejaVuSans-53"/>
     <use xlink:href="#DejaVuSans-74" x="63.476562"/>
     <use xlink:href="#DejaVuSans-72" x="102.685547"/>
     <use xlink:href="#DejaVuSans-6f" x="141.548828"/>
     <use xlink:href="#DejaVuSans-6d" x="202.730469"/>
     <use xlink:href="#DejaVuSans-20" x="300.142578"/>
     <use xlink:href="#DejaVuSans-31" x="331.929688"/>
    </g>
   </g>
   <g id="line2d_50">
    <path d="M 396.697429 176.422687 
L 406.697429 176.422687 
L 416.697429 176.422687 
" style="fill: none; stroke: #1e90ff; stroke-width: 1.5; stroke-linecap: square"/>
   </g>
   <g id="text_35">
    <!-- Strom 2 -->
    <g transform="translate(424.697429 179.922687) scale(0.1 -0.1)">
     <use xlink:href="#DejaVuSans-53"/>
     <use xlink:href="#DejaVuSans-74" x="63.476562"/>
     <use xlink:href="#DejaVuSans-72" x="102.685547"/>
     <use xlink:href="#DejaVuSans-6f" x="141.548828"/>
     <use xlink:href="#DejaVuSans-6d" x="202.730469"/>
     <use xlink:href="#DejaVuSans-20" x="300.142578"/>
     <use xlink:href="#DejaVuSans-32" x="331.929688"/>
    </g>
   </g>
   <g id="line2d_51">
    <path d="M 396.697429 191.100812 
L 406.697429 191.100812 
L 416.697429 191.100812 
" style="fill: none; stroke: #ff8c00; stroke-width: 1.5; stroke-linecap: square"/>
   </g>
   <g id="text_36">
    <!-- Drehzahl 1 -->
    <g transform="translate(424.697429 194.600812) scale(0.1 -0.1)">
     <use xlink:href="#DejaVuSans-44"/>
     <use xlink:href="#DejaVuSans-72" x="77.001953"/>
     <use xlink:href="#DejaVuSans-65" x="115.865234"/>
     <use xlink:href="#DejaVuSans-68" x="177.388672"/>
     <use xlink:href="#DejaVuSans-7a" x="240.767578"/>
     <use xlink:href="#DejaVuSans-61" x="293.257812"/>
     <use xlink:href="#DejaVuSans-68" x="354.537109"/>
     <use xlink:href="#DejaVuSans-6c" x="417.916016"/>
     <use xlink:href="#DejaVuSans-20" x="445.699219"/>
     <use xlink:href="#DejaVuSans-31" x="477.486328"/>
    </g>
   </g>
   <g id="line2d_52">
    <path d="M 396.697429 205.778937 
L 406.697429 205.778937 
L 416.697429 205.778937 
" style="fill: none; stroke: #ffd700; stroke-width: 1.5; stroke-linecap: square"/>
   </g>
   <g id="text_37">
    <!-- Drehzahl 2 -->
    <g transform="translate(424.697429 209.278937) scale(0.1 -0.1)">
     <use xlink:href="#DejaVuSans-44"/>
     <use xlink:href="#DejaVuSans-72" x="77.001953"/>
     <use xlink:href="#DejaVuSans-65" x="115.865234"/>
     <use xlink:href="#DejaVuSans-68" x="177.388672"/>
     <use xlink:href="#DejaVuSans-7a" x="240.767578"/>
     <use xlink:href="#DejaVuSans-61" x="293.257812"/>
     <use xlink:href="#DejaVuSans-68" x="354.537109"/>
     <use xlink:href="#DejaVuSans-6c" x="417.916016"/>
     <use xlink:href="#DejaVuSans-20" x="445.699219"/>
     <use xlink:href="#DejaVuSans-32" x="477.486328"/>
    </g>
   </g>
  </g>
 </g>
 <defs>
  <clipPath id="pcee0d6e617">
   <rect x="79.814229" y="22.318125" width="414.2592" height="266.112"/>
  </clipPath>
 </defs>
</svg>
