<?xml version="1.0" encoding="utf-8" standalone="no"?>
<!DOCTYPE svg PUBLIC "-//W3C//DTD SVG 1.1//EN"
  "http://www.w3.org/Graphics/SVG/1.1/DTD/svg11.dtd">
<svg xmlns:xlink="http://www.w3.org/1999/xlink" width="457.41375pt" height="325.986375pt" viewBox="0 0 457.41375 325.986375" xmlns="http://www.w3.org/2000/svg" version="1.1">
 <metadata>
  <rdf:RDF xmlns:dc="http://purl.org/dc/elements/1.1/" xmlns:cc="http://creativecommons.org/ns#" xmlns:rdf="http://www.w3.org/1999/02/22-rdf-syntax-ns#">
   <cc:Work>
    <dc:type rdf:resource="http://purl.org/dc/dcmitype/StillImage"/>
    <dc:date>2024-11-25T14:07:55.461737</dc:date>
    <dc:format>image/svg+xml</dc:format>
    <dc:creator>
     <cc:Agent>
      <dc:title>Matplotlib v3.6.2, https://matplotlib.org/</dc:title>
     </cc:Agent>
    </dc:creator>
   </cc:Work>
  </rdf:RDF>
 </metadata>
 <defs>
  <style type="text/css">*{stroke-linejoin: round; stroke-linecap: butt}</style>
 </defs>
 <g id="figure_1">
  <g id="patch_1">
   <path d="M 0 325.986375 
L 457.41375 325.986375 
L 457.41375 0 
L 0 0 
z
" style="fill: #ffffff"/>
  </g>
  <g id="axes_1">
   <g id="patch_2">
    <path d="M 46.965625 288.430125 
L 404.085625 288.430125 
L 404.085625 22.318125 
L 46.965625 22.318125 
z
" style="fill: #ffffff"/>
   </g>
   <g id="matplotlib.axis_1">
    <g id="xtick_1">
     <g id="line2d_1">
      <path d="M 46.965625 288.430125 
L 46.965625 22.318125 
" clip-path="url(#pf8919c76d5)" style="fill: none; stroke: #b0b0b0; stroke-opacity: 0.5; stroke-width: 0.8; stroke-linecap: square"/>
     </g>
     <g id="line2d_2">
      <defs>
       <path id="m7cf99ee153" d="M 0 0 
L 0 3.5 
" style="stroke: #000000; stroke-width: 0.8"/>
      </defs>
      <g>
       <use xlink:href="#m7cf99ee153" x="46.965625" y="288.430125" style="stroke: #000000; stroke-width: 0.8"/>
      </g>
     </g>
     <g id="text_1">
      <!-- 0.0 -->
      <g transform="translate(39.014063 303.028562) scale(0.1 -0.1)">
       <defs>
        <path id="DejaVuSans-30" d="M 2034 4250 
Q 1547 4250 1301 3770 
Q 1056 3291 1056 2328 
Q 1056 1369 1301 889 
Q 1547 409 2034 409 
Q 2525 409 2770 889 
Q 3016 1369 3016 2328 
Q 3016 3291 2770 3770 
Q 2525 4250 2034 4250 
z
M 2034 4750 
Q 2819 4750 3233 4129 
Q 3647 3509 3647 2328 
Q 3647 1150 3233 529 
Q 2819 -91 2034 -91 
Q 1250 -91 836 529 
Q 422 1150 422 2328 
Q 422 3509 836 4129 
Q 1250 4750 2034 4750 
z
" transform="scale(0.015625)"/>
        <path id="DejaVuSans-2e" d="M 684 794 
L 1344 794 
L 1344 0 
L 684 0 
L 684 794 
z
" transform="scale(0.015625)"/>
       </defs>
       <use xlink:href="#DejaVuSans-30"/>
       <use xlink:href="#DejaVuSans-2e" x="63.623047"/>
       <use xlink:href="#DejaVuSans-30" x="95.410156"/>
      </g>
     </g>
    </g>
    <g id="xtick_2">
     <g id="line2d_3">
      <path d="M 118.389625 288.430125 
L 118.389625 22.318125 
" clip-path="url(#pf8919c76d5)" style="fill: none; stroke: #b0b0b0; stroke-opacity: 0.5; stroke-width: 0.8; stroke-linecap: square"/>
     </g>
     <g id="line2d_4">
      <g>
       <use xlink:href="#m7cf99ee153" x="118.389625" y="288.430125" style="stroke: #000000; stroke-width: 0.8"/>
      </g>
     </g>
     <g id="text_2">
      <!-- 0.2 -->
      <g transform="translate(110.438063 303.028562) scale(0.1 -0.1)">
       <defs>
        <path id="DejaVuSans-32" d="M 1228 531 
L 3431 531 
L 3431 0 
L 469 0 
L 469 531 
Q 828 903 1448 1529 
Q 2069 2156 2228 2338 
Q 2531 2678 2651 2914 
Q 2772 3150 2772 3378 
Q 2772 3750 2511 3984 
Q 2250 4219 1831 4219 
Q 1534 4219 1204 4116 
Q 875 4013 500 3803 
L 500 4441 
Q 881 4594 1212 4672 
Q 1544 4750 1819 4750 
Q 2544 4750 2975 4387 
Q 3406 4025 3406 3419 
Q 3406 3131 3298 2873 
Q 3191 2616 2906 2266 
Q 2828 2175 2409 1742 
Q 1991 1309 1228 531 
z
" transform="scale(0.015625)"/>
       </defs>
       <use xlink:href="#DejaVuSans-30"/>
       <use xlink:href="#DejaVuSans-2e" x="63.623047"/>
       <use xlink:href="#DejaVuSans-32" x="95.410156"/>
      </g>
     </g>
    </g>
    <g id="xtick_3">
     <g id="line2d_5">
      <path d="M 189.813625 288.430125 
L 189.813625 22.318125 
" clip-path="url(#pf8919c76d5)" style="fill: none; stroke: #b0b0b0; stroke-opacity: 0.5; stroke-width: 0.8; stroke-linecap: square"/>
     </g>
     <g id="line2d_6">
      <g>
       <use xlink:href="#m7cf99ee153" x="189.813625" y="288.430125" style="stroke: #000000; stroke-width: 0.8"/>
      </g>
     </g>
     <g id="text_3">
      <!-- 0.4 -->
      <g transform="translate(181.862063 303.028562) scale(0.1 -0.1)">
       <defs>
        <path id="DejaVuSans-34" d="M 2419 4116 
L 825 1625 
L 2419 1625 
L 2419 4116 
z
M 2253 4666 
L 3047 4666 
L 3047 1625 
L 3713 1625 
L 3713 1100 
L 3047 1100 
L 3047 0 
L 2419 0 
L 2419 1100 
L 313 1100 
L 313 1709 
L 2253 4666 
z
" transform="scale(0.015625)"/>
       </defs>
       <use xlink:href="#DejaVuSans-30"/>
       <use xlink:href="#DejaVuSans-2e" x="63.623047"/>
       <use xlink:href="#DejaVuSans-34" x="95.410156"/>
      </g>
     </g>
    </g>
    <g id="xtick_4">
     <g id="line2d_7">
      <path d="M 261.237625 288.430125 
L 261.237625 22.318125 
" clip-path="url(#pf8919c76d5)" style="fill: none; stroke: #b0b0b0; stroke-opacity: 0.5; stroke-width: 0.8; stroke-linecap: square"/>
     </g>
     <g id="line2d_8">
      <g>
       <use xlink:href="#m7cf99ee153" x="261.237625" y="288.430125" style="stroke: #000000; stroke-width: 0.8"/>
      </g>
     </g>
     <g id="text_4">
      <!-- 0.6 -->
      <g transform="translate(253.286063 303.028562) scale(0.1 -0.1)">
       <defs>
        <path id="DejaVuSans-36" d="M 2113 2584 
Q 1688 2584 1439 2293 
Q 1191 2003 1191 1497 
Q 1191 994 1439 701 
Q 1688 409 2113 409 
Q 2538 409 2786 701 
Q 3034 994 3034 1497 
Q 3034 2003 2786 2293 
Q 2538 2584 2113 2584 
z
M 3366 4563 
L 3366 3988 
Q 3128 4100 2886 4159 
Q 2644 4219 2406 4219 
Q 1781 4219 1451 3797 
Q 1122 3375 1075 2522 
Q 1259 2794 1537 2939 
Q 1816 3084 2150 3084 
Q 2853 3084 3261 2657 
Q 3669 2231 3669 1497 
Q 3669 778 3244 343 
Q 2819 -91 2113 -91 
Q 1303 -91 875 529 
Q 447 1150 447 2328 
Q 447 3434 972 4092 
Q 1497 4750 2381 4750 
Q 2619 4750 2861 4703 
Q 3103 4656 3366 4563 
z
" transform="scale(0.015625)"/>
       </defs>
       <use xlink:href="#DejaVuSans-30"/>
       <use xlink:href="#DejaVuSans-2e" x="63.623047"/>
       <use xlink:href="#DejaVuSans-36" x="95.410156"/>
      </g>
     </g>
    </g>
    <g id="xtick_5">
     <g id="line2d_9">
      <path d="M 332.661625 288.430125 
L 332.661625 22.318125 
" clip-path="url(#pf8919c76d5)" style="fill: none; stroke: #b0b0b0; stroke-opacity: 0.5; stroke-width: 0.8; stroke-linecap: square"/>
     </g>
     <g id="line2d_10">
      <g>
       <use xlink:href="#m7cf99ee153" x="332.661625" y="288.430125" style="stroke: #000000; stroke-width: 0.8"/>
      </g>
     </g>
     <g id="text_5">
      <!-- 0.8 -->
      <g transform="translate(324.710063 303.028562) scale(0.1 -0.1)">
       <defs>
        <path id="DejaVuSans-38" d="M 2034 2216 
Q 1584 2216 1326 1975 
Q 1069 1734 1069 1313 
Q 1069 891 1326 650 
Q 1584 409 2034 409 
Q 2484 409 2743 651 
Q 3003 894 3003 1313 
Q 3003 1734 2745 1975 
Q 2488 2216 2034 2216 
z
M 1403 2484 
Q 997 2584 770 2862 
Q 544 3141 544 3541 
Q 544 4100 942 4425 
Q 1341 4750 2034 4750 
Q 2731 4750 3128 4425 
Q 3525 4100 3525 3541 
Q 3525 3141 3298 2862 
Q 3072 2584 2669 2484 
Q 3125 2378 3379 2068 
Q 3634 1759 3634 1313 
Q 3634 634 3220 271 
Q 2806 -91 2034 -91 
Q 1263 -91 848 271 
Q 434 634 434 1313 
Q 434 1759 690 2068 
Q 947 2378 1403 2484 
z
M 1172 3481 
Q 1172 3119 1398 2916 
Q 1625 2713 2034 2713 
Q 2441 2713 2670 2916 
Q 2900 3119 2900 3481 
Q 2900 3844 2670 4047 
Q 2441 4250 2034 4250 
Q 1625 4250 1398 4047 
Q 1172 3844 1172 3481 
z
" transform="scale(0.015625)"/>
       </defs>
       <use xlink:href="#DejaVuSans-30"/>
       <use xlink:href="#DejaVuSans-2e" x="63.623047"/>
       <use xlink:href="#DejaVuSans-38" x="95.410156"/>
      </g>
     </g>
    </g>
    <g id="xtick_6">
     <g id="line2d_11">
      <path d="M 404.085625 288.430125 
L 404.085625 22.318125 
" clip-path="url(#pf8919c76d5)" style="fill: none; stroke: #b0b0b0; stroke-opacity: 0.5; stroke-width: 0.8; stroke-linecap: square"/>
     </g>
     <g id="line2d_12">
      <g>
       <use xlink:href="#m7cf99ee153" x="404.085625" y="288.430125" style="stroke: #000000; stroke-width: 0.8"/>
      </g>
     </g>
     <g id="text_6">
      <!-- 1.0 -->
      <g transform="translate(396.134063 303.028562) scale(0.1 -0.1)">
       <defs>
        <path id="DejaVuSans-31" d="M 794 531 
L 1825 531 
L 1825 4091 
L 703 3866 
L 703 4441 
L 1819 4666 
L 2450 4666 
L 2450 531 
L 3481 531 
L 3481 0 
L 794 0 
L 794 531 
z
" transform="scale(0.015625)"/>
       </defs>
       <use xlink:href="#DejaVuSans-31"/>
       <use xlink:href="#DejaVuSans-2e" x="63.623047"/>
       <use xlink:href="#DejaVuSans-30" x="95.410156"/>
      </g>
     </g>
    </g>
    <g id="text_7">
     <!-- Zeit in s -->
     <g transform="translate(205.334219 316.706687) scale(0.1 -0.1)">
      <defs>
       <path id="DejaVuSans-5a" d="M 359 4666 
L 4025 4666 
L 4025 4184 
L 1075 531 
L 4097 531 
L 4097 0 
L 288 0 
L 288 481 
L 3238 4134 
L 359 4134 
L 359 4666 
z
" transform="scale(0.015625)"/>
       <path id="DejaVuSans-65" d="M 3597 1894 
L 3597 1613 
L 953 1613 
Q 991 1019 1311 708 
Q 1631 397 2203 397 
Q 2534 397 2845 478 
Q 3156 559 3463 722 
L 3463 178 
Q 3153 47 2828 -22 
Q 2503 -91 2169 -91 
Q 1331 -91 842 396 
Q 353 884 353 1716 
Q 353 2575 817 3079 
Q 1281 3584 2069 3584 
Q 2775 3584 3186 3129 
Q 3597 2675 3597 1894 
z
M 3022 2063 
Q 3016 2534 2758 2815 
Q 2500 3097 2075 3097 
Q 1594 3097 1305 2825 
Q 1016 2553 972 2059 
L 3022 2063 
z
" transform="scale(0.015625)"/>
       <path id="DejaVuSans-69" d="M 603 3500 
L 1178 3500 
L 1178 0 
L 603 0 
L 603 3500 
z
M 603 4863 
L 1178 4863 
L 1178 4134 
L 603 4134 
L 603 4863 
z
" transform="scale(0.015625)"/>
       <path id="DejaVuSans-74" d="M 1172 4494 
L 1172 3500 
L 2356 3500 
L 2356 3053 
L 1172 3053 
L 1172 1153 
Q 1172 725 1289 603 
Q 1406 481 1766 481 
L 2356 481 
L 2356 0 
L 1766 0 
Q 1100 0 847 248 
Q 594 497 594 1153 
L 594 3053 
L 172 3053 
L 172 3500 
L 594 3500 
L 594 4494 
L 1172 4494 
z
" transform="scale(0.015625)"/>
       <path id="DejaVuSans-20" transform="scale(0.015625)"/>
       <path id="DejaVuSans-6e" d="M 3513 2113 
L 3513 0 
L 2938 0 
L 2938 2094 
Q 2938 2591 2744 2837 
Q 2550 3084 2163 3084 
Q 1697 3084 1428 2787 
Q 1159 2491 1159 1978 
L 1159 0 
L 581 0 
L 581 3500 
L 1159 3500 
L 1159 2956 
Q 1366 3272 1645 3428 
Q 1925 3584 2291 3584 
Q 2894 3584 3203 3211 
Q 3513 2838 3513 2113 
z
" transform="scale(0.015625)"/>
       <path id="DejaVuSans-73" d="M 2834 3397 
L 2834 2853 
Q 2591 2978 2328 3040 
Q 2066 3103 1784 3103 
Q 1356 3103 1142 2972 
Q 928 2841 928 2578 
Q 928 2378 1081 2264 
Q 1234 2150 1697 2047 
L 1894 2003 
Q 2506 1872 2764 1633 
Q 3022 1394 3022 966 
Q 3022 478 2636 193 
Q 2250 -91 1575 -91 
Q 1294 -91 989 -36 
Q 684 19 347 128 
L 347 722 
Q 666 556 975 473 
Q 1284 391 1588 391 
Q 1994 391 2212 530 
Q 2431 669 2431 922 
Q 2431 1156 2273 1281 
Q 2116 1406 1581 1522 
L 1381 1569 
Q 847 1681 609 1914 
Q 372 2147 372 2553 
Q 372 3047 722 3315 
Q 1072 3584 1716 3584 
Q 2034 3584 2315 3537 
Q 2597 3491 2834 3397 
z
" transform="scale(0.015625)"/>
      </defs>
      <use xlink:href="#DejaVuSans-5a"/>
      <use xlink:href="#DejaVuSans-65" x="68.505859"/>
      <use xlink:href="#DejaVuSans-69" x="130.029297"/>
      <use xlink:href="#DejaVuSans-74" x="157.8125"/>
      <use xlink:href="#DejaVuSans-20" x="197.021484"/>
      <use xlink:href="#DejaVuSans-69" x="228.808594"/>
      <use xlink:href="#DejaVuSans-6e" x="256.591797"/>
      <use xlink:href="#DejaVuSans-20" x="319.970703"/>
      <use xlink:href="#DejaVuSans-73" x="351.757812"/>
     </g>
    </g>
   </g>
   <g id="matplotlib.axis_2">
    <g id="ytick_1">
     <g id="line2d_13">
      <path d="M 46.965625 274.58741 
L 404.085625 274.58741 
" clip-path="url(#pf8919c76d5)" style="fill: none; stroke: #b0b0b0; stroke-opacity: 0.5; stroke-width: 0.8; stroke-linecap: square"/>
     </g>
     <g id="line2d_14">
      <defs>
       <path id="mfa2861fc47" d="M 0 0 
L -3.5 0 
" style="stroke: #000000; stroke-width: 0.8"/>
      </defs>
      <g>
       <use xlink:href="#mfa2861fc47" x="46.965625" y="274.58741" style="stroke: #000000; stroke-width: 0.8"/>
      </g>
     </g>
     <g id="text_8">
      <!-- 0 -->
      <g transform="translate(33.603125 278.386629) scale(0.1 -0.1)">
       <use xlink:href="#DejaVuSans-30"/>
      </g>
     </g>
    </g>
    <g id="ytick_2">
     <g id="line2d_15">
      <path d="M 46.965625 220.002573 
L 404.085625 220.002573 
" clip-path="url(#pf8919c76d5)" style="fill: none; stroke: #b0b0b0; stroke-opacity: 0.5; stroke-width: 0.8; stroke-linecap: square"/>
     </g>
     <g id="line2d_16">
      <g>
       <use xlink:href="#mfa2861fc47" x="46.965625" y="220.002573" style="stroke: #000000; stroke-width: 0.8"/>
      </g>
     </g>
     <g id="text_9">
      <!-- 50 -->
      <g transform="translate(27.240625 223.801791) scale(0.1 -0.1)">
       <defs>
        <path id="DejaVuSans-35" d="M 691 4666 
L 3169 4666 
L 3169 4134 
L 1269 4134 
L 1269 2991 
Q 1406 3038 1543 3061 
Q 1681 3084 1819 3084 
Q 2600 3084 3056 2656 
Q 3513 2228 3513 1497 
Q 3513 744 3044 326 
Q 2575 -91 1722 -91 
Q 1428 -91 1123 -41 
Q 819 9 494 109 
L 494 744 
Q 775 591 1075 516 
Q 1375 441 1709 441 
Q 2250 441 2565 725 
Q 2881 1009 2881 1497 
Q 2881 1984 2565 2268 
Q 2250 2553 1709 2553 
Q 1456 2553 1204 2497 
Q 953 2441 691 2322 
L 691 4666 
z
" transform="scale(0.015625)"/>
       </defs>
       <use xlink:href="#DejaVuSans-35"/>
       <use xlink:href="#DejaVuSans-30" x="63.623047"/>
      </g>
     </g>
    </g>
    <g id="ytick_3">
     <g id="line2d_17">
      <path d="M 46.965625 165.417735 
L 404.085625 165.417735 
" clip-path="url(#pf8919c76d5)" style="fill: none; stroke: #b0b0b0; stroke-opacity: 0.5; stroke-width: 0.8; stroke-linecap: square"/>
     </g>
     <g id="line2d_18">
      <g>
       <use xlink:href="#mfa2861fc47" x="46.965625" y="165.417735" style="stroke: #000000; stroke-width: 0.8"/>
      </g>
     </g>
     <g id="text_10">
      <!-- 100 -->
      <g transform="translate(20.878125 169.216954) scale(0.1 -0.1)">
       <use xlink:href="#DejaVuSans-31"/>
       <use xlink:href="#DejaVuSans-30" x="63.623047"/>
       <use xlink:href="#DejaVuSans-30" x="127.246094"/>
      </g>
     </g>
    </g>
    <g id="ytick_4">
     <g id="line2d_19">
      <path d="M 46.965625 110.832898 
L 404.085625 110.832898 
" clip-path="url(#pf8919c76d5)" style="fill: none; stroke: #b0b0b0; stroke-opacity: 0.5; stroke-width: 0.8; stroke-linecap: square"/>
     </g>
     <g id="line2d_20">
      <g>
       <use xlink:href="#mfa2861fc47" x="46.965625" y="110.832898" style="stroke: #000000; stroke-width: 0.8"/>
      </g>
     </g>
     <g id="text_11">
      <!-- 150 -->
      <g transform="translate(20.878125 114.632116) scale(0.1 -0.1)">
       <use xlink:href="#DejaVuSans-31"/>
       <use xlink:href="#DejaVuSans-35" x="63.623047"/>
       <use xlink:href="#DejaVuSans-30" x="127.246094"/>
      </g>
     </g>
    </g>
    <g id="ytick_5">
     <g id="line2d_21">
      <path d="M 46.965625 56.24806 
L 404.085625 56.24806 
" clip-path="url(#pf8919c76d5)" style="fill: none; stroke: #b0b0b0; stroke-opacity: 0.5; stroke-width: 0.8; stroke-linecap: square"/>
     </g>
     <g id="line2d_22">
      <g>
       <use xlink:href="#mfa2861fc47" x="46.965625" y="56.24806" style="stroke: #000000; stroke-width: 0.8"/>
      </g>
     </g>
     <g id="text_12">
      <!-- 200 -->
      <g transform="translate(20.878125 60.047279) scale(0.1 -0.1)">
       <use xlink:href="#DejaVuSans-32"/>
       <use xlink:href="#DejaVuSans-30" x="63.623047"/>
       <use xlink:href="#DejaVuSans-30" x="127.246094"/>
      </g>
     </g>
    </g>
    <g id="text_13">
     <!-- Spannung in V -->
     <g transform="translate(14.798438 191.792094) rotate(-90) scale(0.1 -0.1)">
      <defs>
       <path id="DejaVuSans-53" d="M 3425 4513 
L 3425 3897 
Q 3066 4069 2747 4153 
Q 2428 4238 2131 4238 
Q 1616 4238 1336 4038 
Q 1056 3838 1056 3469 
Q 1056 3159 1242 3001 
Q 1428 2844 1947 2747 
L 2328 2669 
Q 3034 2534 3370 2195 
Q 3706 1856 3706 1288 
Q 3706 609 3251 259 
Q 2797 -91 1919 -91 
Q 1588 -91 1214 -16 
Q 841 59 441 206 
L 441 856 
Q 825 641 1194 531 
Q 1563 422 1919 422 
Q 2459 422 2753 634 
Q 3047 847 3047 1241 
Q 3047 1584 2836 1778 
Q 2625 1972 2144 2069 
L 1759 2144 
Q 1053 2284 737 2584 
Q 422 2884 422 3419 
Q 422 4038 858 4394 
Q 1294 4750 2059 4750 
Q 2388 4750 2728 4690 
Q 3069 4631 3425 4513 
z
" transform="scale(0.015625)"/>
       <path id="DejaVuSans-70" d="M 1159 525 
L 1159 -1331 
L 581 -1331 
L 581 3500 
L 1159 3500 
L 1159 2969 
Q 1341 3281 1617 3432 
Q 1894 3584 2278 3584 
Q 2916 3584 3314 3078 
Q 3713 2572 3713 1747 
Q 3713 922 3314 415 
Q 2916 -91 2278 -91 
Q 1894 -91 1617 61 
Q 1341 213 1159 525 
z
M 3116 1747 
Q 3116 2381 2855 2742 
Q 2594 3103 2138 3103 
Q 1681 3103 1420 2742 
Q 1159 2381 1159 1747 
Q 1159 1113 1420 752 
Q 1681 391 2138 391 
Q 2594 391 2855 752 
Q 3116 1113 3116 1747 
z
" transform="scale(0.015625)"/>
       <path id="DejaVuSans-61" d="M 2194 1759 
Q 1497 1759 1228 1600 
Q 959 1441 959 1056 
Q 959 750 1161 570 
Q 1363 391 1709 391 
Q 2188 391 2477 730 
Q 2766 1069 2766 1631 
L 2766 1759 
L 2194 1759 
z
M 3341 1997 
L 3341 0 
L 2766 0 
L 2766 531 
Q 2569 213 2275 61 
Q 1981 -91 1556 -91 
Q 1019 -91 701 211 
Q 384 513 384 1019 
Q 384 1609 779 1909 
Q 1175 2209 1959 2209 
L 2766 2209 
L 2766 2266 
Q 2766 2663 2505 2880 
Q 2244 3097 1772 3097 
Q 1472 3097 1187 3025 
Q 903 2953 641 2809 
L 641 3341 
Q 956 3463 1253 3523 
Q 1550 3584 1831 3584 
Q 2591 3584 2966 3190 
Q 3341 2797 3341 1997 
z
" transform="scale(0.015625)"/>
       <path id="DejaVuSans-75" d="M 544 1381 
L 544 3500 
L 1119 3500 
L 1119 1403 
Q 1119 906 1312 657 
Q 1506 409 1894 409 
Q 2359 409 2629 706 
Q 2900 1003 2900 1516 
L 2900 3500 
L 3475 3500 
L 3475 0 
L 2900 0 
L 2900 538 
Q 2691 219 2414 64 
Q 2138 -91 1772 -91 
Q 1169 -91 856 284 
Q 544 659 544 1381 
z
M 1991 3584 
L 1991 3584 
z
" transform="scale(0.015625)"/>
       <path id="DejaVuSans-67" d="M 2906 1791 
Q 2906 2416 2648 2759 
Q 2391 3103 1925 3103 
Q 1463 3103 1205 2759 
Q 947 2416 947 1791 
Q 947 1169 1205 825 
Q 1463 481 1925 481 
Q 2391 481 2648 825 
Q 2906 1169 2906 1791 
z
M 3481 434 
Q 3481 -459 3084 -895 
Q 2688 -1331 1869 -1331 
Q 1566 -1331 1297 -1286 
Q 1028 -1241 775 -1147 
L 775 -588 
Q 1028 -725 1275 -790 
Q 1522 -856 1778 -856 
Q 2344 -856 2625 -561 
Q 2906 -266 2906 331 
L 2906 616 
Q 2728 306 2450 153 
Q 2172 0 1784 0 
Q 1141 0 747 490 
Q 353 981 353 1791 
Q 353 2603 747 3093 
Q 1141 3584 1784 3584 
Q 2172 3584 2450 3431 
Q 2728 3278 2906 2969 
L 2906 3500 
L 3481 3500 
L 3481 434 
z
" transform="scale(0.015625)"/>
       <path id="DejaVuSans-56" d="M 1831 0 
L 50 4666 
L 709 4666 
L 2188 738 
L 3669 4666 
L 4325 4666 
L 2547 0 
L 1831 0 
z
" transform="scale(0.015625)"/>
      </defs>
      <use xlink:href="#DejaVuSans-53"/>
      <use xlink:href="#DejaVuSans-70" x="63.476562"/>
      <use xlink:href="#DejaVuSans-61" x="126.953125"/>
      <use xlink:href="#DejaVuSans-6e" x="188.232422"/>
      <use xlink:href="#DejaVuSans-6e" x="251.611328"/>
      <use xlink:href="#DejaVuSans-75" x="314.990234"/>
      <use xlink:href="#DejaVuSans-6e" x="378.369141"/>
      <use xlink:href="#DejaVuSans-67" x="441.748047"/>
      <use xlink:href="#DejaVuSans-20" x="505.224609"/>
      <use xlink:href="#DejaVuSans-69" x="537.011719"/>
      <use xlink:href="#DejaVuSans-6e" x="564.794922"/>
      <use xlink:href="#DejaVuSans-20" x="628.173828"/>
      <use xlink:href="#DejaVuSans-56" x="659.960938"/>
     </g>
    </g>
   </g>
   <g id="line2d_23">
    <path d="M 46.965625 274.58741 
L 22.324345 270.220623 
L 25.895545 274.58741 
L 29.466745 276.334125 
L 33.037945 274.58741 
L 36.609145 270.220623 
L 40.180345 274.58741 
L 43.751545 272.840695 
L 47.322745 273.714053 
L 50.893945 273.714053 
L 54.465145 271.967338 
L 58.036345 162.797663 
L 61.964665 110.634407 
L 65.535865 189.871742 
L 69.107065 193.365172 
L 72.678265 195.111887 
L 76.249465 192.491815 
L 79.820665 188.998385 
L 83.391865 162.797663 
L 86.963065 159.304233 
L 90.534265 150.570659 
L 94.105465 132.230154 
L 97.676665 115.636363 
L 101.604985 110.634407 
L 105.176185 110.396219 
L 108.747385 115.636363 
L 112.318585 113.889648 
L 115.889785 112.142934 
L 119.460985 85.068854 
L 123.032185 76.33528 
L 126.603385 57.994775 
L 130.174585 50.134558 
L 133.745785 53.627988 
L 137.316985 41.400984 
L 141.245305 59.026924 
L 144.816505 41.400984 
L 148.387705 43.147699 
L 151.958905 37.034197 
L 155.530105 41.400984 
L 159.101305 47.514486 
L 162.672505 45.767771 
L 166.243705 47.514486 
L 169.814905 62.361562 
L 173.386105 88.562284 
L 176.957305 79.82871 
L 180.885625 45.529583 
L 184.456825 86.815569 
L 188.028025 109.522861 
L 191.599225 104.282717 
L 195.170425 132.230154 
L 198.741625 131.356796 
L 202.312825 131.356796 
L 205.884025 127.863367 
L 209.455225 125.243295 
L 213.026425 126.990009 
L 216.597625 123.49658 
L 220.525945 109.046485 
L 224.097145 120.876508 
L 227.668345 120.876508 
L 231.239545 121.749865 
L 234.810745 120.876508 
L 238.381945 119.129793 
L 241.953145 119.129793 
L 245.524345 116.509721 
L 249.095545 113.889648 
L 252.666745 113.889648 
L 256.237945 114.763006 
L 260.166265 101.106872 
L 263.737465 106.902789 
L 267.308665 104.282717 
L 270.879865 162.797663 
L 274.451065 108.649504 
L 278.022265 76.33528 
L 281.593465 96.4225 
L 285.164665 108.649504 
L 288.735865 121.749865 
L 292.307065 122.623222 
L 295.878265 82.448782 
L 299.806585 109.046485 
L 303.377785 120.876508 
L 306.948985 112.142934 
L 310.520185 72.841851 
L 314.091385 71.095136 
L 317.662585 85.068854 
L 321.233785 104.282717 
L 324.804985 67.601706 
L 328.376185 63.234919 
L 331.947385 133.103511 
L 335.518585 111.269576 
L 339.446905 47.117505 
L 343.018105 128.736724 
L 346.589305 122.623222 
L 350.160505 120.00315 
L 353.731705 93.802428 
L 357.302905 113.016291 
L 360.874105 120.00315 
L 364.445305 91.182356 
L 368.016505 124.369937 
L 371.587705 145.330515 
L 375.158905 106.029432 
L 379.087225 73.318227 
" clip-path="url(#pf8919c76d5)" style="fill: none; stroke: #006400; stroke-width: 1.5; stroke-linecap: square"/>
   </g>
   <g id="line2d_24">
    <path d="M 46.965625 274.58741 
L 22.324345 270.220623 
L 25.895545 274.58741 
L 29.466745 273.714053 
L 33.037945 272.840695 
L 36.609145 272.840695 
L 40.180345 274.58741 
L 43.751545 272.840695 
L 47.322745 271.967338 
L 50.893945 271.967338 
L 54.465145 275.460768 
L 58.036345 271.093981 
L 61.964665 272.602507 
L 65.535865 271.967338 
L 69.107065 271.967338 
L 72.678265 271.093981 
L 76.249465 274.58741 
L 79.820665 271.093981 
L 83.391865 272.840695 
L 86.963065 129.610082 
L 90.534265 181.138168 
L 94.105465 208.212248 
L 97.676665 179.391454 
L 101.604985 170.975464 
L 105.176185 170.65788 
L 108.747385 170.65788 
L 112.318585 174.151309 
L 115.889785 171.531237 
L 119.460985 168.037807 
L 123.032185 140.09037 
L 126.603385 132.230154 
L 130.174585 116.509721 
L 133.745785 102.536002 
L 137.316985 93.802428 
L 141.245305 113.016291 
L 144.816505 95.549143 
L 148.387705 97.295858 
L 151.958905 71.968493 
L 155.530105 59.74149 
L 159.101305 47.514486 
L 162.672505 51.881273 
L 166.243705 47.514486 
L 169.814905 48.387843 
L 173.386105 44.021056 
L 176.957305 48.387843 
L 180.885625 34.414125 
L 184.456825 47.514486 
L 188.028025 47.514486 
L 191.599225 47.514486 
L 195.170425 54.501345 
L 198.741625 73.715208 
L 202.312825 64.108277 
L 205.884025 100.789287 
L 209.455225 90.308999 
L 213.026425 126.990009 
L 216.597625 127.863367 
L 220.525945 114.604214 
L 224.097145 125.243295 
L 227.668345 124.369937 
L 231.239545 121.749865 
L 234.810745 119.129793 
L 238.381945 117.383078 
L 241.953145 118.256435 
L 245.524345 119.129793 
L 249.095545 113.016291 
L 252.666745 113.889648 
L 256.237945 113.889648 
L 260.166265 117.780059 
L 263.737465 104.282717 
L 267.308665 104.282717 
L 270.879865 104.282717 
L 274.451065 97.295858 
L 278.022265 96.4225 
L 281.593465 95.549143 
L 285.164665 99.91593 
L 288.735865 89.435641 
L 292.307065 73.715208 
L 295.878265 96.4225 
L 299.806585 114.604214 
L 303.377785 150.570659 
L 306.948985 74.588565 
L 310.520185 100.789287 
L 314.091385 107.776147 
L 317.662585 109.522861 
L 321.233785 109.522861 
L 324.804985 110.396219 
L 328.376185 94.675786 
L 331.947385 123.49658 
L 335.518585 83.322139 
L 339.446905 114.604214 
L 343.018105 99.042573 
L 346.589305 104.282717 
L 350.160505 85.942212 
L 353.731705 133.103511 
L 357.302905 103.40936 
L 360.874105 120.00315 
L 364.445305 87.688926 
L 368.016505 123.49658 
L 371.587705 127.863367 
L 375.158905 123.49658 
L 379.087225 110.634407 
" clip-path="url(#pf8919c76d5)" style="fill: none; stroke: #00ff00; stroke-width: 1.5; stroke-linecap: square"/>
   </g>
   <g id="patch_3">
    <path d="M 46.965625 288.430125 
L 46.965625 22.318125 
" style="fill: none; stroke: #000000; stroke-width: 0.8; stroke-linejoin: miter; stroke-linecap: square"/>
   </g>
   <g id="patch_4">
    <path d="M 404.085625 288.430125 
L 404.085625 22.318125 
" style="fill: none; stroke: #000000; stroke-width: 0.8; stroke-linejoin: miter; stroke-linecap: square"/>
   </g>
   <g id="patch_5">
    <path d="M 46.965625 288.430125 
L 404.085625 288.430125 
" style="fill: none; stroke: #000000; stroke-width: 0.8; stroke-linejoin: miter; stroke-linecap: square"/>
   </g>
   <g id="patch_6">
    <path d="M 46.965625 22.318125 
L 404.085625 22.318125 
" style="fill: none; stroke: #000000; stroke-width: 0.8; stroke-linejoin: miter; stroke-linecap: square"/>
   </g>
   <g id="text_14">
    <!-- Anlaufkurven -->
    <g transform="translate(185.75875 16.318125) scale(0.12 -0.12)">
     <defs>
      <path id="DejaVuSans-41" d="M 2188 4044 
L 1331 1722 
L 3047 1722 
L 2188 4044 
z
M 1831 4666 
L 2547 4666 
L 4325 0 
L 3669 0 
L 3244 1197 
L 1141 1197 
L 716 0 
L 50 0 
L 1831 4666 
z
" transform="scale(0.015625)"/>
      <path id="DejaVuSans-6c" d="M 603 4863 
L 1178 4863 
L 1178 0 
L 603 0 
L 603 4863 
z
" transform="scale(0.015625)"/>
      <path id="DejaVuSans-66" d="M 2375 4863 
L 2375 4384 
L 1825 4384 
Q 1516 4384 1395 4259 
Q 1275 4134 1275 3809 
L 1275 3500 
L 2222 3500 
L 2222 3053 
L 1275 3053 
L 1275 0 
L 697 0 
L 697 3053 
L 147 3053 
L 147 3500 
L 697 3500 
L 697 3744 
Q 697 4328 969 4595 
Q 1241 4863 1831 4863 
L 2375 4863 
z
" transform="scale(0.015625)"/>
      <path id="DejaVuSans-6b" d="M 581 4863 
L 1159 4863 
L 1159 1991 
L 2875 3500 
L 3609 3500 
L 1753 1863 
L 3688 0 
L 2938 0 
L 1159 1709 
L 1159 0 
L 581 0 
L 581 4863 
z
" transform="scale(0.015625)"/>
      <path id="DejaVuSans-72" d="M 2631 2963 
Q 2534 3019 2420 3045 
Q 2306 3072 2169 3072 
Q 1681 3072 1420 2755 
Q 1159 2438 1159 1844 
L 1159 0 
L 581 0 
L 581 3500 
L 1159 3500 
L 1159 2956 
Q 1341 3275 1631 3429 
Q 1922 3584 2338 3584 
Q 2397 3584 2469 3576 
Q 2541 3569 2628 3553 
L 2631 2963 
z
" transform="scale(0.015625)"/>
      <path id="DejaVuSans-76" d="M 191 3500 
L 800 3500 
L 1894 563 
L 2988 3500 
L 3597 3500 
L 2284 0 
L 1503 0 
L 191 3500 
z
" transform="scale(0.015625)"/>
     </defs>
     <use xlink:href="#DejaVuSans-41"/>
     <use xlink:href="#DejaVuSans-6e" x="68.408203"/>
     <use xlink:href="#DejaVuSans-6c" x="131.787109"/>
     <use xlink:href="#DejaVuSans-61" x="159.570312"/>
     <use xlink:href="#DejaVuSans-75" x="220.849609"/>
     <use xlink:href="#DejaVuSans-66" x="284.228516"/>
     <use xlink:href="#DejaVuSans-6b" x="319.433594"/>
     <use xlink:href="#DejaVuSans-75" x="374.21875"/>
     <use xlink:href="#DejaVuSans-72" x="437.597656"/>
     <use xlink:href="#DejaVuSans-76" x="478.710938"/>
     <use xlink:href="#DejaVuSans-65" x="537.890625"/>
     <use xlink:href="#DejaVuSans-6e" x="599.414062"/>
    </g>
   </g>
  </g>
  <g id="axes_2">
   <g id="matplotlib.axis_3">
    <g id="ytick_6">
     <g id="line2d_25">
      <defs>
       <path id="ma0f44c78b6" d="M 0 0 
L 3.5 0 
" style="stroke: #000000; stroke-width: 0.8"/>
      </defs>
      <g>
       <use xlink:href="#ma0f44c78b6" x="404.085625" y="275.693277" style="stroke: #000000; stroke-width: 0.8"/>
      </g>
     </g>
     <g id="text_15">
      <!-- 0 -->
      <g transform="translate(411.085625 279.492496) scale(0.1 -0.1)">
       <use xlink:href="#DejaVuSans-30"/>
      </g>
     </g>
    </g>
    <g id="ytick_7">
     <g id="line2d_26">
      <g>
       <use xlink:href="#ma0f44c78b6" x="404.085625" y="243.650893" style="stroke: #000000; stroke-width: 0.8"/>
      </g>
     </g>
     <g id="text_16">
      <!-- 200 -->
      <g transform="translate(411.085625 247.450112) scale(0.1 -0.1)">
       <use xlink:href="#DejaVuSans-32"/>
       <use xlink:href="#DejaVuSans-30" x="63.623047"/>
       <use xlink:href="#DejaVuSans-30" x="127.246094"/>
      </g>
     </g>
    </g>
    <g id="ytick_8">
     <g id="line2d_27">
      <g>
       <use xlink:href="#ma0f44c78b6" x="404.085625" y="211.608509" style="stroke: #000000; stroke-width: 0.8"/>
      </g>
     </g>
     <g id="text_17">
      <!-- 400 -->
      <g transform="translate(411.085625 215.407728) scale(0.1 -0.1)">
       <use xlink:href="#DejaVuSans-34"/>
       <use xlink:href="#DejaVuSans-30" x="63.623047"/>
       <use xlink:href="#DejaVuSans-30" x="127.246094"/>
      </g>
     </g>
    </g>
    <g id="ytick_9">
     <g id="line2d_28">
      <g>
       <use xlink:href="#ma0f44c78b6" x="404.085625" y="179.566125" style="stroke: #000000; stroke-width: 0.8"/>
      </g>
     </g>
     <g id="text_18">
      <!-- 600 -->
      <g transform="translate(411.085625 183.365344) scale(0.1 -0.1)">
       <use xlink:href="#DejaVuSans-36"/>
       <use xlink:href="#DejaVuSans-30" x="63.623047"/>
       <use xlink:href="#DejaVuSans-30" x="127.246094"/>
      </g>
     </g>
    </g>
    <g id="ytick_10">
     <g id="line2d_29">
      <g>
       <use xlink:href="#ma0f44c78b6" x="404.085625" y="147.523741" style="stroke: #000000; stroke-width: 0.8"/>
      </g>
     </g>
     <g id="text_19">
      <!-- 800 -->
      <g transform="translate(411.085625 151.32296) scale(0.1 -0.1)">
       <use xlink:href="#DejaVuSans-38"/>
       <use xlink:href="#DejaVuSans-30" x="63.623047"/>
       <use xlink:href="#DejaVuSans-30" x="127.246094"/>
      </g>
     </g>
    </g>
    <g id="ytick_11">
     <g id="line2d_30">
      <g>
       <use xlink:href="#ma0f44c78b6" x="404.085625" y="115.481357" style="stroke: #000000; stroke-width: 0.8"/>
      </g>
     </g>
     <g id="text_20">
      <!-- 1000 -->
      <g transform="translate(411.085625 119.280576) scale(0.1 -0.1)">
       <use xlink:href="#DejaVuSans-31"/>
       <use xlink:href="#DejaVuSans-30" x="63.623047"/>
       <use xlink:href="#DejaVuSans-30" x="127.246094"/>
       <use xlink:href="#DejaVuSans-30" x="190.869141"/>
      </g>
     </g>
    </g>
    <g id="ytick_12">
     <g id="line2d_31">
      <g>
       <use xlink:href="#ma0f44c78b6" x="404.085625" y="83.438973" style="stroke: #000000; stroke-width: 0.8"/>
      </g>
     </g>
     <g id="text_21">
      <!-- 1200 -->
      <g transform="translate(411.085625 87.238191) scale(0.1 -0.1)">
       <use xlink:href="#DejaVuSans-31"/>
       <use xlink:href="#DejaVuSans-32" x="63.623047"/>
       <use xlink:href="#DejaVuSans-30" x="127.246094"/>
       <use xlink:href="#DejaVuSans-30" x="190.869141"/>
      </g>
     </g>
    </g>
    <g id="ytick_13">
     <g id="line2d_32">
      <g>
       <use xlink:href="#ma0f44c78b6" x="404.085625" y="51.396589" style="stroke: #000000; stroke-width: 0.8"/>
      </g>
     </g>
     <g id="text_22">
      <!-- 1400 -->
      <g transform="translate(411.085625 55.195807) scale(0.1 -0.1)">
       <use xlink:href="#DejaVuSans-31"/>
       <use xlink:href="#DejaVuSans-34" x="63.623047"/>
       <use xlink:href="#DejaVuSans-30" x="127.246094"/>
       <use xlink:href="#DejaVuSans-30" x="190.869141"/>
      </g>
     </g>
    </g>
    <g id="text_23">
     <!-- Drehzahl in rpm -->
     <g transform="translate(448.134063 195.494437) rotate(-90) scale(0.1 -0.1)">
      <defs>
       <path id="DejaVuSans-44" d="M 1259 4147 
L 1259 519 
L 2022 519 
Q 2988 519 3436 956 
Q 3884 1394 3884 2338 
Q 3884 3275 3436 3711 
Q 2988 4147 2022 4147 
L 1259 4147 
z
M 628 4666 
L 1925 4666 
Q 3281 4666 3915 4102 
Q 4550 3538 4550 2338 
Q 4550 1131 3912 565 
Q 3275 0 1925 0 
L 628 0 
L 628 4666 
z
" transform="scale(0.015625)"/>
       <path id="DejaVuSans-68" d="M 3513 2113 
L 3513 0 
L 2938 0 
L 2938 2094 
Q 2938 2591 2744 2837 
Q 2550 3084 2163 3084 
Q 1697 3084 1428 2787 
Q 1159 2491 1159 1978 
L 1159 0 
L 581 0 
L 581 4863 
L 1159 4863 
L 1159 2956 
Q 1366 3272 1645 3428 
Q 1925 3584 2291 3584 
Q 2894 3584 3203 3211 
Q 3513 2838 3513 2113 
z
" transform="scale(0.015625)"/>
       <path id="DejaVuSans-7a" d="M 353 3500 
L 3084 3500 
L 3084 2975 
L 922 459 
L 3084 459 
L 3084 0 
L 275 0 
L 275 525 
L 2438 3041 
L 353 3041 
L 353 3500 
z
" transform="scale(0.015625)"/>
       <path id="DejaVuSans-6d" d="M 3328 2828 
Q 3544 3216 3844 3400 
Q 4144 3584 4550 3584 
Q 5097 3584 5394 3201 
Q 5691 2819 5691 2113 
L 5691 0 
L 5113 0 
L 5113 2094 
Q 5113 2597 4934 2840 
Q 4756 3084 4391 3084 
Q 3944 3084 3684 2787 
Q 3425 2491 3425 1978 
L 3425 0 
L 2847 0 
L 2847 2094 
Q 2847 2600 2669 2842 
Q 2491 3084 2119 3084 
Q 1678 3084 1418 2786 
Q 1159 2488 1159 1978 
L 1159 0 
L 581 0 
L 581 3500 
L 1159 3500 
L 1159 2956 
Q 1356 3278 1631 3431 
Q 1906 3584 2284 3584 
Q 2666 3584 2933 3390 
Q 3200 3197 3328 2828 
z
" transform="scale(0.015625)"/>
      </defs>
      <use xlink:href="#DejaVuSans-44"/>
      <use xlink:href="#DejaVuSans-72" x="77.001953"/>
      <use xlink:href="#DejaVuSans-65" x="115.865234"/>
      <use xlink:href="#DejaVuSans-68" x="177.388672"/>
      <use xlink:href="#DejaVuSans-7a" x="240.767578"/>
      <use xlink:href="#DejaVuSans-61" x="293.257812"/>
      <use xlink:href="#DejaVuSans-68" x="354.537109"/>
      <use xlink:href="#DejaVuSans-6c" x="417.916016"/>
      <use xlink:href="#DejaVuSans-20" x="445.699219"/>
      <use xlink:href="#DejaVuSans-69" x="477.486328"/>
      <use xlink:href="#DejaVuSans-6e" x="505.269531"/>
      <use xlink:href="#DejaVuSans-20" x="568.648438"/>
      <use xlink:href="#DejaVuSans-72" x="600.435547"/>
      <use xlink:href="#DejaVuSans-70" x="641.548828"/>
      <use xlink:href="#DejaVuSans-6d" x="705.025391"/>
     </g>
    </g>
   </g>
   <g id="line2d_33">
    <path d="M 46.965625 275.693277 
L 22.324345 275.693277 
L 25.895545 276.013701 
L 29.466745 275.372853 
L 33.037945 275.693277 
L 36.609145 275.693277 
L 40.180345 275.693277 
L 43.751545 275.693277 
L 47.322745 275.693277 
L 50.893945 275.693277 
L 54.465145 275.693277 
L 58.036345 275.693277 
L 61.964665 269.2848 
L 65.535865 265.760138 
L 69.107065 257.108695 
L 72.678265 250.379794 
L 76.249465 241.407926 
L 79.820665 234.038178 
L 83.391865 227.629701 
L 86.963065 218.33741 
L 90.534265 211.928933 
L 94.105465 203.918337 
L 97.676665 195.587317 
L 101.604985 188.596251 
L 105.176185 180.206973 
L 108.747385 174.11892 
L 112.318585 166.749171 
L 115.889785 159.699847 
L 119.460985 151.368827 
L 123.032185 144.319502 
L 126.603385 136.308906 
L 130.174585 129.580006 
L 133.745785 122.530681 
L 137.316985 115.801781 
L 141.245305 108.198997 
L 144.816505 100.74186 
L 148.387705 94.974231 
L 151.958905 88.24533 
L 155.530105 82.477701 
L 159.101305 76.710072 
L 162.672505 72.544562 
L 166.243705 68.058628 
L 169.814905 62.290999 
L 173.386105 57.805065 
L 176.957305 54.921251 
L 180.885625 52.270472 
L 184.456825 48.833198 
L 188.028025 46.269807 
L 191.599225 44.667688 
L 195.170425 44.667688 
L 198.741625 42.424721 
L 202.312825 42.104297 
L 205.884025 41.46345 
L 209.455225 40.822602 
L 213.026425 41.143026 
L 216.597625 41.143026 
L 220.525945 39.162224 
L 224.097145 39.220483 
L 227.668345 38.259211 
L 231.239545 37.29794 
L 234.810745 37.618363 
L 238.381945 37.29794 
L 241.953145 38.259211 
L 245.524345 36.657092 
L 249.095545 37.938787 
L 252.666745 36.977516 
L 256.237945 35.375397 
L 260.166265 36.24928 
L 263.737465 36.657092 
L 267.308665 35.69582 
L 270.879865 34.734549 
L 274.451065 36.016244 
L 278.022265 35.69582 
L 281.593465 35.375397 
L 285.164665 35.375397 
L 288.735865 36.016244 
L 292.307065 36.016244 
L 295.878265 36.977516 
L 299.806585 35.666691 
L 303.377785 34.734549 
L 306.948985 35.375397 
L 310.520185 35.375397 
L 314.091385 35.375397 
L 317.662585 35.375397 
L 321.233785 36.657092 
L 324.804985 36.977516 
L 328.376185 36.977516 
L 331.947385 36.016244 
L 335.518585 36.016244 
L 339.446905 35.957985 
L 343.018105 36.016244 
L 346.589305 36.016244 
L 350.160505 36.016244 
L 353.731705 36.016244 
L 357.302905 35.375397 
L 360.874105 35.375397 
L 364.445305 36.336668 
L 368.016505 36.336668 
L 371.587705 34.414125 
L 375.158905 36.016244 
L 379.087225 35.375397 
" clip-path="url(#pf8919c76d5)" style="fill: none; stroke: #ff8c00; stroke-width: 1.5; stroke-linecap: square"/>
   </g>
   <g id="line2d_34">
    <path d="M 46.965625 275.693277 
L 22.324345 275.693277 
L 25.895545 276.013701 
L 29.466745 275.693277 
L 33.037945 275.693277 
L 36.609145 275.693277 
L 40.180345 275.693277 
L 43.751545 275.693277 
L 47.322745 275.693277 
L 50.893945 275.693277 
L 54.465145 275.693277 
L 58.036345 275.693277 
L 61.964665 275.693277 
L 65.535865 275.693277 
L 69.107065 276.334125 
L 72.678265 276.013701 
L 76.249465 275.693277 
L 79.820665 275.693277 
L 83.391865 275.693277 
L 86.963065 275.693277 
L 90.534265 269.925648 
L 94.105465 265.760138 
L 97.676665 257.749542 
L 101.604985 248.894192 
L 105.176185 241.087502 
L 108.747385 233.076906 
L 112.318585 225.06631 
L 115.889785 218.016986 
L 119.460985 209.685966 
L 123.032185 201.354946 
L 126.603385 194.305622 
L 130.174585 187.256297 
L 133.745785 179.566125 
L 137.316985 171.555529 
L 141.245305 164.710111 
L 144.816505 156.175185 
L 148.387705 149.12586 
L 151.958905 141.435688 
L 155.530105 133.425092 
L 159.101305 127.016615 
L 162.672505 119.646867 
L 166.243705 112.597542 
L 169.814905 105.548218 
L 173.386105 99.780589 
L 176.957305 92.41084 
L 180.885625 85.478033 
L 184.456825 79.91431 
L 188.028025 75.107953 
L 191.599225 70.301595 
L 195.170425 66.456509 
L 198.741625 60.68888 
L 202.312825 57.164218 
L 205.884025 53.639555 
L 209.455225 51.076165 
L 213.026425 48.512774 
L 216.597625 45.949383 
L 220.525945 44.114229 
L 224.097145 43.706416 
L 227.668345 42.424721 
L 231.239545 42.104297 
L 234.810745 40.502178 
L 238.381945 40.181754 
L 241.953145 39.540906 
L 245.524345 39.540906 
L 249.095545 38.579635 
L 252.666745 38.900059 
L 256.237945 37.618363 
L 260.166265 38.579635 
L 263.737465 37.618363 
L 267.308665 38.259211 
L 270.879865 37.29794 
L 274.451065 36.977516 
L 278.022265 37.29794 
L 281.593465 37.618363 
L 285.164665 36.977516 
L 288.735865 36.336668 
L 292.307065 36.977516 
L 295.878265 35.69582 
L 299.806585 37.123163 
L 303.377785 34.734549 
L 306.948985 35.054973 
L 310.520185 36.336668 
L 314.091385 35.375397 
L 317.662585 35.054973 
L 321.233785 36.016244 
L 324.804985 35.375397 
L 328.376185 36.016244 
L 331.947385 35.375397 
L 335.518585 35.69582 
L 339.446905 35.084102 
L 343.018105 35.69582 
L 346.589305 35.69582 
L 350.160505 35.69582 
L 353.731705 36.336668 
L 357.302905 35.375397 
L 360.874105 36.016244 
L 364.445305 36.336668 
L 368.016505 37.618363 
L 371.587705 36.657092 
L 375.158905 35.375397 
L 379.087225 36.24928 
" clip-path="url(#pf8919c76d5)" style="fill: none; stroke: #ffd700; stroke-width: 1.5; stroke-linecap: square"/>
   </g>
   <g id="patch_7">
    <path d="M 46.965625 288.430125 
L 46.965625 22.318125 
" style="fill: none; stroke: #000000; stroke-width: 0.8; stroke-linejoin: miter; stroke-linecap: square"/>
   </g>
   <g id="patch_8">
    <path d="M 404.085625 288.430125 
L 404.085625 22.318125 
" style="fill: none; stroke: #000000; stroke-width: 0.8; stroke-linejoin: miter; stroke-linecap: square"/>
   </g>
   <g id="patch_9">
    <path d="M 46.965625 288.430125 
L 404.085625 288.430125 
" style="fill: none; stroke: #000000; stroke-width: 0.8; stroke-linejoin: miter; stroke-linecap: square"/>
   </g>
   <g id="patch_10">
    <path d="M 46.965625 22.318125 
L 404.085625 22.318125 
" style="fill: none; stroke: #000000; stroke-width: 0.8; stroke-linejoin: miter; stroke-linecap: square"/>
   </g>
  </g>
  <g id="legend_1">
   <g id="patch_11">
    <path d="M 304.709625 281.022625 
L 396.773688 281.022625 
Q 398.773688 281.022625 398.773688 279.022625 
L 398.773688 221.310125 
Q 398.773688 219.310125 396.773688 219.310125 
L 304.709625 219.310125 
Q 302.709625 219.310125 302.709625 221.310125 
L 302.709625 279.022625 
Q 302.709625 281.022625 304.709625 281.022625 
z
" style="fill: #ffffff; opacity: 0.8; stroke: #cccccc; stroke-linejoin: miter"/>
   </g>
   <g id="line2d_35">
    <path d="M 306.709625 227.408562 
L 316.709625 227.408562 
L 326.709625 227.408562 
" style="fill: none; stroke: #006400; stroke-width: 1.5; stroke-linecap: square"/>
   </g>
   <g id="text_24">
    <!-- Spannung 1 -->
    <g transform="translate(334.709625 230.908562) scale(0.1 -0.1)">
     <use xlink:href="#DejaVuSans-53"/>
     <use xlink:href="#DejaVuSans-70" x="63.476562"/>
     <use xlink:href="#DejaVuSans-61" x="126.953125"/>
     <use xlink:href="#DejaVuSans-6e" x="188.232422"/>
     <use xlink:href="#DejaVuSans-6e" x="251.611328"/>
     <use xlink:href="#DejaVuSans-75" x="314.990234"/>
     <use xlink:href="#DejaVuSans-6e" x="378.369141"/>
     <use xlink:href="#DejaVuSans-67" x="441.748047"/>
     <use xlink:href="#DejaVuSans-20" x="505.224609"/>
     <use xlink:href="#DejaVuSans-31" x="537.011719"/>
    </g>
   </g>
   <g id="line2d_36">
    <path d="M 306.709625 242.086687 
L 316.709625 242.086687 
L 326.709625 242.086687 
" style="fill: none; stroke: #00ff00; stroke-width: 1.5; stroke-linecap: square"/>
   </g>
   <g id="text_25">
    <!-- Spannung 2 -->
    <g transform="translate(334.709625 245.586687) scale(0.1 -0.1)">
     <use xlink:href="#DejaVuSans-53"/>
     <use xlink:href="#DejaVuSans-70" x="63.476562"/>
     <use xlink:href="#DejaVuSans-61" x="126.953125"/>
     <use xlink:href="#DejaVuSans-6e" x="188.232422"/>
     <use xlink:href="#DejaVuSans-6e" x="251.611328"/>
     <use xlink:href="#DejaVuSans-75" x="314.990234"/>
     <use xlink:href="#DejaVuSans-6e" x="378.369141"/>
     <use xlink:href="#DejaVuSans-67" x="441.748047"/>
     <use xlink:href="#DejaVuSans-20" x="505.224609"/>
     <use xlink:href="#DejaVuSans-32" x="537.011719"/>
    </g>
   </g>
   <g id="line2d_37">
    <path d="M 306.709625 256.764812 
L 316.709625 256.764812 
L 326.709625 256.764812 
" style="fill: none; stroke: #ff8c00; stroke-width: 1.5; stroke-linecap: square"/>
   </g>
   <g id="text_26">
    <!-- Drehzahl 1 -->
    <g transform="translate(334.709625 260.264812) scale(0.1 -0.1)">
     <use xlink:href="#DejaVuSans-44"/>
     <use xlink:href="#DejaVuSans-72" x="77.001953"/>
     <use xlink:href="#DejaVuSans-65" x="115.865234"/>
     <use xlink:href="#DejaVuSans-68" x="177.388672"/>
     <use xlink:href="#DejaVuSans-7a" x="240.767578"/>
     <use xlink:href="#DejaVuSans-61" x="293.257812"/>
     <use xlink:href="#DejaVuSans-68" x="354.537109"/>
     <use xlink:href="#DejaVuSans-6c" x="417.916016"/>
     <use xlink:href="#DejaVuSans-20" x="445.699219"/>
     <use xlink:href="#DejaVuSans-31" x="477.486328"/>
    </g>
   </g>
   <g id="line2d_38">
    <path d="M 306.709625 271.442937 
L 316.709625 271.442937 
L 326.709625 271.442937 
" style="fill: none; stroke: #ffd700; stroke-width: 1.5; stroke-linecap: square"/>
   </g>
   <g id="text_27">
    <!-- Drehzahl 2 -->
    <g transform="translate(334.709625 274.942937) scale(0.1 -0.1)">
     <use xlink:href="#DejaVuSans-44"/>
     <use xlink:href="#DejaVuSans-72" x="77.001953"/>
     <use xlink:href="#DejaVuSans-65" x="115.865234"/>
     <use xlink:href="#DejaVuSans-68" x="177.388672"/>
     <use xlink:href="#DejaVuSans-7a" x="240.767578"/>
     <use xlink:href="#DejaVuSans-61" x="293.257812"/>
     <use xlink:href="#DejaVuSans-68" x="354.537109"/>
     <use xlink:href="#DejaVuSans-6c" x="417.916016"/>
     <use xlink:href="#DejaVuSans-20" x="445.699219"/>
     <use xlink:href="#DejaVuSans-32" x="477.486328"/>
    </g>
   </g>
  </g>
 </g>
 <defs>
  <clipPath id="pf8919c76d5">
   <rect x="46.965625" y="22.318125" width="357.12" height="266.112"/>
  </clipPath>
 </defs>
</svg>
