<?xml version="1.0" encoding="utf-8" standalone="no"?>
<!DOCTYPE svg PUBLIC "-//W3C//DTD SVG 1.1//EN"
  "http://www.w3.org/Graphics/SVG/1.1/DTD/svg11.dtd">
<svg xmlns:xlink="http://www.w3.org/1999/xlink" width="551.539054pt" height="325.986375pt" viewBox="0 0 551.539054 325.986375" xmlns="http://www.w3.org/2000/svg" version="1.1">
 <metadata>
  <rdf:RDF xmlns:dc="http://purl.org/dc/elements/1.1/" xmlns:cc="http://creativecommons.org/ns#" xmlns:rdf="http://www.w3.org/1999/02/22-rdf-syntax-ns#">
   <cc:Work>
    <dc:type rdf:resource="http://purl.org/dc/dcmitype/StillImage"/>
    <dc:date>2024-11-26T13:43:38.774326</dc:date>
    <dc:format>image/svg+xml</dc:format>
    <dc:creator>
     <cc:Agent>
      <dc:title>Matplotlib v3.6.2, https://matplotlib.org/</dc:title>
     </cc:Agent>
    </dc:creator>
   </cc:Work>
  </rdf:RDF>
 </metadata>
 <defs>
  <style type="text/css">*{stroke-linejoin: round; stroke-linecap: butt}</style>
 </defs>
 <g id="figure_1">
  <g id="patch_1">
   <path d="M 0 325.986375 
L 551.539054 325.986375 
L 551.539054 0 
L 0 0 
z
" style="fill: #ffffff"/>
  </g>
  <g id="axes_1">
   <g id="patch_2">
    <path d="M 83.951729 288.430125 
L 498.210929 288.430125 
L 498.210929 22.318125 
L 83.951729 22.318125 
z
" style="fill: #ffffff"/>
   </g>
   <g id="matplotlib.axis_1">
    <g id="xtick_1">
     <g id="line2d_1">
      <path d="M 83.951729 288.430125 
L 83.951729 22.318125 
" clip-path="url(#p4fa98ab749)" style="fill: none; stroke: #b0b0b0; stroke-opacity: 0.5; stroke-width: 0.8; stroke-linecap: square"/>
     </g>
     <g id="line2d_2">
      <defs>
       <path id="m29725f5d42" d="M 0 0 
L 0 3.5 
" style="stroke: #000000; stroke-width: 0.8"/>
      </defs>
      <g>
       <use xlink:href="#m29725f5d42" x="83.951729" y="288.430125" style="stroke: #000000; stroke-width: 0.8"/>
      </g>
     </g>
     <g id="text_1">
      <!-- 0.0 -->
      <g transform="translate(76.000167 303.028562) scale(0.1 -0.1)">
       <defs>
        <path id="DejaVuSans-30" d="M 2034 4250 
Q 1547 4250 1301 3770 
Q 1056 3291 1056 2328 
Q 1056 1369 1301 889 
Q 1547 409 2034 409 
Q 2525 409 2770 889 
Q 3016 1369 3016 2328 
Q 3016 3291 2770 3770 
Q 2525 4250 2034 4250 
z
M 2034 4750 
Q 2819 4750 3233 4129 
Q 3647 3509 3647 2328 
Q 3647 1150 3233 529 
Q 2819 -91 2034 -91 
Q 1250 -91 836 529 
Q 422 1150 422 2328 
Q 422 3509 836 4129 
Q 1250 4750 2034 4750 
z
" transform="scale(0.015625)"/>
        <path id="DejaVuSans-2e" d="M 684 794 
L 1344 794 
L 1344 0 
L 684 0 
L 684 794 
z
" transform="scale(0.015625)"/>
       </defs>
       <use xlink:href="#DejaVuSans-30"/>
       <use xlink:href="#DejaVuSans-2e" x="63.623047"/>
       <use xlink:href="#DejaVuSans-30" x="95.410156"/>
      </g>
     </g>
    </g>
    <g id="xtick_2">
     <g id="line2d_3">
      <path d="M 166.803569 288.430125 
L 166.803569 22.318125 
" clip-path="url(#p4fa98ab749)" style="fill: none; stroke: #b0b0b0; stroke-opacity: 0.5; stroke-width: 0.8; stroke-linecap: square"/>
     </g>
     <g id="line2d_4">
      <g>
       <use xlink:href="#m29725f5d42" x="166.803569" y="288.430125" style="stroke: #000000; stroke-width: 0.8"/>
      </g>
     </g>
     <g id="text_2">
      <!-- 0.2 -->
      <g transform="translate(158.852007 303.028562) scale(0.1 -0.1)">
       <defs>
        <path id="DejaVuSans-32" d="M 1228 531 
L 3431 531 
L 3431 0 
L 469 0 
L 469 531 
Q 828 903 1448 1529 
Q 2069 2156 2228 2338 
Q 2531 2678 2651 2914 
Q 2772 3150 2772 3378 
Q 2772 3750 2511 3984 
Q 2250 4219 1831 4219 
Q 1534 4219 1204 4116 
Q 875 4013 500 3803 
L 500 4441 
Q 881 4594 1212 4672 
Q 1544 4750 1819 4750 
Q 2544 4750 2975 4387 
Q 3406 4025 3406 3419 
Q 3406 3131 3298 2873 
Q 3191 2616 2906 2266 
Q 2828 2175 2409 1742 
Q 1991 1309 1228 531 
z
" transform="scale(0.015625)"/>
       </defs>
       <use xlink:href="#DejaVuSans-30"/>
       <use xlink:href="#DejaVuSans-2e" x="63.623047"/>
       <use xlink:href="#DejaVuSans-32" x="95.410156"/>
      </g>
     </g>
    </g>
    <g id="xtick_3">
     <g id="line2d_5">
      <path d="M 249.655409 288.430125 
L 249.655409 22.318125 
" clip-path="url(#p4fa98ab749)" style="fill: none; stroke: #b0b0b0; stroke-opacity: 0.5; stroke-width: 0.8; stroke-linecap: square"/>
     </g>
     <g id="line2d_6">
      <g>
       <use xlink:href="#m29725f5d42" x="249.655409" y="288.430125" style="stroke: #000000; stroke-width: 0.8"/>
      </g>
     </g>
     <g id="text_3">
      <!-- 0.4 -->
      <g transform="translate(241.703847 303.028562) scale(0.1 -0.1)">
       <defs>
        <path id="DejaVuSans-34" d="M 2419 4116 
L 825 1625 
L 2419 1625 
L 2419 4116 
z
M 2253 4666 
L 3047 4666 
L 3047 1625 
L 3713 1625 
L 3713 1100 
L 3047 1100 
L 3047 0 
L 2419 0 
L 2419 1100 
L 313 1100 
L 313 1709 
L 2253 4666 
z
" transform="scale(0.015625)"/>
       </defs>
       <use xlink:href="#DejaVuSans-30"/>
       <use xlink:href="#DejaVuSans-2e" x="63.623047"/>
       <use xlink:href="#DejaVuSans-34" x="95.410156"/>
      </g>
     </g>
    </g>
    <g id="xtick_4">
     <g id="line2d_7">
      <path d="M 332.507249 288.430125 
L 332.507249 22.318125 
" clip-path="url(#p4fa98ab749)" style="fill: none; stroke: #b0b0b0; stroke-opacity: 0.5; stroke-width: 0.8; stroke-linecap: square"/>
     </g>
     <g id="line2d_8">
      <g>
       <use xlink:href="#m29725f5d42" x="332.507249" y="288.430125" style="stroke: #000000; stroke-width: 0.8"/>
      </g>
     </g>
     <g id="text_4">
      <!-- 0.6 -->
      <g transform="translate(324.555687 303.028562) scale(0.1 -0.1)">
       <defs>
        <path id="DejaVuSans-36" d="M 2113 2584 
Q 1688 2584 1439 2293 
Q 1191 2003 1191 1497 
Q 1191 994 1439 701 
Q 1688 409 2113 409 
Q 2538 409 2786 701 
Q 3034 994 3034 1497 
Q 3034 2003 2786 2293 
Q 2538 2584 2113 2584 
z
M 3366 4563 
L 3366 3988 
Q 3128 4100 2886 4159 
Q 2644 4219 2406 4219 
Q 1781 4219 1451 3797 
Q 1122 3375 1075 2522 
Q 1259 2794 1537 2939 
Q 1816 3084 2150 3084 
Q 2853 3084 3261 2657 
Q 3669 2231 3669 1497 
Q 3669 778 3244 343 
Q 2819 -91 2113 -91 
Q 1303 -91 875 529 
Q 447 1150 447 2328 
Q 447 3434 972 4092 
Q 1497 4750 2381 4750 
Q 2619 4750 2861 4703 
Q 3103 4656 3366 4563 
z
" transform="scale(0.015625)"/>
       </defs>
       <use xlink:href="#DejaVuSans-30"/>
       <use xlink:href="#DejaVuSans-2e" x="63.623047"/>
       <use xlink:href="#DejaVuSans-36" x="95.410156"/>
      </g>
     </g>
    </g>
    <g id="xtick_5">
     <g id="line2d_9">
      <path d="M 415.359089 288.430125 
L 415.359089 22.318125 
" clip-path="url(#p4fa98ab749)" style="fill: none; stroke: #b0b0b0; stroke-opacity: 0.5; stroke-width: 0.8; stroke-linecap: square"/>
     </g>
     <g id="line2d_10">
      <g>
       <use xlink:href="#m29725f5d42" x="415.359089" y="288.430125" style="stroke: #000000; stroke-width: 0.8"/>
      </g>
     </g>
     <g id="text_5">
      <!-- 0.8 -->
      <g transform="translate(407.407527 303.028562) scale(0.1 -0.1)">
       <defs>
        <path id="DejaVuSans-38" d="M 2034 2216 
Q 1584 2216 1326 1975 
Q 1069 1734 1069 1313 
Q 1069 891 1326 650 
Q 1584 409 2034 409 
Q 2484 409 2743 651 
Q 3003 894 3003 1313 
Q 3003 1734 2745 1975 
Q 2488 2216 2034 2216 
z
M 1403 2484 
Q 997 2584 770 2862 
Q 544 3141 544 3541 
Q 544 4100 942 4425 
Q 1341 4750 2034 4750 
Q 2731 4750 3128 4425 
Q 3525 4100 3525 3541 
Q 3525 3141 3298 2862 
Q 3072 2584 2669 2484 
Q 3125 2378 3379 2068 
Q 3634 1759 3634 1313 
Q 3634 634 3220 271 
Q 2806 -91 2034 -91 
Q 1263 -91 848 271 
Q 434 634 434 1313 
Q 434 1759 690 2068 
Q 947 2378 1403 2484 
z
M 1172 3481 
Q 1172 3119 1398 2916 
Q 1625 2713 2034 2713 
Q 2441 2713 2670 2916 
Q 2900 3119 2900 3481 
Q 2900 3844 2670 4047 
Q 2441 4250 2034 4250 
Q 1625 4250 1398 4047 
Q 1172 3844 1172 3481 
z
" transform="scale(0.015625)"/>
       </defs>
       <use xlink:href="#DejaVuSans-30"/>
       <use xlink:href="#DejaVuSans-2e" x="63.623047"/>
       <use xlink:href="#DejaVuSans-38" x="95.410156"/>
      </g>
     </g>
    </g>
    <g id="xtick_6">
     <g id="line2d_11">
      <path d="M 498.210929 288.430125 
L 498.210929 22.318125 
" clip-path="url(#p4fa98ab749)" style="fill: none; stroke: #b0b0b0; stroke-opacity: 0.5; stroke-width: 0.8; stroke-linecap: square"/>
     </g>
     <g id="line2d_12">
      <g>
       <use xlink:href="#m29725f5d42" x="498.210929" y="288.430125" style="stroke: #000000; stroke-width: 0.8"/>
      </g>
     </g>
     <g id="text_6">
      <!-- 1.0 -->
      <g transform="translate(490.259366 303.028562) scale(0.1 -0.1)">
       <defs>
        <path id="DejaVuSans-31" d="M 794 531 
L 1825 531 
L 1825 4091 
L 703 3866 
L 703 4441 
L 1819 4666 
L 2450 4666 
L 2450 531 
L 3481 531 
L 3481 0 
L 794 0 
L 794 531 
z
" transform="scale(0.015625)"/>
       </defs>
       <use xlink:href="#DejaVuSans-31"/>
       <use xlink:href="#DejaVuSans-2e" x="63.623047"/>
       <use xlink:href="#DejaVuSans-30" x="95.410156"/>
      </g>
     </g>
    </g>
    <g id="text_7">
     <!-- Zeit in s -->
     <g transform="translate(270.889923 316.706687) scale(0.1 -0.1)">
      <defs>
       <path id="DejaVuSans-5a" d="M 359 4666 
L 4025 4666 
L 4025 4184 
L 1075 531 
L 4097 531 
L 4097 0 
L 288 0 
L 288 481 
L 3238 4134 
L 359 4134 
L 359 4666 
z
" transform="scale(0.015625)"/>
       <path id="DejaVuSans-65" d="M 3597 1894 
L 3597 1613 
L 953 1613 
Q 991 1019 1311 708 
Q 1631 397 2203 397 
Q 2534 397 2845 478 
Q 3156 559 3463 722 
L 3463 178 
Q 3153 47 2828 -22 
Q 2503 -91 2169 -91 
Q 1331 -91 842 396 
Q 353 884 353 1716 
Q 353 2575 817 3079 
Q 1281 3584 2069 3584 
Q 2775 3584 3186 3129 
Q 3597 2675 3597 1894 
z
M 3022 2063 
Q 3016 2534 2758 2815 
Q 2500 3097 2075 3097 
Q 1594 3097 1305 2825 
Q 1016 2553 972 2059 
L 3022 2063 
z
" transform="scale(0.015625)"/>
       <path id="DejaVuSans-69" d="M 603 3500 
L 1178 3500 
L 1178 0 
L 603 0 
L 603 3500 
z
M 603 4863 
L 1178 4863 
L 1178 4134 
L 603 4134 
L 603 4863 
z
" transform="scale(0.015625)"/>
       <path id="DejaVuSans-74" d="M 1172 4494 
L 1172 3500 
L 2356 3500 
L 2356 3053 
L 1172 3053 
L 1172 1153 
Q 1172 725 1289 603 
Q 1406 481 1766 481 
L 2356 481 
L 2356 0 
L 1766 0 
Q 1100 0 847 248 
Q 594 497 594 1153 
L 594 3053 
L 172 3053 
L 172 3500 
L 594 3500 
L 594 4494 
L 1172 4494 
z
" transform="scale(0.015625)"/>
       <path id="DejaVuSans-20" transform="scale(0.015625)"/>
       <path id="DejaVuSans-6e" d="M 3513 2113 
L 3513 0 
L 2938 0 
L 2938 2094 
Q 2938 2591 2744 2837 
Q 2550 3084 2163 3084 
Q 1697 3084 1428 2787 
Q 1159 2491 1159 1978 
L 1159 0 
L 581 0 
L 581 3500 
L 1159 3500 
L 1159 2956 
Q 1366 3272 1645 3428 
Q 1925 3584 2291 3584 
Q 2894 3584 3203 3211 
Q 3513 2838 3513 2113 
z
" transform="scale(0.015625)"/>
       <path id="DejaVuSans-73" d="M 2834 3397 
L 2834 2853 
Q 2591 2978 2328 3040 
Q 2066 3103 1784 3103 
Q 1356 3103 1142 2972 
Q 928 2841 928 2578 
Q 928 2378 1081 2264 
Q 1234 2150 1697 2047 
L 1894 2003 
Q 2506 1872 2764 1633 
Q 3022 1394 3022 966 
Q 3022 478 2636 193 
Q 2250 -91 1575 -91 
Q 1294 -91 989 -36 
Q 684 19 347 128 
L 347 722 
Q 666 556 975 473 
Q 1284 391 1588 391 
Q 1994 391 2212 530 
Q 2431 669 2431 922 
Q 2431 1156 2273 1281 
Q 2116 1406 1581 1522 
L 1381 1569 
Q 847 1681 609 1914 
Q 372 2147 372 2553 
Q 372 3047 722 3315 
Q 1072 3584 1716 3584 
Q 2034 3584 2315 3537 
Q 2597 3491 2834 3397 
z
" transform="scale(0.015625)"/>
      </defs>
      <use xlink:href="#DejaVuSans-5a"/>
      <use xlink:href="#DejaVuSans-65" x="68.505859"/>
      <use xlink:href="#DejaVuSans-69" x="130.029297"/>
      <use xlink:href="#DejaVuSans-74" x="157.8125"/>
      <use xlink:href="#DejaVuSans-20" x="197.021484"/>
      <use xlink:href="#DejaVuSans-69" x="228.808594"/>
      <use xlink:href="#DejaVuSans-6e" x="256.591797"/>
      <use xlink:href="#DejaVuSans-20" x="319.970703"/>
      <use xlink:href="#DejaVuSans-73" x="351.757812"/>
     </g>
    </g>
   </g>
   <g id="matplotlib.axis_2">
    <g id="ytick_1">
     <g id="line2d_13">
      <path d="M 83.951729 288.430125 
L 498.210929 288.430125 
" clip-path="url(#p4fa98ab749)" style="fill: none; stroke: #b0b0b0; stroke-opacity: 0.5; stroke-width: 0.8; stroke-linecap: square"/>
     </g>
     <g id="line2d_14">
      <defs>
       <path id="mcebef4c4f4" d="M 0 0 
L -3.5 0 
" style="stroke: #000000; stroke-width: 0.8"/>
      </defs>
      <g>
       <use xlink:href="#mcebef4c4f4" x="83.951729" y="288.430125" style="stroke: #000000; stroke-width: 0.8"/>
      </g>
     </g>
     <g id="text_8">
      <!-- 0 -->
      <g transform="translate(70.589229 292.229344) scale(0.1 -0.1)">
       <use xlink:href="#DejaVuSans-30"/>
      </g>
     </g>
    </g>
    <g id="ytick_2">
     <g id="line2d_15">
      <path d="M 83.951729 230.194831 
L 498.210929 230.194831 
" clip-path="url(#p4fa98ab749)" style="fill: none; stroke: #b0b0b0; stroke-opacity: 0.5; stroke-width: 0.8; stroke-linecap: square"/>
     </g>
     <g id="line2d_16">
      <g>
       <use xlink:href="#mcebef4c4f4" x="83.951729" y="230.194831" style="stroke: #000000; stroke-width: 0.8"/>
      </g>
     </g>
     <g id="text_9">
      <!-- 50 -->
      <g transform="translate(64.226729 233.99405) scale(0.1 -0.1)">
       <defs>
        <path id="DejaVuSans-35" d="M 691 4666 
L 3169 4666 
L 3169 4134 
L 1269 4134 
L 1269 2991 
Q 1406 3038 1543 3061 
Q 1681 3084 1819 3084 
Q 2600 3084 3056 2656 
Q 3513 2228 3513 1497 
Q 3513 744 3044 326 
Q 2575 -91 1722 -91 
Q 1428 -91 1123 -41 
Q 819 9 494 109 
L 494 744 
Q 775 591 1075 516 
Q 1375 441 1709 441 
Q 2250 441 2565 725 
Q 2881 1009 2881 1497 
Q 2881 1984 2565 2268 
Q 2250 2553 1709 2553 
Q 1456 2553 1204 2497 
Q 953 2441 691 2322 
L 691 4666 
z
" transform="scale(0.015625)"/>
       </defs>
       <use xlink:href="#DejaVuSans-35"/>
       <use xlink:href="#DejaVuSans-30" x="63.623047"/>
      </g>
     </g>
    </g>
    <g id="ytick_3">
     <g id="line2d_17">
      <path d="M 83.951729 171.959537 
L 498.210929 171.959537 
" clip-path="url(#p4fa98ab749)" style="fill: none; stroke: #b0b0b0; stroke-opacity: 0.5; stroke-width: 0.8; stroke-linecap: square"/>
     </g>
     <g id="line2d_18">
      <g>
       <use xlink:href="#mcebef4c4f4" x="83.951729" y="171.959537" style="stroke: #000000; stroke-width: 0.8"/>
      </g>
     </g>
     <g id="text_10">
      <!-- 100 -->
      <g transform="translate(57.864229 175.758756) scale(0.1 -0.1)">
       <use xlink:href="#DejaVuSans-31"/>
       <use xlink:href="#DejaVuSans-30" x="63.623047"/>
       <use xlink:href="#DejaVuSans-30" x="127.246094"/>
      </g>
     </g>
    </g>
    <g id="ytick_4">
     <g id="line2d_19">
      <path d="M 83.951729 113.724243 
L 498.210929 113.724243 
" clip-path="url(#p4fa98ab749)" style="fill: none; stroke: #b0b0b0; stroke-opacity: 0.5; stroke-width: 0.8; stroke-linecap: square"/>
     </g>
     <g id="line2d_20">
      <g>
       <use xlink:href="#mcebef4c4f4" x="83.951729" y="113.724243" style="stroke: #000000; stroke-width: 0.8"/>
      </g>
     </g>
     <g id="text_11">
      <!-- 150 -->
      <g transform="translate(57.864229 117.523461) scale(0.1 -0.1)">
       <use xlink:href="#DejaVuSans-31"/>
       <use xlink:href="#DejaVuSans-35" x="63.623047"/>
       <use xlink:href="#DejaVuSans-30" x="127.246094"/>
      </g>
     </g>
    </g>
    <g id="ytick_5">
     <g id="line2d_21">
      <path d="M 83.951729 55.488949 
L 498.210929 55.488949 
" clip-path="url(#p4fa98ab749)" style="fill: none; stroke: #b0b0b0; stroke-opacity: 0.5; stroke-width: 0.8; stroke-linecap: square"/>
     </g>
     <g id="line2d_22">
      <g>
       <use xlink:href="#mcebef4c4f4" x="83.951729" y="55.488949" style="stroke: #000000; stroke-width: 0.8"/>
      </g>
     </g>
     <g id="text_12">
      <!-- 200 -->
      <g transform="translate(57.864229 59.288167) scale(0.1 -0.1)">
       <use xlink:href="#DejaVuSans-32"/>
       <use xlink:href="#DejaVuSans-30" x="63.623047"/>
       <use xlink:href="#DejaVuSans-30" x="127.246094"/>
      </g>
     </g>
    </g>
    <g id="text_13">
     <!-- Spannung in V -->
     <g transform="translate(51.784542 191.792094) rotate(-90) scale(0.1 -0.1)">
      <defs>
       <path id="DejaVuSans-53" d="M 3425 4513 
L 3425 3897 
Q 3066 4069 2747 4153 
Q 2428 4238 2131 4238 
Q 1616 4238 1336 4038 
Q 1056 3838 1056 3469 
Q 1056 3159 1242 3001 
Q 1428 2844 1947 2747 
L 2328 2669 
Q 3034 2534 3370 2195 
Q 3706 1856 3706 1288 
Q 3706 609 3251 259 
Q 2797 -91 1919 -91 
Q 1588 -91 1214 -16 
Q 841 59 441 206 
L 441 856 
Q 825 641 1194 531 
Q 1563 422 1919 422 
Q 2459 422 2753 634 
Q 3047 847 3047 1241 
Q 3047 1584 2836 1778 
Q 2625 1972 2144 2069 
L 1759 2144 
Q 1053 2284 737 2584 
Q 422 2884 422 3419 
Q 422 4038 858 4394 
Q 1294 4750 2059 4750 
Q 2388 4750 2728 4690 
Q 3069 4631 3425 4513 
z
" transform="scale(0.015625)"/>
       <path id="DejaVuSans-70" d="M 1159 525 
L 1159 -1331 
L 581 -1331 
L 581 3500 
L 1159 3500 
L 1159 2969 
Q 1341 3281 1617 3432 
Q 1894 3584 2278 3584 
Q 2916 3584 3314 3078 
Q 3713 2572 3713 1747 
Q 3713 922 3314 415 
Q 2916 -91 2278 -91 
Q 1894 -91 1617 61 
Q 1341 213 1159 525 
z
M 3116 1747 
Q 3116 2381 2855 2742 
Q 2594 3103 2138 3103 
Q 1681 3103 1420 2742 
Q 1159 2381 1159 1747 
Q 1159 1113 1420 752 
Q 1681 391 2138 391 
Q 2594 391 2855 752 
Q 3116 1113 3116 1747 
z
" transform="scale(0.015625)"/>
       <path id="DejaVuSans-61" d="M 2194 1759 
Q 1497 1759 1228 1600 
Q 959 1441 959 1056 
Q 959 750 1161 570 
Q 1363 391 1709 391 
Q 2188 391 2477 730 
Q 2766 1069 2766 1631 
L 2766 1759 
L 2194 1759 
z
M 3341 1997 
L 3341 0 
L 2766 0 
L 2766 531 
Q 2569 213 2275 61 
Q 1981 -91 1556 -91 
Q 1019 -91 701 211 
Q 384 513 384 1019 
Q 384 1609 779 1909 
Q 1175 2209 1959 2209 
L 2766 2209 
L 2766 2266 
Q 2766 2663 2505 2880 
Q 2244 3097 1772 3097 
Q 1472 3097 1187 3025 
Q 903 2953 641 2809 
L 641 3341 
Q 956 3463 1253 3523 
Q 1550 3584 1831 3584 
Q 2591 3584 2966 3190 
Q 3341 2797 3341 1997 
z
" transform="scale(0.015625)"/>
       <path id="DejaVuSans-75" d="M 544 1381 
L 544 3500 
L 1119 3500 
L 1119 1403 
Q 1119 906 1312 657 
Q 1506 409 1894 409 
Q 2359 409 2629 706 
Q 2900 1003 2900 1516 
L 2900 3500 
L 3475 3500 
L 3475 0 
L 2900 0 
L 2900 538 
Q 2691 219 2414 64 
Q 2138 -91 1772 -91 
Q 1169 -91 856 284 
Q 544 659 544 1381 
z
M 1991 3584 
L 1991 3584 
z
" transform="scale(0.015625)"/>
       <path id="DejaVuSans-67" d="M 2906 1791 
Q 2906 2416 2648 2759 
Q 2391 3103 1925 3103 
Q 1463 3103 1205 2759 
Q 947 2416 947 1791 
Q 947 1169 1205 825 
Q 1463 481 1925 481 
Q 2391 481 2648 825 
Q 2906 1169 2906 1791 
z
M 3481 434 
Q 3481 -459 3084 -895 
Q 2688 -1331 1869 -1331 
Q 1566 -1331 1297 -1286 
Q 1028 -1241 775 -1147 
L 775 -588 
Q 1028 -725 1275 -790 
Q 1522 -856 1778 -856 
Q 2344 -856 2625 -561 
Q 2906 -266 2906 331 
L 2906 616 
Q 2728 306 2450 153 
Q 2172 0 1784 0 
Q 1141 0 747 490 
Q 353 981 353 1791 
Q 353 2603 747 3093 
Q 1141 3584 1784 3584 
Q 2172 3584 2450 3431 
Q 2728 3278 2906 2969 
L 2906 3500 
L 3481 3500 
L 3481 434 
z
" transform="scale(0.015625)"/>
       <path id="DejaVuSans-56" d="M 1831 0 
L 50 4666 
L 709 4666 
L 2188 738 
L 3669 4666 
L 4325 4666 
L 2547 0 
L 1831 0 
z
" transform="scale(0.015625)"/>
      </defs>
      <use xlink:href="#DejaVuSans-53"/>
      <use xlink:href="#DejaVuSans-70" x="63.476562"/>
      <use xlink:href="#DejaVuSans-61" x="126.953125"/>
      <use xlink:href="#DejaVuSans-6e" x="188.232422"/>
      <use xlink:href="#DejaVuSans-6e" x="251.611328"/>
      <use xlink:href="#DejaVuSans-75" x="314.990234"/>
      <use xlink:href="#DejaVuSans-6e" x="378.369141"/>
      <use xlink:href="#DejaVuSans-67" x="441.748047"/>
      <use xlink:href="#DejaVuSans-20" x="505.224609"/>
      <use xlink:href="#DejaVuSans-69" x="537.011719"/>
      <use xlink:href="#DejaVuSans-6e" x="564.794922"/>
      <use xlink:href="#DejaVuSans-20" x="628.173828"/>
      <use xlink:href="#DejaVuSans-56" x="659.960938"/>
     </g>
    </g>
   </g>
   <g id="line2d_23">
    <path d="M 83.951729 288.430125 
L 55.367844 283.771301 
L 59.510436 288.430125 
L 63.653028 290.293654 
L 67.79562 288.430125 
L 71.938212 283.771301 
L 76.080804 288.430125 
L 80.223396 286.566596 
L 84.365988 287.49836 
L 88.50858 287.49836 
L 92.651172 285.634831 
L 96.793764 169.164243 
L 101.350615 113.512478 
L 105.493207 198.048949 
L 109.635799 201.776007 
L 113.778391 203.639537 
L 117.920983 200.844243 
L 122.063575 197.117184 
L 126.206167 169.164243 
L 130.348759 165.437184 
L 134.491351 156.119537 
L 138.633943 136.552478 
L 142.776535 118.848949 
L 147.333387 113.512478 
L 151.475979 113.25836 
L 155.618571 118.848949 
L 159.761163 116.985419 
L 163.903755 115.12189 
L 168.046347 86.237184 
L 172.188939 76.919537 
L 176.331531 57.352478 
L 180.474123 48.966596 
L 184.616715 52.693654 
L 188.759307 39.648949 
L 193.316158 58.453654 
L 197.45875 39.648949 
L 201.601342 41.512478 
L 205.743934 34.990125 
L 209.886526 39.648949 
L 214.029118 46.171301 
L 218.17171 44.307772 
L 222.314302 46.171301 
L 226.456894 62.011301 
L 230.599486 89.964243 
L 234.742078 80.646596 
L 239.298929 44.053654 
L 243.441521 88.100713 
L 247.584113 112.326596 
L 251.726705 106.736007 
L 255.869297 136.552478 
L 260.011889 135.620713 
L 264.154481 135.620713 
L 268.297073 131.893654 
L 272.439665 129.09836 
L 276.582257 130.96189 
L 280.724849 127.234831 
L 285.2817 111.81836 
L 289.424292 124.439537 
L 293.566884 124.439537 
L 297.709476 125.371301 
L 301.852068 124.439537 
L 305.99466 122.576007 
L 310.137252 122.576007 
L 314.279844 119.780713 
L 318.422436 116.985419 
L 322.565028 116.985419 
L 326.70762 117.917184 
L 331.264471 103.347772 
L 335.407063 109.531301 
L 339.549655 106.736007 
L 343.692247 169.164243 
L 347.834839 111.394831 
L 351.977431 76.919537 
L 356.120023 98.350125 
L 360.262615 111.394831 
L 364.405207 125.371301 
L 368.547799 126.303066 
L 372.690391 83.44189 
L 377.247243 111.81836 
L 381.389835 124.439537 
L 385.532427 115.12189 
L 389.675019 73.192478 
L 393.817611 71.328949 
L 397.960203 86.237184 
L 402.102795 106.736007 
L 406.245387 67.60189 
L 410.387979 62.943066 
L 414.530571 137.484243 
L 418.673163 114.190125 
L 423.230014 45.747772 
L 427.372606 132.825419 
L 431.515198 126.303066 
L 435.65779 123.507772 
L 439.800382 95.554831 
L 443.942974 116.053654 
L 448.085566 123.507772 
L 452.228158 92.759537 
L 456.37075 128.166596 
L 460.513342 150.528949 
L 464.655934 108.599537 
L 469.212785 73.700713 
" clip-path="url(#p4fa98ab749)" style="fill: none; stroke: #006400; stroke-width: 1.5; stroke-linecap: square"/>
   </g>
   <g id="line2d_24">
    <path d="M 83.951729 288.430125 
L 55.367844 283.771301 
L 59.510436 288.430125 
L 63.653028 287.49836 
L 67.79562 286.566596 
L 71.938212 286.566596 
L 76.080804 288.430125 
L 80.223396 286.566596 
L 84.365988 285.634831 
L 88.50858 285.634831 
L 92.651172 289.36189 
L 96.793764 284.703066 
L 101.350615 286.312478 
L 105.493207 285.634831 
L 109.635799 285.634831 
L 113.778391 284.703066 
L 117.920983 288.430125 
L 122.063575 284.703066 
L 126.206167 286.566596 
L 130.348759 133.757184 
L 134.491351 188.731301 
L 138.633943 217.616007 
L 142.776535 186.867772 
L 147.333387 177.888949 
L 151.475979 177.550125 
L 155.618571 177.550125 
L 159.761163 181.277184 
L 163.903755 178.48189 
L 168.046347 174.754831 
L 172.188939 144.93836 
L 176.331531 136.552478 
L 180.474123 119.780713 
L 184.616715 104.872478 
L 188.759307 95.554831 
L 193.316158 116.053654 
L 197.45875 97.41836 
L 201.601342 99.28189 
L 205.743934 72.260713 
L 209.886526 59.216007 
L 214.029118 46.171301 
L 218.17171 50.830125 
L 222.314302 46.171301 
L 226.456894 47.103066 
L 230.599486 42.444243 
L 234.742078 47.103066 
L 239.298929 32.194831 
L 243.441521 46.171301 
L 247.584113 46.171301 
L 251.726705 46.171301 
L 255.869297 53.625419 
L 260.011889 74.124243 
L 264.154481 63.874831 
L 268.297073 103.008949 
L 272.439665 91.827772 
L 276.582257 130.96189 
L 280.724849 131.893654 
L 285.2817 117.747772 
L 289.424292 129.09836 
L 293.566884 128.166596 
L 297.709476 125.371301 
L 301.852068 122.576007 
L 305.99466 120.712478 
L 310.137252 121.644243 
L 314.279844 122.576007 
L 318.422436 116.053654 
L 322.565028 116.985419 
L 326.70762 116.985419 
L 331.264471 121.136007 
L 335.407063 106.736007 
L 339.549655 106.736007 
L 343.692247 106.736007 
L 347.834839 99.28189 
L 351.977431 98.350125 
L 356.120023 97.41836 
L 360.262615 102.077184 
L 364.405207 90.896007 
L 368.547799 74.124243 
L 372.690391 98.350125 
L 377.247243 117.747772 
L 381.389835 156.119537 
L 385.532427 75.056007 
L 389.675019 103.008949 
L 393.817611 110.463066 
L 397.960203 112.326596 
L 402.102795 112.326596 
L 406.245387 113.25836 
L 410.387979 96.486596 
L 414.530571 127.234831 
L 418.673163 84.373654 
L 423.230014 117.747772 
L 427.372606 101.145419 
L 431.515198 106.736007 
L 435.65779 87.168949 
L 439.800382 137.484243 
L 443.942974 105.804243 
L 448.085566 123.507772 
L 452.228158 89.032478 
L 456.37075 127.234831 
L 460.513342 131.893654 
L 464.655934 127.234831 
L 469.212785 113.512478 
" clip-path="url(#p4fa98ab749)" style="fill: none; stroke: #00ff00; stroke-width: 1.5; stroke-linecap: square"/>
   </g>
   <g id="patch_3">
    <path d="M 83.951729 288.430125 
L 83.951729 22.318125 
" style="fill: none; stroke: #000000; stroke-width: 0.8; stroke-linejoin: miter; stroke-linecap: square"/>
   </g>
   <g id="patch_4">
    <path d="M 498.210929 288.430125 
L 498.210929 22.318125 
" style="fill: none; stroke: #000000; stroke-width: 0.8; stroke-linejoin: miter; stroke-linecap: square"/>
   </g>
   <g id="patch_5">
    <path d="M 83.951729 288.430125 
L 498.210929 288.430125 
" style="fill: none; stroke: #000000; stroke-width: 0.8; stroke-linejoin: miter; stroke-linecap: square"/>
   </g>
   <g id="patch_6">
    <path d="M 83.951729 22.318125 
L 498.210929 22.318125 
" style="fill: none; stroke: #000000; stroke-width: 0.8; stroke-linejoin: miter; stroke-linecap: square"/>
   </g>
   <g id="text_14">
    <!-- Anlaufkurven -->
    <g transform="translate(251.314454 16.318125) scale(0.12 -0.12)">
     <defs>
      <path id="DejaVuSans-41" d="M 2188 4044 
L 1331 1722 
L 3047 1722 
L 2188 4044 
z
M 1831 4666 
L 2547 4666 
L 4325 0 
L 3669 0 
L 3244 1197 
L 1141 1197 
L 716 0 
L 50 0 
L 1831 4666 
z
" transform="scale(0.015625)"/>
      <path id="DejaVuSans-6c" d="M 603 4863 
L 1178 4863 
L 1178 0 
L 603 0 
L 603 4863 
z
" transform="scale(0.015625)"/>
      <path id="DejaVuSans-66" d="M 2375 4863 
L 2375 4384 
L 1825 4384 
Q 1516 4384 1395 4259 
Q 1275 4134 1275 3809 
L 1275 3500 
L 2222 3500 
L 2222 3053 
L 1275 3053 
L 1275 0 
L 697 0 
L 697 3053 
L 147 3053 
L 147 3500 
L 697 3500 
L 697 3744 
Q 697 4328 969 4595 
Q 1241 4863 1831 4863 
L 2375 4863 
z
" transform="scale(0.015625)"/>
      <path id="DejaVuSans-6b" d="M 581 4863 
L 1159 4863 
L 1159 1991 
L 2875 3500 
L 3609 3500 
L 1753 1863 
L 3688 0 
L 2938 0 
L 1159 1709 
L 1159 0 
L 581 0 
L 581 4863 
z
" transform="scale(0.015625)"/>
      <path id="DejaVuSans-72" d="M 2631 2963 
Q 2534 3019 2420 3045 
Q 2306 3072 2169 3072 
Q 1681 3072 1420 2755 
Q 1159 2438 1159 1844 
L 1159 0 
L 581 0 
L 581 3500 
L 1159 3500 
L 1159 2956 
Q 1341 3275 1631 3429 
Q 1922 3584 2338 3584 
Q 2397 3584 2469 3576 
Q 2541 3569 2628 3553 
L 2631 2963 
z
" transform="scale(0.015625)"/>
      <path id="DejaVuSans-76" d="M 191 3500 
L 800 3500 
L 1894 563 
L 2988 3500 
L 3597 3500 
L 2284 0 
L 1503 0 
L 191 3500 
z
" transform="scale(0.015625)"/>
     </defs>
     <use xlink:href="#DejaVuSans-41"/>
     <use xlink:href="#DejaVuSans-6e" x="68.408203"/>
     <use xlink:href="#DejaVuSans-6c" x="131.787109"/>
     <use xlink:href="#DejaVuSans-61" x="159.570312"/>
     <use xlink:href="#DejaVuSans-75" x="220.849609"/>
     <use xlink:href="#DejaVuSans-66" x="284.228516"/>
     <use xlink:href="#DejaVuSans-6b" x="319.433594"/>
     <use xlink:href="#DejaVuSans-75" x="374.21875"/>
     <use xlink:href="#DejaVuSans-72" x="437.597656"/>
     <use xlink:href="#DejaVuSans-76" x="478.710938"/>
     <use xlink:href="#DejaVuSans-65" x="537.890625"/>
     <use xlink:href="#DejaVuSans-6e" x="599.414062"/>
    </g>
   </g>
  </g>
  <g id="axes_2">
   <g id="matplotlib.axis_3">
    <g id="ytick_6">
     <g id="line2d_25">
      <defs>
       <path id="m1d77793555" d="M 0 0 
L 3.5 0 
" style="stroke: #000000; stroke-width: 0.8"/>
      </defs>
      <g>
       <use xlink:href="#m1d77793555" x="498.210929" y="288.430125" style="stroke: #000000; stroke-width: 0.8"/>
      </g>
     </g>
     <g id="text_15">
      <!-- 0 -->
      <g transform="translate(505.210929 292.229344) scale(0.1 -0.1)">
       <use xlink:href="#DejaVuSans-30"/>
      </g>
     </g>
    </g>
    <g id="ytick_7">
     <g id="line2d_26">
      <g>
       <use xlink:href="#m1d77793555" x="498.210929" y="254.772754" style="stroke: #000000; stroke-width: 0.8"/>
      </g>
     </g>
     <g id="text_16">
      <!-- 200 -->
      <g transform="translate(505.210929 258.571973) scale(0.1 -0.1)">
       <use xlink:href="#DejaVuSans-32"/>
       <use xlink:href="#DejaVuSans-30" x="63.623047"/>
       <use xlink:href="#DejaVuSans-30" x="127.246094"/>
      </g>
     </g>
    </g>
    <g id="ytick_8">
     <g id="line2d_27">
      <g>
       <use xlink:href="#m1d77793555" x="498.210929" y="221.115384" style="stroke: #000000; stroke-width: 0.8"/>
      </g>
     </g>
     <g id="text_17">
      <!-- 400 -->
      <g transform="translate(505.210929 224.914603) scale(0.1 -0.1)">
       <use xlink:href="#DejaVuSans-34"/>
       <use xlink:href="#DejaVuSans-30" x="63.623047"/>
       <use xlink:href="#DejaVuSans-30" x="127.246094"/>
      </g>
     </g>
    </g>
    <g id="ytick_9">
     <g id="line2d_28">
      <g>
       <use xlink:href="#m1d77793555" x="498.210929" y="187.458013" style="stroke: #000000; stroke-width: 0.8"/>
      </g>
     </g>
     <g id="text_18">
      <!-- 600 -->
      <g transform="translate(505.210929 191.257232) scale(0.1 -0.1)">
       <use xlink:href="#DejaVuSans-36"/>
       <use xlink:href="#DejaVuSans-30" x="63.623047"/>
       <use xlink:href="#DejaVuSans-30" x="127.246094"/>
      </g>
     </g>
    </g>
    <g id="ytick_10">
     <g id="line2d_29">
      <g>
       <use xlink:href="#m1d77793555" x="498.210929" y="153.800643" style="stroke: #000000; stroke-width: 0.8"/>
      </g>
     </g>
     <g id="text_19">
      <!-- 800 -->
      <g transform="translate(505.210929 157.599862) scale(0.1 -0.1)">
       <use xlink:href="#DejaVuSans-38"/>
       <use xlink:href="#DejaVuSans-30" x="63.623047"/>
       <use xlink:href="#DejaVuSans-30" x="127.246094"/>
      </g>
     </g>
    </g>
    <g id="ytick_11">
     <g id="line2d_30">
      <g>
       <use xlink:href="#m1d77793555" x="498.210929" y="120.143272" style="stroke: #000000; stroke-width: 0.8"/>
      </g>
     </g>
     <g id="text_20">
      <!-- 1000 -->
      <g transform="translate(505.210929 123.942491) scale(0.1 -0.1)">
       <use xlink:href="#DejaVuSans-31"/>
       <use xlink:href="#DejaVuSans-30" x="63.623047"/>
       <use xlink:href="#DejaVuSans-30" x="127.246094"/>
       <use xlink:href="#DejaVuSans-30" x="190.869141"/>
      </g>
     </g>
    </g>
    <g id="ytick_12">
     <g id="line2d_31">
      <g>
       <use xlink:href="#m1d77793555" x="498.210929" y="86.485902" style="stroke: #000000; stroke-width: 0.8"/>
      </g>
     </g>
     <g id="text_21">
      <!-- 1200 -->
      <g transform="translate(505.210929 90.285121) scale(0.1 -0.1)">
       <use xlink:href="#DejaVuSans-31"/>
       <use xlink:href="#DejaVuSans-32" x="63.623047"/>
       <use xlink:href="#DejaVuSans-30" x="127.246094"/>
       <use xlink:href="#DejaVuSans-30" x="190.869141"/>
      </g>
     </g>
    </g>
    <g id="ytick_13">
     <g id="line2d_32">
      <g>
       <use xlink:href="#m1d77793555" x="498.210929" y="52.828531" style="stroke: #000000; stroke-width: 0.8"/>
      </g>
     </g>
     <g id="text_22">
      <!-- 1400 -->
      <g transform="translate(505.210929 56.62775) scale(0.1 -0.1)">
       <use xlink:href="#DejaVuSans-31"/>
       <use xlink:href="#DejaVuSans-34" x="63.623047"/>
       <use xlink:href="#DejaVuSans-30" x="127.246094"/>
       <use xlink:href="#DejaVuSans-30" x="190.869141"/>
      </g>
     </g>
    </g>
    <g id="text_23">
     <!-- Drehzahl in rpm -->
     <g transform="translate(542.259367 195.494437) rotate(-90) scale(0.1 -0.1)">
      <defs>
       <path id="DejaVuSans-44" d="M 1259 4147 
L 1259 519 
L 2022 519 
Q 2988 519 3436 956 
Q 3884 1394 3884 2338 
Q 3884 3275 3436 3711 
Q 2988 4147 2022 4147 
L 1259 4147 
z
M 628 4666 
L 1925 4666 
Q 3281 4666 3915 4102 
Q 4550 3538 4550 2338 
Q 4550 1131 3912 565 
Q 3275 0 1925 0 
L 628 0 
L 628 4666 
z
" transform="scale(0.015625)"/>
       <path id="DejaVuSans-68" d="M 3513 2113 
L 3513 0 
L 2938 0 
L 2938 2094 
Q 2938 2591 2744 2837 
Q 2550 3084 2163 3084 
Q 1697 3084 1428 2787 
Q 1159 2491 1159 1978 
L 1159 0 
L 581 0 
L 581 4863 
L 1159 4863 
L 1159 2956 
Q 1366 3272 1645 3428 
Q 1925 3584 2291 3584 
Q 2894 3584 3203 3211 
Q 3513 2838 3513 2113 
z
" transform="scale(0.015625)"/>
       <path id="DejaVuSans-7a" d="M 353 3500 
L 3084 3500 
L 3084 2975 
L 922 459 
L 3084 459 
L 3084 0 
L 275 0 
L 275 525 
L 2438 3041 
L 353 3041 
L 353 3500 
z
" transform="scale(0.015625)"/>
       <path id="DejaVuSans-6d" d="M 3328 2828 
Q 3544 3216 3844 3400 
Q 4144 3584 4550 3584 
Q 5097 3584 5394 3201 
Q 5691 2819 5691 2113 
L 5691 0 
L 5113 0 
L 5113 2094 
Q 5113 2597 4934 2840 
Q 4756 3084 4391 3084 
Q 3944 3084 3684 2787 
Q 3425 2491 3425 1978 
L 3425 0 
L 2847 0 
L 2847 2094 
Q 2847 2600 2669 2842 
Q 2491 3084 2119 3084 
Q 1678 3084 1418 2786 
Q 1159 2488 1159 1978 
L 1159 0 
L 581 0 
L 581 3500 
L 1159 3500 
L 1159 2956 
Q 1356 3278 1631 3431 
Q 1906 3584 2284 3584 
Q 2666 3584 2933 3390 
Q 3200 3197 3328 2828 
z
" transform="scale(0.015625)"/>
      </defs>
      <use xlink:href="#DejaVuSans-44"/>
      <use xlink:href="#DejaVuSans-72" x="77.001953"/>
      <use xlink:href="#DejaVuSans-65" x="115.865234"/>
      <use xlink:href="#DejaVuSans-68" x="177.388672"/>
      <use xlink:href="#DejaVuSans-7a" x="240.767578"/>
      <use xlink:href="#DejaVuSans-61" x="293.257812"/>
      <use xlink:href="#DejaVuSans-68" x="354.537109"/>
      <use xlink:href="#DejaVuSans-6c" x="417.916016"/>
      <use xlink:href="#DejaVuSans-20" x="445.699219"/>
      <use xlink:href="#DejaVuSans-69" x="477.486328"/>
      <use xlink:href="#DejaVuSans-6e" x="505.269531"/>
      <use xlink:href="#DejaVuSans-20" x="568.648438"/>
      <use xlink:href="#DejaVuSans-72" x="600.435547"/>
      <use xlink:href="#DejaVuSans-70" x="641.548828"/>
      <use xlink:href="#DejaVuSans-6d" x="705.025391"/>
     </g>
    </g>
   </g>
   <g id="line2d_33">
    <path d="M 83.951729 288.430125 
L 55.367844 288.430125 
L 59.510436 288.766699 
L 63.653028 288.093551 
L 67.79562 288.430125 
L 71.938212 288.430125 
L 76.080804 288.430125 
L 80.223396 288.430125 
L 84.365988 288.430125 
L 88.50858 288.430125 
L 92.651172 288.430125 
L 96.793764 288.430125 
L 101.350615 281.698651 
L 105.493207 277.99634 
L 109.635799 268.90885 
L 113.778391 261.840802 
L 117.920983 252.416739 
L 122.063575 244.675543 
L 126.206167 237.944069 
L 130.348759 228.183432 
L 134.491351 221.451958 
L 138.633943 213.037615 
L 142.776535 204.286699 
L 147.333387 196.943272 
L 151.475979 188.131161 
L 155.618571 181.73626 
L 159.761163 173.995065 
L 163.903755 166.590444 
L 168.046347 157.839527 
L 172.188939 150.434906 
L 176.331531 142.020563 
L 180.474123 134.952515 
L 184.616715 127.547894 
L 188.759307 120.479846 
L 193.316158 112.49387 
L 197.45875 104.660882 
L 201.601342 98.602555 
L 205.743934 91.534507 
L 209.886526 85.476181 
L 214.029118 79.417854 
L 218.17171 75.042396 
L 222.314302 70.330364 
L 226.456894 64.272037 
L 230.599486 59.560005 
L 234.742078 56.530842 
L 239.298929 53.74646 
L 243.441521 50.135942 
L 247.584113 47.443352 
L 251.726705 45.760484 
L 255.869297 45.760484 
L 260.011889 43.404468 
L 264.154481 43.067894 
L 268.297073 42.394747 
L 272.439665 41.721599 
L 276.582257 42.058173 
L 280.724849 42.058173 
L 285.2817 39.977535 
L 289.424292 40.038731 
L 293.566884 39.029009 
L 297.709476 38.019288 
L 301.852068 38.355862 
L 305.99466 38.019288 
L 310.137252 39.029009 
L 314.279844 37.346141 
L 318.422436 38.692436 
L 322.565028 37.682715 
L 326.70762 35.999846 
L 331.264471 36.917774 
L 335.407063 37.346141 
L 339.549655 36.33642 
L 343.692247 35.326699 
L 347.834839 36.672994 
L 351.977431 36.33642 
L 356.120023 35.999846 
L 360.262615 35.999846 
L 364.405207 36.672994 
L 368.547799 36.672994 
L 372.690391 37.682715 
L 377.247243 36.305822 
L 381.389835 35.326699 
L 385.532427 35.999846 
L 389.675019 35.999846 
L 393.817611 35.999846 
L 397.960203 35.999846 
L 402.102795 37.346141 
L 406.245387 37.682715 
L 410.387979 37.682715 
L 414.530571 36.672994 
L 418.673163 36.672994 
L 423.230014 36.611798 
L 427.372606 36.672994 
L 431.515198 36.672994 
L 435.65779 36.672994 
L 439.800382 36.672994 
L 443.942974 35.999846 
L 448.085566 35.999846 
L 452.228158 37.009567 
L 456.37075 37.009567 
L 460.513342 34.990125 
L 464.655934 36.672994 
L 469.212785 35.999846 
" clip-path="url(#p4fa98ab749)" style="fill: none; stroke: #ff8c00; stroke-width: 1.5; stroke-linecap: square"/>
   </g>
   <g id="line2d_34">
    <path d="M 83.951729 288.430125 
L 55.367844 288.430125 
L 59.510436 288.766699 
L 63.653028 288.430125 
L 67.79562 288.430125 
L 71.938212 288.430125 
L 76.080804 288.430125 
L 80.223396 288.430125 
L 84.365988 288.430125 
L 88.50858 288.430125 
L 92.651172 288.430125 
L 96.793764 288.430125 
L 101.350615 288.430125 
L 105.493207 288.430125 
L 109.635799 289.103272 
L 113.778391 288.766699 
L 117.920983 288.430125 
L 122.063575 288.430125 
L 126.206167 288.430125 
L 130.348759 288.430125 
L 134.491351 282.371798 
L 138.633943 277.99634 
L 142.776535 269.581998 
L 147.333387 260.280324 
L 151.475979 252.080165 
L 155.618571 243.665822 
L 159.761163 235.25148 
L 163.903755 227.846858 
L 168.046347 219.095942 
L 172.188939 210.345025 
L 176.331531 202.940404 
L 180.474123 195.535782 
L 184.616715 187.458013 
L 188.759307 179.043671 
L 193.316158 171.853233 
L 197.45875 162.888133 
L 201.601342 155.483511 
L 205.743934 147.405743 
L 209.886526 138.9914 
L 214.029118 132.259926 
L 218.17171 124.518731 
L 222.314302 117.114109 
L 226.456894 109.709488 
L 230.599486 103.651161 
L 234.742078 95.909966 
L 239.298929 88.627735 
L 243.441521 82.783591 
L 247.584113 77.734986 
L 251.726705 72.68638 
L 255.869297 68.647496 
L 260.011889 62.589169 
L 264.154481 58.886858 
L 268.297073 55.184547 
L 272.439665 52.491958 
L 276.582257 49.799368 
L 280.724849 47.106778 
L 285.2817 45.179129 
L 289.424292 44.750762 
L 293.566884 43.404468 
L 297.709476 43.067894 
L 301.852068 41.385025 
L 305.99466 41.048452 
L 310.137252 40.375304 
L 314.279844 40.375304 
L 318.422436 39.365583 
L 322.565028 39.702157 
L 326.70762 38.355862 
L 331.264471 39.365583 
L 335.407063 38.355862 
L 339.549655 39.029009 
L 343.692247 38.019288 
L 347.834839 37.682715 
L 351.977431 38.019288 
L 356.120023 38.355862 
L 360.262615 37.682715 
L 364.405207 37.009567 
L 368.547799 37.682715 
L 372.690391 36.33642 
L 377.247243 37.835703 
L 381.389835 35.326699 
L 385.532427 35.663272 
L 389.675019 37.009567 
L 393.817611 35.999846 
L 397.960203 35.663272 
L 402.102795 36.672994 
L 406.245387 35.999846 
L 410.387979 36.672994 
L 414.530571 35.999846 
L 418.673163 36.33642 
L 423.230014 35.69387 
L 427.372606 36.33642 
L 431.515198 36.33642 
L 435.65779 36.33642 
L 439.800382 37.009567 
L 443.942974 35.999846 
L 448.085566 36.672994 
L 452.228158 37.009567 
L 456.37075 38.355862 
L 460.513342 37.346141 
L 464.655934 35.999846 
L 469.212785 36.917774 
" clip-path="url(#p4fa98ab749)" style="fill: none; stroke: #ffd700; stroke-width: 1.5; stroke-linecap: square"/>
   </g>
   <g id="patch_7">
    <path d="M 83.951729 288.430125 
L 83.951729 22.318125 
" style="fill: none; stroke: #000000; stroke-width: 0.8; stroke-linejoin: miter; stroke-linecap: square"/>
   </g>
   <g id="patch_8">
    <path d="M 498.210929 288.430125 
L 498.210929 22.318125 
" style="fill: none; stroke: #000000; stroke-width: 0.8; stroke-linejoin: miter; stroke-linecap: square"/>
   </g>
   <g id="patch_9">
    <path d="M 83.951729 288.430125 
L 498.210929 288.430125 
" style="fill: none; stroke: #000000; stroke-width: 0.8; stroke-linejoin: miter; stroke-linecap: square"/>
   </g>
   <g id="patch_10">
    <path d="M 83.951729 22.318125 
L 498.210929 22.318125 
" style="fill: none; stroke: #000000; stroke-width: 0.8; stroke-linejoin: miter; stroke-linecap: square"/>
   </g>
  </g>
  <g id="axes_3">
   <g id="matplotlib.axis_4">
    <g id="ytick_14">
     <g id="line2d_35">
      <g>
       <use xlink:href="#mcebef4c4f4" x="34.240625" y="288.430125" style="stroke: #000000; stroke-width: 0.8"/>
      </g>
     </g>
     <g id="text_24">
      <!-- 0 -->
      <g transform="translate(20.878125 292.229344) scale(0.1 -0.1)">
       <use xlink:href="#DejaVuSans-30"/>
      </g>
     </g>
    </g>
    <g id="ytick_15">
     <g id="line2d_36">
      <g>
       <use xlink:href="#mcebef4c4f4" x="34.240625" y="256.020918" style="stroke: #000000; stroke-width: 0.8"/>
      </g>
     </g>
     <g id="text_25">
      <!-- 1 -->
      <g transform="translate(20.878125 259.820137) scale(0.1 -0.1)">
       <use xlink:href="#DejaVuSans-31"/>
      </g>
     </g>
    </g>
    <g id="ytick_16">
     <g id="line2d_37">
      <g>
       <use xlink:href="#mcebef4c4f4" x="34.240625" y="223.611711" style="stroke: #000000; stroke-width: 0.8"/>
      </g>
     </g>
     <g id="text_26">
      <!-- 2 -->
      <g transform="translate(20.878125 227.410929) scale(0.1 -0.1)">
       <use xlink:href="#DejaVuSans-32"/>
      </g>
     </g>
    </g>
    <g id="ytick_17">
     <g id="line2d_38">
      <g>
       <use xlink:href="#mcebef4c4f4" x="34.240625" y="191.202504" style="stroke: #000000; stroke-width: 0.8"/>
      </g>
     </g>
     <g id="text_27">
      <!-- 3 -->
      <g transform="translate(20.878125 195.001722) scale(0.1 -0.1)">
       <defs>
        <path id="DejaVuSans-33" d="M 2597 2516 
Q 3050 2419 3304 2112 
Q 3559 1806 3559 1356 
Q 3559 666 3084 287 
Q 2609 -91 1734 -91 
Q 1441 -91 1130 -33 
Q 819 25 488 141 
L 488 750 
Q 750 597 1062 519 
Q 1375 441 1716 441 
Q 2309 441 2620 675 
Q 2931 909 2931 1356 
Q 2931 1769 2642 2001 
Q 2353 2234 1838 2234 
L 1294 2234 
L 1294 2753 
L 1863 2753 
Q 2328 2753 2575 2939 
Q 2822 3125 2822 3475 
Q 2822 3834 2567 4026 
Q 2313 4219 1838 4219 
Q 1578 4219 1281 4162 
Q 984 4106 628 3988 
L 628 4550 
Q 988 4650 1302 4700 
Q 1616 4750 1894 4750 
Q 2613 4750 3031 4423 
Q 3450 4097 3450 3541 
Q 3450 3153 3228 2886 
Q 3006 2619 2597 2516 
z
" transform="scale(0.015625)"/>
       </defs>
       <use xlink:href="#DejaVuSans-33"/>
      </g>
     </g>
    </g>
    <g id="ytick_18">
     <g id="line2d_39">
      <g>
       <use xlink:href="#mcebef4c4f4" x="34.240625" y="158.793296" style="stroke: #000000; stroke-width: 0.8"/>
      </g>
     </g>
     <g id="text_28">
      <!-- 4 -->
      <g transform="translate(20.878125 162.592515) scale(0.1 -0.1)">
       <use xlink:href="#DejaVuSans-34"/>
      </g>
     </g>
    </g>
    <g id="ytick_19">
     <g id="line2d_40">
      <g>
       <use xlink:href="#mcebef4c4f4" x="34.240625" y="126.384089" style="stroke: #000000; stroke-width: 0.8"/>
      </g>
     </g>
     <g id="text_29">
      <!-- 5 -->
      <g transform="translate(20.878125 130.183308) scale(0.1 -0.1)">
       <use xlink:href="#DejaVuSans-35"/>
      </g>
     </g>
    </g>
    <g id="ytick_20">
     <g id="line2d_41">
      <g>
       <use xlink:href="#mcebef4c4f4" x="34.240625" y="93.974882" style="stroke: #000000; stroke-width: 0.8"/>
      </g>
     </g>
     <g id="text_30">
      <!-- 6 -->
      <g transform="translate(20.878125 97.774101) scale(0.1 -0.1)">
       <use xlink:href="#DejaVuSans-36"/>
      </g>
     </g>
    </g>
    <g id="ytick_21">
     <g id="line2d_42">
      <g>
       <use xlink:href="#mcebef4c4f4" x="34.240625" y="61.565675" style="stroke: #000000; stroke-width: 0.8"/>
      </g>
     </g>
     <g id="text_31">
      <!-- 7 -->
      <g transform="translate(20.878125 65.364894) scale(0.1 -0.1)">
       <defs>
        <path id="DejaVuSans-37" d="M 525 4666 
L 3525 4666 
L 3525 4397 
L 1831 0 
L 1172 0 
L 2766 4134 
L 525 4134 
L 525 4666 
z
" transform="scale(0.015625)"/>
       </defs>
       <use xlink:href="#DejaVuSans-37"/>
      </g>
     </g>
    </g>
    <g id="ytick_22">
     <g id="line2d_43">
      <g>
       <use xlink:href="#mcebef4c4f4" x="34.240625" y="29.156468" style="stroke: #000000; stroke-width: 0.8"/>
      </g>
     </g>
     <g id="text_32">
      <!-- 8 -->
      <g transform="translate(20.878125 32.955686) scale(0.1 -0.1)">
       <use xlink:href="#DejaVuSans-38"/>
      </g>
     </g>
    </g>
    <g id="text_33">
     <!-- Strom in A -->
     <g transform="translate(14.798438 181.537406) rotate(-90) scale(0.1 -0.1)">
      <defs>
       <path id="DejaVuSans-6f" d="M 1959 3097 
Q 1497 3097 1228 2736 
Q 959 2375 959 1747 
Q 959 1119 1226 758 
Q 1494 397 1959 397 
Q 2419 397 2687 759 
Q 2956 1122 2956 1747 
Q 2956 2369 2687 2733 
Q 2419 3097 1959 3097 
z
M 1959 3584 
Q 2709 3584 3137 3096 
Q 3566 2609 3566 1747 
Q 3566 888 3137 398 
Q 2709 -91 1959 -91 
Q 1206 -91 779 398 
Q 353 888 353 1747 
Q 353 2609 779 3096 
Q 1206 3584 1959 3584 
z
" transform="scale(0.015625)"/>
      </defs>
      <use xlink:href="#DejaVuSans-53"/>
      <use xlink:href="#DejaVuSans-74" x="63.476562"/>
      <use xlink:href="#DejaVuSans-72" x="102.685547"/>
      <use xlink:href="#DejaVuSans-6f" x="141.548828"/>
      <use xlink:href="#DejaVuSans-6d" x="202.730469"/>
      <use xlink:href="#DejaVuSans-20" x="300.142578"/>
      <use xlink:href="#DejaVuSans-69" x="331.929688"/>
      <use xlink:href="#DejaVuSans-6e" x="359.712891"/>
      <use xlink:href="#DejaVuSans-20" x="423.091797"/>
      <use xlink:href="#DejaVuSans-41" x="454.878906"/>
     </g>
    </g>
   </g>
   <g id="line2d_44">
    <path d="M 83.951729 288.430125 
L 55.367844 291.671046 
L 59.510436 287.133757 
L 63.653028 289.078309 
L 67.79562 285.837388 
L 71.938212 286.485573 
L 76.080804 287.133757 
L 80.223396 287.781941 
L 84.365988 286.485573 
L 88.50858 287.781941 
L 92.651172 285.837388 
L 96.793764 245.001787 
L 101.350615 98.983578 
L 105.493207 54.435649 
L 109.635799 49.89836 
L 113.778391 42.120151 
L 117.920983 36.286493 
L 122.063575 40.175598 
L 126.206167 34.990125 
L 130.348759 42.120151 
L 134.491351 42.120151 
L 138.633943 46.009255 
L 142.776535 46.009255 
L 147.333387 42.41478 
L 151.475979 47.953808 
L 155.618571 47.953808 
L 159.761163 48.601992 
L 163.903755 47.953808 
L 168.046347 47.953808 
L 172.188939 50.546544 
L 176.331531 47.953808 
L 180.474123 46.009255 
L 184.616715 41.471966 
L 188.759307 44.064703 
L 193.316158 40.647005 
L 197.45875 46.009255 
L 201.601342 41.471966 
L 205.743934 47.305624 
L 209.886526 43.416519 
L 214.029118 47.305624 
L 218.17171 46.65744 
L 222.314302 49.250176 
L 226.456894 53.787465 
L 230.599486 88.141225 
L 234.742078 112.124038 
L 239.298929 141.999434 
L 243.441521 163.330585 
L 247.584113 188.609767 
L 251.726705 206.758923 
L 255.869297 219.074422 
L 260.011889 231.38992 
L 264.154481 235.279025 
L 268.297073 242.409051 
L 272.439665 242.409051 
L 276.582257 244.353603 
L 280.724849 245.001787 
L 285.2817 249.244447 
L 289.424292 252.131813 
L 293.566884 254.076365 
L 297.709476 254.72455 
L 301.852068 256.669102 
L 305.99466 258.613654 
L 310.137252 259.261839 
L 314.279844 263.799128 
L 318.422436 263.150943 
L 322.565028 263.799128 
L 326.70762 261.854575 
L 331.264471 269.27923 
L 335.407063 265.74368 
L 339.549655 254.076365 
L 343.692247 266.391864 
L 347.834839 274.818258 
L 351.977431 272.225521 
L 356.120023 266.391864 
L 360.262615 270.929153 
L 364.405207 275.466442 
L 368.547799 274.170074 
L 372.690391 267.040048 
L 377.247243 268.689972 
L 381.389835 274.170074 
L 385.532427 274.818258 
L 389.675019 270.280969 
L 393.817611 270.280969 
L 397.960203 271.577337 
L 402.102795 273.52189 
L 406.245387 269.632785 
L 410.387979 267.688232 
L 414.530571 274.818258 
L 418.673163 273.52189 
L 423.230014 266.332938 
L 427.372606 271.577337 
L 431.515198 274.818258 
L 435.65779 268.984601 
L 439.800382 265.74368 
L 443.942974 271.577337 
L 448.085566 273.52189 
L 452.228158 268.984601 
L 456.37075 259.910023 
L 460.513342 259.261839 
L 464.655934 274.818258 
L 469.212785 274.582555 
" clip-path="url(#p4fa98ab749)" style="fill: none; stroke: #00008b; stroke-width: 1.5; stroke-linecap: square"/>
   </g>
   <g id="line2d_45">
    <path d="M 83.951729 288.430125 
L 55.367844 278.707363 
L 59.510436 285.837388 
L 63.653028 284.54102 
L 67.79562 285.837388 
L 71.938212 285.837388 
L 76.080804 285.837388 
L 80.223396 285.837388 
L 84.365988 287.133757 
L 88.50858 285.837388 
L 92.651172 286.485573 
L 96.793764 284.54102 
L 101.350615 284.010688 
L 105.493207 286.485573 
L 109.635799 284.54102 
L 113.778391 285.189204 
L 117.920983 284.54102 
L 122.063575 284.54102 
L 126.206167 285.189204 
L 130.348759 230.093552 
L 134.491351 90.085777 
L 138.633943 53.787465 
L 142.776535 49.89836 
L 147.333387 37.700713 
L 151.475979 38.87923 
L 155.618571 36.286493 
L 159.761163 36.934677 
L 163.903755 40.175598 
L 168.046347 42.768335 
L 172.188939 43.416519 
L 176.331531 46.65744 
L 180.474123 44.712887 
L 184.616715 47.305624 
L 188.759307 46.009255 
L 193.316158 48.896621 
L 197.45875 49.250176 
L 201.601342 46.65744 
L 205.743934 47.953808 
L 209.886526 49.250176 
L 214.029118 44.712887 
L 218.17171 42.120151 
L 222.314302 41.471966 
L 226.456894 41.471966 
L 230.599486 44.064703 
L 234.742078 42.120151 
L 239.298929 44.771813 
L 243.441521 46.009255 
L 247.584113 45.361071 
L 251.726705 46.65744 
L 255.869297 47.953808 
L 260.011889 66.751148 
L 264.154481 93.326698 
L 268.297073 125.735905 
L 272.439665 148.42235 
L 276.582257 169.812427 
L 280.724849 194.443424 
L 285.2817 208.585624 
L 289.424292 222.963527 
L 293.566884 233.334473 
L 297.709476 237.223578 
L 301.852068 242.409051 
L 305.99466 242.409051 
L 310.137252 243.705419 
L 314.279844 244.353603 
L 318.422436 246.94634 
L 322.565028 249.539076 
L 326.70762 254.076365 
L 331.264471 253.369255 
L 335.407063 256.020918 
L 339.549655 258.613654 
L 343.692247 259.910023 
L 347.834839 261.854575 
L 351.977431 261.206391 
L 356.120023 267.040048 
L 360.262615 262.502759 
L 364.405207 262.502759 
L 368.547799 268.984601 
L 372.690391 268.336417 
L 377.247243 246.887414 
L 381.389835 239.816314 
L 385.532427 278.059179 
L 389.675019 272.225521 
L 393.817611 273.52189 
L 397.960203 272.225521 
L 402.102795 274.170074 
L 406.245387 274.170074 
L 410.387979 272.873706 
L 414.530571 272.225521 
L 418.673163 268.984601 
L 423.230014 271.636263 
L 427.372606 274.170074 
L 431.515198 272.873706 
L 435.65779 268.336417 
L 439.800382 267.688232 
L 443.942974 274.818258 
L 448.085566 270.929153 
L 452.228158 269.632785 
L 456.37075 269.632785 
L 460.513342 270.280969 
L 464.655934 271.577337 
L 469.212785 268.689972 
" clip-path="url(#p4fa98ab749)" style="fill: none; stroke: #1e90ff; stroke-width: 1.5; stroke-linecap: square"/>
   </g>
   <g id="patch_11">
    <path d="M 34.240625 288.430125 
L 34.240625 22.318125 
" style="fill: none; stroke: #000000; stroke-width: 0.8; stroke-linejoin: miter; stroke-linecap: square"/>
   </g>
   <g id="patch_12">
    <path d="M 498.210929 288.430125 
L 498.210929 22.318125 
" style="fill: none; stroke: #000000; stroke-width: 0.8; stroke-linejoin: miter; stroke-linecap: square"/>
   </g>
   <g id="patch_13">
    <path d="M 83.951729 288.430125 
L 498.210929 288.430125 
" style="fill: none; stroke: #000000; stroke-width: 0.8; stroke-linejoin: miter; stroke-linecap: square"/>
   </g>
   <g id="patch_14">
    <path d="M 83.951729 22.318125 
L 498.210929 22.318125 
" style="fill: none; stroke: #000000; stroke-width: 0.8; stroke-linejoin: miter; stroke-linecap: square"/>
   </g>
  </g>
  <g id="legend_1">
   <g id="patch_15">
    <path d="M 398.834929 244.714875 
L 490.898992 244.714875 
Q 492.898992 244.714875 492.898992 242.714875 
L 492.898992 155.646125 
Q 492.898992 153.646125 490.898992 153.646125 
L 398.834929 153.646125 
Q 396.834929 153.646125 396.834929 155.646125 
L 396.834929 242.714875 
Q 396.834929 244.714875 398.834929 244.714875 
z
" style="fill: #ffffff; opacity: 0.8; stroke: #cccccc; stroke-linejoin: miter"/>
   </g>
   <g id="line2d_46">
    <path d="M 400.834929 161.744562 
L 410.834929 161.744562 
L 420.834929 161.744562 
" style="fill: none; stroke: #006400; stroke-width: 1.5; stroke-linecap: square"/>
   </g>
   <g id="text_34">
    <!-- Spannung 1 -->
    <g transform="translate(428.834929 165.244562) scale(0.1 -0.1)">
     <use xlink:href="#DejaVuSans-53"/>
     <use xlink:href="#DejaVuSans-70" x="63.476562"/>
     <use xlink:href="#DejaVuSans-61" x="126.953125"/>
     <use xlink:href="#DejaVuSans-6e" x="188.232422"/>
     <use xlink:href="#DejaVuSans-6e" x="251.611328"/>
     <use xlink:href="#DejaVuSans-75" x="314.990234"/>
     <use xlink:href="#DejaVuSans-6e" x="378.369141"/>
     <use xlink:href="#DejaVuSans-67" x="441.748047"/>
     <use xlink:href="#DejaVuSans-20" x="505.224609"/>
     <use xlink:href="#DejaVuSans-31" x="537.011719"/>
    </g>
   </g>
   <g id="line2d_47">
    <path d="M 400.834929 176.422687 
L 410.834929 176.422687 
L 420.834929 176.422687 
" style="fill: none; stroke: #00ff00; stroke-width: 1.5; stroke-linecap: square"/>
   </g>
   <g id="text_35">
    <!-- Spannung 2 -->
    <g transform="translate(428.834929 179.922687) scale(0.1 -0.1)">
     <use xlink:href="#DejaVuSans-53"/>
     <use xlink:href="#DejaVuSans-70" x="63.476562"/>
     <use xlink:href="#DejaVuSans-61" x="126.953125"/>
     <use xlink:href="#DejaVuSans-6e" x="188.232422"/>
     <use xlink:href="#DejaVuSans-6e" x="251.611328"/>
     <use xlink:href="#DejaVuSans-75" x="314.990234"/>
     <use xlink:href="#DejaVuSans-6e" x="378.369141"/>
     <use xlink:href="#DejaVuSans-67" x="441.748047"/>
     <use xlink:href="#DejaVuSans-20" x="505.224609"/>
     <use xlink:href="#DejaVuSans-32" x="537.011719"/>
    </g>
   </g>
   <g id="line2d_48">
    <path d="M 400.834929 191.100812 
L 410.834929 191.100812 
L 420.834929 191.100812 
" style="fill: none; stroke: #ff8c00; stroke-width: 1.5; stroke-linecap: square"/>
   </g>
   <g id="text_36">
    <!-- Drehzahl 1 -->
    <g transform="translate(428.834929 194.600812) scale(0.1 -0.1)">
     <use xlink:href="#DejaVuSans-44"/>
     <use xlink:href="#DejaVuSans-72" x="77.001953"/>
     <use xlink:href="#DejaVuSans-65" x="115.865234"/>
     <use xlink:href="#DejaVuSans-68" x="177.388672"/>
     <use xlink:href="#DejaVuSans-7a" x="240.767578"/>
     <use xlink:href="#DejaVuSans-61" x="293.257812"/>
     <use xlink:href="#DejaVuSans-68" x="354.537109"/>
     <use xlink:href="#DejaVuSans-6c" x="417.916016"/>
     <use xlink:href="#DejaVuSans-20" x="445.699219"/>
     <use xlink:href="#DejaVuSans-31" x="477.486328"/>
    </g>
   </g>
   <g id="line2d_49">
    <path d="M 400.834929 205.778937 
L 410.834929 205.778937 
L 420.834929 205.778937 
" style="fill: none; stroke: #ffd700; stroke-width: 1.5; stroke-linecap: square"/>
   </g>
   <g id="text_37">
    <!-- Drehzahl 2 -->
    <g transform="translate(428.834929 209.278937) scale(0.1 -0.1)">
     <use xlink:href="#DejaVuSans-44"/>
     <use xlink:href="#DejaVuSans-72" x="77.001953"/>
     <use xlink:href="#DejaVuSans-65" x="115.865234"/>
     <use xlink:href="#DejaVuSans-68" x="177.388672"/>
     <use xlink:href="#DejaVuSans-7a" x="240.767578"/>
     <use xlink:href="#DejaVuSans-61" x="293.257812"/>
     <use xlink:href="#DejaVuSans-68" x="354.537109"/>
     <use xlink:href="#DejaVuSans-6c" x="417.916016"/>
     <use xlink:href="#DejaVuSans-20" x="445.699219"/>
     <use xlink:href="#DejaVuSans-32" x="477.486328"/>
    </g>
   </g>
   <g id="line2d_50">
    <path d="M 400.834929 220.457062 
L 410.834929 220.457062 
L 420.834929 220.457062 
" style="fill: none; stroke: #00008b; stroke-width: 1.5; stroke-linecap: square"/>
   </g>
   <g id="text_38">
    <!-- Strom 1 -->
    <g transform="translate(428.834929 223.957062) scale(0.1 -0.1)">
     <use xlink:href="#DejaVuSans-53"/>
     <use xlink:href="#DejaVuSans-74" x="63.476562"/>
     <use xlink:href="#DejaVuSans-72" x="102.685547"/>
     <use xlink:href="#DejaVuSans-6f" x="141.548828"/>
     <use xlink:href="#DejaVuSans-6d" x="202.730469"/>
     <use xlink:href="#DejaVuSans-20" x="300.142578"/>
     <use xlink:href="#DejaVuSans-31" x="331.929688"/>
    </g>
   </g>
   <g id="line2d_51">
    <path d="M 400.834929 235.135187 
L 410.834929 235.135187 
L 420.834929 235.135187 
" style="fill: none; stroke: #1e90ff; stroke-width: 1.5; stroke-linecap: square"/>
   </g>
   <g id="text_39">
    <!-- Strom 2 -->
    <g transform="translate(428.834929 238.635187) scale(0.1 -0.1)">
     <use xlink:href="#DejaVuSans-53"/>
     <use xlink:href="#DejaVuSans-74" x="63.476562"/>
     <use xlink:href="#DejaVuSans-72" x="102.685547"/>
     <use xlink:href="#DejaVuSans-6f" x="141.548828"/>
     <use xlink:href="#DejaVuSans-6d" x="202.730469"/>
     <use xlink:href="#DejaVuSans-20" x="300.142578"/>
     <use xlink:href="#DejaVuSans-32" x="331.929688"/>
    </g>
   </g>
  </g>
 </g>
 <defs>
  <clipPath id="p4fa98ab749">
   <rect x="83.951729" y="22.318125" width="414.2592" height="266.112"/>
  </clipPath>
 </defs>
</svg>
