<?xml version="1.0" encoding="utf-8" standalone="no"?>
<!DOCTYPE svg PUBLIC "-//W3C//DTD SVG 1.1//EN"
  "http://www.w3.org/Graphics/SVG/1.1/DTD/svg11.dtd">
<svg xmlns:xlink="http://www.w3.org/1999/xlink" width="626.402934pt" height="325.986375pt" viewBox="0 0 626.402934 325.986375" xmlns="http://www.w3.org/2000/svg" version="1.1">
 <metadata>
  <rdf:RDF xmlns:dc="http://purl.org/dc/elements/1.1/" xmlns:cc="http://creativecommons.org/ns#" xmlns:rdf="http://www.w3.org/1999/02/22-rdf-syntax-ns#">
   <cc:Work>
    <dc:type rdf:resource="http://purl.org/dc/dcmitype/StillImage"/>
    <dc:date>2024-11-30T08:27:07.161961</dc:date>
    <dc:format>image/svg+xml</dc:format>
    <dc:creator>
     <cc:Agent>
      <dc:title>Matplotlib v3.6.2, https://matplotlib.org/</dc:title>
     </cc:Agent>
    </dc:creator>
   </cc:Work>
  </rdf:RDF>
 </metadata>
 <defs>
  <style type="text/css">*{stroke-linejoin: round; stroke-linecap: butt}</style>
 </defs>
 <g id="figure_1">
  <g id="patch_1">
   <path d="M 0 325.986375 
L 626.402934 325.986375 
L 626.402934 0 
L 0 0 
z
" style="fill: #ffffff"/>
  </g>
  <g id="axes_1">
   <g id="patch_2">
    <path d="M 103.039229 288.430125 
L 517.298429 288.430125 
L 517.298429 22.318125 
L 103.039229 22.318125 
z
" style="fill: #ffffff"/>
   </g>
   <g id="matplotlib.axis_1">
    <g id="xtick_1">
     <g id="line2d_1">
      <path d="M 103.039229 288.430125 
L 103.039229 22.318125 
" clip-path="url(#p7f7bc9a6b2)" style="fill: none; stroke: #b0b0b0; stroke-opacity: 0.5; stroke-width: 0.8; stroke-linecap: square"/>
     </g>
     <g id="line2d_2">
      <defs>
       <path id="m1fde67ffaf" d="M 0 0 
L 0 3.5 
" style="stroke: #000000; stroke-width: 0.8"/>
      </defs>
      <g>
       <use xlink:href="#m1fde67ffaf" x="103.039229" y="288.430125" style="stroke: #000000; stroke-width: 0.8"/>
      </g>
     </g>
     <g id="text_1">
      <!-- 0.0 -->
      <g transform="translate(95.087667 303.028562) scale(0.1 -0.1)">
       <defs>
        <path id="DejaVuSans-30" d="M 2034 4250 
Q 1547 4250 1301 3770 
Q 1056 3291 1056 2328 
Q 1056 1369 1301 889 
Q 1547 409 2034 409 
Q 2525 409 2770 889 
Q 3016 1369 3016 2328 
Q 3016 3291 2770 3770 
Q 2525 4250 2034 4250 
z
M 2034 4750 
Q 2819 4750 3233 4129 
Q 3647 3509 3647 2328 
Q 3647 1150 3233 529 
Q 2819 -91 2034 -91 
Q 1250 -91 836 529 
Q 422 1150 422 2328 
Q 422 3509 836 4129 
Q 1250 4750 2034 4750 
z
" transform="scale(0.015625)"/>
        <path id="DejaVuSans-2e" d="M 684 794 
L 1344 794 
L 1344 0 
L 684 0 
L 684 794 
z
" transform="scale(0.015625)"/>
       </defs>
       <use xlink:href="#DejaVuSans-30"/>
       <use xlink:href="#DejaVuSans-2e" x="63.623047"/>
       <use xlink:href="#DejaVuSans-30" x="95.410156"/>
      </g>
     </g>
    </g>
    <g id="xtick_2">
     <g id="line2d_3">
      <path d="M 185.891069 288.430125 
L 185.891069 22.318125 
" clip-path="url(#p7f7bc9a6b2)" style="fill: none; stroke: #b0b0b0; stroke-opacity: 0.5; stroke-width: 0.8; stroke-linecap: square"/>
     </g>
     <g id="line2d_4">
      <g>
       <use xlink:href="#m1fde67ffaf" x="185.891069" y="288.430125" style="stroke: #000000; stroke-width: 0.8"/>
      </g>
     </g>
     <g id="text_2">
      <!-- 0.2 -->
      <g transform="translate(177.939507 303.028562) scale(0.1 -0.1)">
       <defs>
        <path id="DejaVuSans-32" d="M 1228 531 
L 3431 531 
L 3431 0 
L 469 0 
L 469 531 
Q 828 903 1448 1529 
Q 2069 2156 2228 2338 
Q 2531 2678 2651 2914 
Q 2772 3150 2772 3378 
Q 2772 3750 2511 3984 
Q 2250 4219 1831 4219 
Q 1534 4219 1204 4116 
Q 875 4013 500 3803 
L 500 4441 
Q 881 4594 1212 4672 
Q 1544 4750 1819 4750 
Q 2544 4750 2975 4387 
Q 3406 4025 3406 3419 
Q 3406 3131 3298 2873 
Q 3191 2616 2906 2266 
Q 2828 2175 2409 1742 
Q 1991 1309 1228 531 
z
" transform="scale(0.015625)"/>
       </defs>
       <use xlink:href="#DejaVuSans-30"/>
       <use xlink:href="#DejaVuSans-2e" x="63.623047"/>
       <use xlink:href="#DejaVuSans-32" x="95.410156"/>
      </g>
     </g>
    </g>
    <g id="xtick_3">
     <g id="line2d_5">
      <path d="M 268.742909 288.430125 
L 268.742909 22.318125 
" clip-path="url(#p7f7bc9a6b2)" style="fill: none; stroke: #b0b0b0; stroke-opacity: 0.5; stroke-width: 0.8; stroke-linecap: square"/>
     </g>
     <g id="line2d_6">
      <g>
       <use xlink:href="#m1fde67ffaf" x="268.742909" y="288.430125" style="stroke: #000000; stroke-width: 0.8"/>
      </g>
     </g>
     <g id="text_3">
      <!-- 0.4 -->
      <g transform="translate(260.791346 303.028562) scale(0.1 -0.1)">
       <defs>
        <path id="DejaVuSans-34" d="M 2419 4116 
L 825 1625 
L 2419 1625 
L 2419 4116 
z
M 2253 4666 
L 3047 4666 
L 3047 1625 
L 3713 1625 
L 3713 1100 
L 3047 1100 
L 3047 0 
L 2419 0 
L 2419 1100 
L 313 1100 
L 313 1709 
L 2253 4666 
z
" transform="scale(0.015625)"/>
       </defs>
       <use xlink:href="#DejaVuSans-30"/>
       <use xlink:href="#DejaVuSans-2e" x="63.623047"/>
       <use xlink:href="#DejaVuSans-34" x="95.410156"/>
      </g>
     </g>
    </g>
    <g id="xtick_4">
     <g id="line2d_7">
      <path d="M 351.594749 288.430125 
L 351.594749 22.318125 
" clip-path="url(#p7f7bc9a6b2)" style="fill: none; stroke: #b0b0b0; stroke-opacity: 0.5; stroke-width: 0.8; stroke-linecap: square"/>
     </g>
     <g id="line2d_8">
      <g>
       <use xlink:href="#m1fde67ffaf" x="351.594749" y="288.430125" style="stroke: #000000; stroke-width: 0.8"/>
      </g>
     </g>
     <g id="text_4">
      <!-- 0.6 -->
      <g transform="translate(343.643186 303.028562) scale(0.1 -0.1)">
       <defs>
        <path id="DejaVuSans-36" d="M 2113 2584 
Q 1688 2584 1439 2293 
Q 1191 2003 1191 1497 
Q 1191 994 1439 701 
Q 1688 409 2113 409 
Q 2538 409 2786 701 
Q 3034 994 3034 1497 
Q 3034 2003 2786 2293 
Q 2538 2584 2113 2584 
z
M 3366 4563 
L 3366 3988 
Q 3128 4100 2886 4159 
Q 2644 4219 2406 4219 
Q 1781 4219 1451 3797 
Q 1122 3375 1075 2522 
Q 1259 2794 1537 2939 
Q 1816 3084 2150 3084 
Q 2853 3084 3261 2657 
Q 3669 2231 3669 1497 
Q 3669 778 3244 343 
Q 2819 -91 2113 -91 
Q 1303 -91 875 529 
Q 447 1150 447 2328 
Q 447 3434 972 4092 
Q 1497 4750 2381 4750 
Q 2619 4750 2861 4703 
Q 3103 4656 3366 4563 
z
" transform="scale(0.015625)"/>
       </defs>
       <use xlink:href="#DejaVuSans-30"/>
       <use xlink:href="#DejaVuSans-2e" x="63.623047"/>
       <use xlink:href="#DejaVuSans-36" x="95.410156"/>
      </g>
     </g>
    </g>
    <g id="xtick_5">
     <g id="line2d_9">
      <path d="M 434.446589 288.430125 
L 434.446589 22.318125 
" clip-path="url(#p7f7bc9a6b2)" style="fill: none; stroke: #b0b0b0; stroke-opacity: 0.5; stroke-width: 0.8; stroke-linecap: square"/>
     </g>
     <g id="line2d_10">
      <g>
       <use xlink:href="#m1fde67ffaf" x="434.446589" y="288.430125" style="stroke: #000000; stroke-width: 0.8"/>
      </g>
     </g>
     <g id="text_5">
      <!-- 0.8 -->
      <g transform="translate(426.495026 303.028562) scale(0.1 -0.1)">
       <defs>
        <path id="DejaVuSans-38" d="M 2034 2216 
Q 1584 2216 1326 1975 
Q 1069 1734 1069 1313 
Q 1069 891 1326 650 
Q 1584 409 2034 409 
Q 2484 409 2743 651 
Q 3003 894 3003 1313 
Q 3003 1734 2745 1975 
Q 2488 2216 2034 2216 
z
M 1403 2484 
Q 997 2584 770 2862 
Q 544 3141 544 3541 
Q 544 4100 942 4425 
Q 1341 4750 2034 4750 
Q 2731 4750 3128 4425 
Q 3525 4100 3525 3541 
Q 3525 3141 3298 2862 
Q 3072 2584 2669 2484 
Q 3125 2378 3379 2068 
Q 3634 1759 3634 1313 
Q 3634 634 3220 271 
Q 2806 -91 2034 -91 
Q 1263 -91 848 271 
Q 434 634 434 1313 
Q 434 1759 690 2068 
Q 947 2378 1403 2484 
z
M 1172 3481 
Q 1172 3119 1398 2916 
Q 1625 2713 2034 2713 
Q 2441 2713 2670 2916 
Q 2900 3119 2900 3481 
Q 2900 3844 2670 4047 
Q 2441 4250 2034 4250 
Q 1625 4250 1398 4047 
Q 1172 3844 1172 3481 
z
" transform="scale(0.015625)"/>
       </defs>
       <use xlink:href="#DejaVuSans-30"/>
       <use xlink:href="#DejaVuSans-2e" x="63.623047"/>
       <use xlink:href="#DejaVuSans-38" x="95.410156"/>
      </g>
     </g>
    </g>
    <g id="xtick_6">
     <g id="line2d_11">
      <path d="M 517.298429 288.430125 
L 517.298429 22.318125 
" clip-path="url(#p7f7bc9a6b2)" style="fill: none; stroke: #b0b0b0; stroke-opacity: 0.5; stroke-width: 0.8; stroke-linecap: square"/>
     </g>
     <g id="line2d_12">
      <g>
       <use xlink:href="#m1fde67ffaf" x="517.298429" y="288.430125" style="stroke: #000000; stroke-width: 0.8"/>
      </g>
     </g>
     <g id="text_6">
      <!-- 1.0 -->
      <g transform="translate(509.346866 303.028562) scale(0.1 -0.1)">
       <defs>
        <path id="DejaVuSans-31" d="M 794 531 
L 1825 531 
L 1825 4091 
L 703 3866 
L 703 4441 
L 1819 4666 
L 2450 4666 
L 2450 531 
L 3481 531 
L 3481 0 
L 794 0 
L 794 531 
z
" transform="scale(0.015625)"/>
       </defs>
       <use xlink:href="#DejaVuSans-31"/>
       <use xlink:href="#DejaVuSans-2e" x="63.623047"/>
       <use xlink:href="#DejaVuSans-30" x="95.410156"/>
      </g>
     </g>
    </g>
    <g id="text_7">
     <!-- Zeit in s -->
     <g transform="translate(289.977423 316.706687) scale(0.1 -0.1)">
      <defs>
       <path id="DejaVuSans-5a" d="M 359 4666 
L 4025 4666 
L 4025 4184 
L 1075 531 
L 4097 531 
L 4097 0 
L 288 0 
L 288 481 
L 3238 4134 
L 359 4134 
L 359 4666 
z
" transform="scale(0.015625)"/>
       <path id="DejaVuSans-65" d="M 3597 1894 
L 3597 1613 
L 953 1613 
Q 991 1019 1311 708 
Q 1631 397 2203 397 
Q 2534 397 2845 478 
Q 3156 559 3463 722 
L 3463 178 
Q 3153 47 2828 -22 
Q 2503 -91 2169 -91 
Q 1331 -91 842 396 
Q 353 884 353 1716 
Q 353 2575 817 3079 
Q 1281 3584 2069 3584 
Q 2775 3584 3186 3129 
Q 3597 2675 3597 1894 
z
M 3022 2063 
Q 3016 2534 2758 2815 
Q 2500 3097 2075 3097 
Q 1594 3097 1305 2825 
Q 1016 2553 972 2059 
L 3022 2063 
z
" transform="scale(0.015625)"/>
       <path id="DejaVuSans-69" d="M 603 3500 
L 1178 3500 
L 1178 0 
L 603 0 
L 603 3500 
z
M 603 4863 
L 1178 4863 
L 1178 4134 
L 603 4134 
L 603 4863 
z
" transform="scale(0.015625)"/>
       <path id="DejaVuSans-74" d="M 1172 4494 
L 1172 3500 
L 2356 3500 
L 2356 3053 
L 1172 3053 
L 1172 1153 
Q 1172 725 1289 603 
Q 1406 481 1766 481 
L 2356 481 
L 2356 0 
L 1766 0 
Q 1100 0 847 248 
Q 594 497 594 1153 
L 594 3053 
L 172 3053 
L 172 3500 
L 594 3500 
L 594 4494 
L 1172 4494 
z
" transform="scale(0.015625)"/>
       <path id="DejaVuSans-20" transform="scale(0.015625)"/>
       <path id="DejaVuSans-6e" d="M 3513 2113 
L 3513 0 
L 2938 0 
L 2938 2094 
Q 2938 2591 2744 2837 
Q 2550 3084 2163 3084 
Q 1697 3084 1428 2787 
Q 1159 2491 1159 1978 
L 1159 0 
L 581 0 
L 581 3500 
L 1159 3500 
L 1159 2956 
Q 1366 3272 1645 3428 
Q 1925 3584 2291 3584 
Q 2894 3584 3203 3211 
Q 3513 2838 3513 2113 
z
" transform="scale(0.015625)"/>
       <path id="DejaVuSans-73" d="M 2834 3397 
L 2834 2853 
Q 2591 2978 2328 3040 
Q 2066 3103 1784 3103 
Q 1356 3103 1142 2972 
Q 928 2841 928 2578 
Q 928 2378 1081 2264 
Q 1234 2150 1697 2047 
L 1894 2003 
Q 2506 1872 2764 1633 
Q 3022 1394 3022 966 
Q 3022 478 2636 193 
Q 2250 -91 1575 -91 
Q 1294 -91 989 -36 
Q 684 19 347 128 
L 347 722 
Q 666 556 975 473 
Q 1284 391 1588 391 
Q 1994 391 2212 530 
Q 2431 669 2431 922 
Q 2431 1156 2273 1281 
Q 2116 1406 1581 1522 
L 1381 1569 
Q 847 1681 609 1914 
Q 372 2147 372 2553 
Q 372 3047 722 3315 
Q 1072 3584 1716 3584 
Q 2034 3584 2315 3537 
Q 2597 3491 2834 3397 
z
" transform="scale(0.015625)"/>
      </defs>
      <use xlink:href="#DejaVuSans-5a"/>
      <use xlink:href="#DejaVuSans-65" x="68.505859"/>
      <use xlink:href="#DejaVuSans-69" x="130.029297"/>
      <use xlink:href="#DejaVuSans-74" x="157.8125"/>
      <use xlink:href="#DejaVuSans-20" x="197.021484"/>
      <use xlink:href="#DejaVuSans-69" x="228.808594"/>
      <use xlink:href="#DejaVuSans-6e" x="256.591797"/>
      <use xlink:href="#DejaVuSans-20" x="319.970703"/>
      <use xlink:href="#DejaVuSans-73" x="351.757812"/>
     </g>
    </g>
   </g>
   <g id="matplotlib.axis_2">
    <g id="ytick_1">
     <g id="line2d_13">
      <path d="M 103.039229 288.430125 
L 517.298429 288.430125 
" clip-path="url(#p7f7bc9a6b2)" style="fill: none; stroke: #b0b0b0; stroke-opacity: 0.5; stroke-width: 0.8; stroke-linecap: square"/>
     </g>
     <g id="line2d_14">
      <defs>
       <path id="m0bf20a4e34" d="M 0 0 
L -3.5 0 
" style="stroke: #000000; stroke-width: 0.8"/>
      </defs>
      <g>
       <use xlink:href="#m0bf20a4e34" x="103.039229" y="288.430125" style="stroke: #000000; stroke-width: 0.8"/>
      </g>
     </g>
     <g id="text_8">
      <!-- 0 -->
      <g transform="translate(89.676729 292.229344) scale(0.1 -0.1)">
       <use xlink:href="#DejaVuSans-30"/>
      </g>
     </g>
    </g>
    <g id="ytick_2">
     <g id="line2d_15">
      <path d="M 103.039229 256.020918 
L 517.298429 256.020918 
" clip-path="url(#p7f7bc9a6b2)" style="fill: none; stroke: #b0b0b0; stroke-opacity: 0.5; stroke-width: 0.8; stroke-linecap: square"/>
     </g>
     <g id="line2d_16">
      <g>
       <use xlink:href="#m0bf20a4e34" x="103.039229" y="256.020918" style="stroke: #000000; stroke-width: 0.8"/>
      </g>
     </g>
     <g id="text_9">
      <!-- 1 -->
      <g transform="translate(89.676729 259.820137) scale(0.1 -0.1)">
       <use xlink:href="#DejaVuSans-31"/>
      </g>
     </g>
    </g>
    <g id="ytick_3">
     <g id="line2d_17">
      <path d="M 103.039229 223.611711 
L 517.298429 223.611711 
" clip-path="url(#p7f7bc9a6b2)" style="fill: none; stroke: #b0b0b0; stroke-opacity: 0.5; stroke-width: 0.8; stroke-linecap: square"/>
     </g>
     <g id="line2d_18">
      <g>
       <use xlink:href="#m0bf20a4e34" x="103.039229" y="223.611711" style="stroke: #000000; stroke-width: 0.8"/>
      </g>
     </g>
     <g id="text_10">
      <!-- 2 -->
      <g transform="translate(89.676729 227.410929) scale(0.1 -0.1)">
       <use xlink:href="#DejaVuSans-32"/>
      </g>
     </g>
    </g>
    <g id="ytick_4">
     <g id="line2d_19">
      <path d="M 103.039229 191.202504 
L 517.298429 191.202504 
" clip-path="url(#p7f7bc9a6b2)" style="fill: none; stroke: #b0b0b0; stroke-opacity: 0.5; stroke-width: 0.8; stroke-linecap: square"/>
     </g>
     <g id="line2d_20">
      <g>
       <use xlink:href="#m0bf20a4e34" x="103.039229" y="191.202504" style="stroke: #000000; stroke-width: 0.8"/>
      </g>
     </g>
     <g id="text_11">
      <!-- 3 -->
      <g transform="translate(89.676729 195.001722) scale(0.1 -0.1)">
       <defs>
        <path id="DejaVuSans-33" d="M 2597 2516 
Q 3050 2419 3304 2112 
Q 3559 1806 3559 1356 
Q 3559 666 3084 287 
Q 2609 -91 1734 -91 
Q 1441 -91 1130 -33 
Q 819 25 488 141 
L 488 750 
Q 750 597 1062 519 
Q 1375 441 1716 441 
Q 2309 441 2620 675 
Q 2931 909 2931 1356 
Q 2931 1769 2642 2001 
Q 2353 2234 1838 2234 
L 1294 2234 
L 1294 2753 
L 1863 2753 
Q 2328 2753 2575 2939 
Q 2822 3125 2822 3475 
Q 2822 3834 2567 4026 
Q 2313 4219 1838 4219 
Q 1578 4219 1281 4162 
Q 984 4106 628 3988 
L 628 4550 
Q 988 4650 1302 4700 
Q 1616 4750 1894 4750 
Q 2613 4750 3031 4423 
Q 3450 4097 3450 3541 
Q 3450 3153 3228 2886 
Q 3006 2619 2597 2516 
z
" transform="scale(0.015625)"/>
       </defs>
       <use xlink:href="#DejaVuSans-33"/>
      </g>
     </g>
    </g>
    <g id="ytick_5">
     <g id="line2d_21">
      <path d="M 103.039229 158.793296 
L 517.298429 158.793296 
" clip-path="url(#p7f7bc9a6b2)" style="fill: none; stroke: #b0b0b0; stroke-opacity: 0.5; stroke-width: 0.8; stroke-linecap: square"/>
     </g>
     <g id="line2d_22">
      <g>
       <use xlink:href="#m0bf20a4e34" x="103.039229" y="158.793296" style="stroke: #000000; stroke-width: 0.8"/>
      </g>
     </g>
     <g id="text_12">
      <!-- 4 -->
      <g transform="translate(89.676729 162.592515) scale(0.1 -0.1)">
       <use xlink:href="#DejaVuSans-34"/>
      </g>
     </g>
    </g>
    <g id="ytick_6">
     <g id="line2d_23">
      <path d="M 103.039229 126.384089 
L 517.298429 126.384089 
" clip-path="url(#p7f7bc9a6b2)" style="fill: none; stroke: #b0b0b0; stroke-opacity: 0.5; stroke-width: 0.8; stroke-linecap: square"/>
     </g>
     <g id="line2d_24">
      <g>
       <use xlink:href="#m0bf20a4e34" x="103.039229" y="126.384089" style="stroke: #000000; stroke-width: 0.8"/>
      </g>
     </g>
     <g id="text_13">
      <!-- 5 -->
      <g transform="translate(89.676729 130.183308) scale(0.1 -0.1)">
       <defs>
        <path id="DejaVuSans-35" d="M 691 4666 
L 3169 4666 
L 3169 4134 
L 1269 4134 
L 1269 2991 
Q 1406 3038 1543 3061 
Q 1681 3084 1819 3084 
Q 2600 3084 3056 2656 
Q 3513 2228 3513 1497 
Q 3513 744 3044 326 
Q 2575 -91 1722 -91 
Q 1428 -91 1123 -41 
Q 819 9 494 109 
L 494 744 
Q 775 591 1075 516 
Q 1375 441 1709 441 
Q 2250 441 2565 725 
Q 2881 1009 2881 1497 
Q 2881 1984 2565 2268 
Q 2250 2553 1709 2553 
Q 1456 2553 1204 2497 
Q 953 2441 691 2322 
L 691 4666 
z
" transform="scale(0.015625)"/>
       </defs>
       <use xlink:href="#DejaVuSans-35"/>
      </g>
     </g>
    </g>
    <g id="ytick_7">
     <g id="line2d_25">
      <path d="M 103.039229 93.974882 
L 517.298429 93.974882 
" clip-path="url(#p7f7bc9a6b2)" style="fill: none; stroke: #b0b0b0; stroke-opacity: 0.5; stroke-width: 0.8; stroke-linecap: square"/>
     </g>
     <g id="line2d_26">
      <g>
       <use xlink:href="#m0bf20a4e34" x="103.039229" y="93.974882" style="stroke: #000000; stroke-width: 0.8"/>
      </g>
     </g>
     <g id="text_14">
      <!-- 6 -->
      <g transform="translate(89.676729 97.774101) scale(0.1 -0.1)">
       <use xlink:href="#DejaVuSans-36"/>
      </g>
     </g>
    </g>
    <g id="ytick_8">
     <g id="line2d_27">
      <path d="M 103.039229 61.565675 
L 517.298429 61.565675 
" clip-path="url(#p7f7bc9a6b2)" style="fill: none; stroke: #b0b0b0; stroke-opacity: 0.5; stroke-width: 0.8; stroke-linecap: square"/>
     </g>
     <g id="line2d_28">
      <g>
       <use xlink:href="#m0bf20a4e34" x="103.039229" y="61.565675" style="stroke: #000000; stroke-width: 0.8"/>
      </g>
     </g>
     <g id="text_15">
      <!-- 7 -->
      <g transform="translate(89.676729 65.364894) scale(0.1 -0.1)">
       <defs>
        <path id="DejaVuSans-37" d="M 525 4666 
L 3525 4666 
L 3525 4397 
L 1831 0 
L 1172 0 
L 2766 4134 
L 525 4134 
L 525 4666 
z
" transform="scale(0.015625)"/>
       </defs>
       <use xlink:href="#DejaVuSans-37"/>
      </g>
     </g>
    </g>
    <g id="ytick_9">
     <g id="line2d_29">
      <path d="M 103.039229 29.156468 
L 517.298429 29.156468 
" clip-path="url(#p7f7bc9a6b2)" style="fill: none; stroke: #b0b0b0; stroke-opacity: 0.5; stroke-width: 0.8; stroke-linecap: square"/>
     </g>
     <g id="line2d_30">
      <g>
       <use xlink:href="#m0bf20a4e34" x="103.039229" y="29.156468" style="stroke: #000000; stroke-width: 0.8"/>
      </g>
     </g>
     <g id="text_16">
      <!-- 8 -->
      <g transform="translate(89.676729 32.955686) scale(0.1 -0.1)">
       <use xlink:href="#DejaVuSans-38"/>
      </g>
     </g>
    </g>
    <g id="text_17">
     <!-- Strom in A -->
     <g transform="translate(83.597042 181.537406) rotate(-90) scale(0.1 -0.1)">
      <defs>
       <path id="DejaVuSans-53" d="M 3425 4513 
L 3425 3897 
Q 3066 4069 2747 4153 
Q 2428 4238 2131 4238 
Q 1616 4238 1336 4038 
Q 1056 3838 1056 3469 
Q 1056 3159 1242 3001 
Q 1428 2844 1947 2747 
L 2328 2669 
Q 3034 2534 3370 2195 
Q 3706 1856 3706 1288 
Q 3706 609 3251 259 
Q 2797 -91 1919 -91 
Q 1588 -91 1214 -16 
Q 841 59 441 206 
L 441 856 
Q 825 641 1194 531 
Q 1563 422 1919 422 
Q 2459 422 2753 634 
Q 3047 847 3047 1241 
Q 3047 1584 2836 1778 
Q 2625 1972 2144 2069 
L 1759 2144 
Q 1053 2284 737 2584 
Q 422 2884 422 3419 
Q 422 4038 858 4394 
Q 1294 4750 2059 4750 
Q 2388 4750 2728 4690 
Q 3069 4631 3425 4513 
z
" transform="scale(0.015625)"/>
       <path id="DejaVuSans-72" d="M 2631 2963 
Q 2534 3019 2420 3045 
Q 2306 3072 2169 3072 
Q 1681 3072 1420 2755 
Q 1159 2438 1159 1844 
L 1159 0 
L 581 0 
L 581 3500 
L 1159 3500 
L 1159 2956 
Q 1341 3275 1631 3429 
Q 1922 3584 2338 3584 
Q 2397 3584 2469 3576 
Q 2541 3569 2628 3553 
L 2631 2963 
z
" transform="scale(0.015625)"/>
       <path id="DejaVuSans-6f" d="M 1959 3097 
Q 1497 3097 1228 2736 
Q 959 2375 959 1747 
Q 959 1119 1226 758 
Q 1494 397 1959 397 
Q 2419 397 2687 759 
Q 2956 1122 2956 1747 
Q 2956 2369 2687 2733 
Q 2419 3097 1959 3097 
z
M 1959 3584 
Q 2709 3584 3137 3096 
Q 3566 2609 3566 1747 
Q 3566 888 3137 398 
Q 2709 -91 1959 -91 
Q 1206 -91 779 398 
Q 353 888 353 1747 
Q 353 2609 779 3096 
Q 1206 3584 1959 3584 
z
" transform="scale(0.015625)"/>
       <path id="DejaVuSans-6d" d="M 3328 2828 
Q 3544 3216 3844 3400 
Q 4144 3584 4550 3584 
Q 5097 3584 5394 3201 
Q 5691 2819 5691 2113 
L 5691 0 
L 5113 0 
L 5113 2094 
Q 5113 2597 4934 2840 
Q 4756 3084 4391 3084 
Q 3944 3084 3684 2787 
Q 3425 2491 3425 1978 
L 3425 0 
L 2847 0 
L 2847 2094 
Q 2847 2600 2669 2842 
Q 2491 3084 2119 3084 
Q 1678 3084 1418 2786 
Q 1159 2488 1159 1978 
L 1159 0 
L 581 0 
L 581 3500 
L 1159 3500 
L 1159 2956 
Q 1356 3278 1631 3431 
Q 1906 3584 2284 3584 
Q 2666 3584 2933 3390 
Q 3200 3197 3328 2828 
z
" transform="scale(0.015625)"/>
       <path id="DejaVuSans-41" d="M 2188 4044 
L 1331 1722 
L 3047 1722 
L 2188 4044 
z
M 1831 4666 
L 2547 4666 
L 4325 0 
L 3669 0 
L 3244 1197 
L 1141 1197 
L 716 0 
L 50 0 
L 1831 4666 
z
" transform="scale(0.015625)"/>
      </defs>
      <use xlink:href="#DejaVuSans-53"/>
      <use xlink:href="#DejaVuSans-74" x="63.476562"/>
      <use xlink:href="#DejaVuSans-72" x="102.685547"/>
      <use xlink:href="#DejaVuSans-6f" x="141.548828"/>
      <use xlink:href="#DejaVuSans-6d" x="202.730469"/>
      <use xlink:href="#DejaVuSans-20" x="300.142578"/>
      <use xlink:href="#DejaVuSans-69" x="331.929688"/>
      <use xlink:href="#DejaVuSans-6e" x="359.712891"/>
      <use xlink:href="#DejaVuSans-20" x="423.091797"/>
      <use xlink:href="#DejaVuSans-41" x="454.878906"/>
     </g>
    </g>
   </g>
   <g id="line2d_31">
    <path d="M 103.039229 288.430125 
L 74.455344 291.671046 
L 78.597936 287.133757 
L 82.740528 289.078309 
L 86.88312 285.837388 
L 91.025712 286.485573 
L 95.168304 287.133757 
L 99.310896 287.781941 
L 103.453488 286.485573 
L 107.59608 287.781941 
L 111.738672 285.837388 
L 115.881264 245.001787 
L 120.438115 98.983578 
L 124.580707 54.435649 
L 128.723299 49.89836 
L 132.865891 42.120151 
L 137.008483 36.286493 
L 141.151075 40.175598 
L 145.293667 34.990125 
L 149.436259 42.120151 
L 153.578851 42.120151 
L 157.721443 46.009255 
L 161.864035 46.009255 
L 166.420887 42.41478 
L 170.563479 47.953808 
L 174.706071 47.953808 
L 178.848663 48.601992 
L 182.991255 47.953808 
L 187.133847 47.953808 
L 191.276439 50.546544 
L 195.419031 47.953808 
L 199.561623 46.009255 
L 203.704215 41.471966 
L 207.846807 44.064703 
L 212.403658 40.647005 
L 216.54625 46.009255 
L 220.688842 41.471966 
L 224.831434 47.305624 
L 228.974026 43.416519 
L 233.116618 47.305624 
L 237.25921 46.65744 
L 241.401802 49.250176 
L 245.544394 53.787465 
L 249.686986 88.141225 
L 253.829578 112.124038 
L 258.386429 141.999434 
L 262.529021 163.330585 
L 266.671613 188.609767 
L 270.814205 206.758923 
L 274.956797 219.074422 
L 279.099389 231.38992 
L 283.241981 235.279025 
L 287.384573 242.409051 
L 291.527165 242.409051 
L 295.669757 244.353603 
L 299.812349 245.001787 
L 304.3692 249.244447 
L 308.511792 252.131813 
L 312.654384 254.076365 
L 316.796976 254.72455 
L 320.939568 256.669102 
L 325.08216 258.613654 
L 329.224752 259.261839 
L 333.367344 263.799128 
L 337.509936 263.150943 
L 341.652528 263.799128 
L 345.79512 261.854575 
L 350.351971 269.27923 
L 354.494563 265.74368 
L 358.637155 254.076365 
L 362.779747 266.391864 
L 366.922339 274.818258 
L 371.064931 272.225521 
L 375.207523 266.391864 
L 379.350115 270.929153 
L 383.492707 275.466442 
L 387.635299 274.170074 
L 391.777891 267.040048 
L 396.334743 268.689972 
L 400.477335 274.170074 
L 404.619927 274.818258 
L 408.762519 270.280969 
L 412.905111 270.280969 
L 417.047703 271.577337 
L 421.190295 273.52189 
L 425.332887 269.632785 
L 429.475479 267.688232 
L 433.618071 274.818258 
L 437.760663 273.52189 
L 442.317514 266.332938 
L 446.460106 271.577337 
L 450.602698 274.818258 
L 454.74529 268.984601 
L 458.887882 265.74368 
L 463.030474 271.577337 
L 467.173066 273.52189 
L 471.315658 268.984601 
L 475.45825 259.910023 
L 479.600842 259.261839 
L 483.743434 274.818258 
L 488.300285 274.582555 
" clip-path="url(#p7f7bc9a6b2)" style="fill: none; stroke: #00008b; stroke-width: 1.5; stroke-linecap: square"/>
   </g>
   <g id="line2d_32">
    <path d="M 103.039229 288.430125 
L 74.455344 278.707363 
L 78.597936 285.837388 
L 82.740528 284.54102 
L 86.88312 285.837388 
L 91.025712 285.837388 
L 95.168304 285.837388 
L 99.310896 285.837388 
L 103.453488 287.133757 
L 107.59608 285.837388 
L 111.738672 286.485573 
L 115.881264 284.54102 
L 120.438115 284.010688 
L 124.580707 286.485573 
L 128.723299 284.54102 
L 132.865891 285.189204 
L 137.008483 284.54102 
L 141.151075 284.54102 
L 145.293667 285.189204 
L 149.436259 230.093552 
L 153.578851 90.085777 
L 157.721443 53.787465 
L 161.864035 49.89836 
L 166.420887 37.700713 
L 170.563479 38.87923 
L 174.706071 36.286493 
L 178.848663 36.934677 
L 182.991255 40.175598 
L 187.133847 42.768335 
L 191.276439 43.416519 
L 195.419031 46.65744 
L 199.561623 44.712887 
L 203.704215 47.305624 
L 207.846807 46.009255 
L 212.403658 48.896621 
L 216.54625 49.250176 
L 220.688842 46.65744 
L 224.831434 47.953808 
L 228.974026 49.250176 
L 233.116618 44.712887 
L 237.25921 42.120151 
L 241.401802 41.471966 
L 245.544394 41.471966 
L 249.686986 44.064703 
L 253.829578 42.120151 
L 258.386429 44.771813 
L 262.529021 46.009255 
L 266.671613 45.361071 
L 270.814205 46.65744 
L 274.956797 47.953808 
L 279.099389 66.751148 
L 283.241981 93.326698 
L 287.384573 125.735905 
L 291.527165 148.42235 
L 295.669757 169.812427 
L 299.812349 194.443424 
L 304.3692 208.585624 
L 308.511792 222.963527 
L 312.654384 233.334473 
L 316.796976 237.223578 
L 320.939568 242.409051 
L 325.08216 242.409051 
L 329.224752 243.705419 
L 333.367344 244.353603 
L 337.509936 246.94634 
L 341.652528 249.539076 
L 345.79512 254.076365 
L 350.351971 253.369255 
L 354.494563 256.020918 
L 358.637155 258.613654 
L 362.779747 259.910023 
L 366.922339 261.854575 
L 371.064931 261.206391 
L 375.207523 267.040048 
L 379.350115 262.502759 
L 383.492707 262.502759 
L 387.635299 268.984601 
L 391.777891 268.336417 
L 396.334743 246.887414 
L 400.477335 239.816314 
L 404.619927 278.059179 
L 408.762519 272.225521 
L 412.905111 273.52189 
L 417.047703 272.225521 
L 421.190295 274.170074 
L 425.332887 274.170074 
L 429.475479 272.873706 
L 433.618071 272.225521 
L 437.760663 268.984601 
L 442.317514 271.636263 
L 446.460106 274.170074 
L 450.602698 272.873706 
L 454.74529 268.336417 
L 458.887882 267.688232 
L 463.030474 274.818258 
L 467.173066 270.929153 
L 471.315658 269.632785 
L 475.45825 269.632785 
L 479.600842 270.280969 
L 483.743434 271.577337 
L 488.300285 268.689972 
" clip-path="url(#p7f7bc9a6b2)" style="fill: none; stroke: #1e90ff; stroke-width: 1.5; stroke-linecap: square"/>
   </g>
   <g id="patch_3">
    <path d="M 103.039229 288.430125 
L 103.039229 22.318125 
" style="fill: none; stroke: #000000; stroke-width: 0.8; stroke-linejoin: miter; stroke-linecap: square"/>
   </g>
   <g id="patch_4">
    <path d="M 517.298429 288.430125 
L 517.298429 22.318125 
" style="fill: none; stroke: #000000; stroke-width: 0.8; stroke-linejoin: miter; stroke-linecap: square"/>
   </g>
   <g id="patch_5">
    <path d="M 103.039229 288.430125 
L 517.298429 288.430125 
" style="fill: none; stroke: #000000; stroke-width: 0.8; stroke-linejoin: miter; stroke-linecap: square"/>
   </g>
   <g id="patch_6">
    <path d="M 103.039229 22.318125 
L 517.298429 22.318125 
" style="fill: none; stroke: #000000; stroke-width: 0.8; stroke-linejoin: miter; stroke-linecap: square"/>
   </g>
   <g id="text_18">
    <!-- Anlaufkurven -->
    <g transform="translate(270.401954 16.318125) scale(0.12 -0.12)">
     <defs>
      <path id="DejaVuSans-6c" d="M 603 4863 
L 1178 4863 
L 1178 0 
L 603 0 
L 603 4863 
z
" transform="scale(0.015625)"/>
      <path id="DejaVuSans-61" d="M 2194 1759 
Q 1497 1759 1228 1600 
Q 959 1441 959 1056 
Q 959 750 1161 570 
Q 1363 391 1709 391 
Q 2188 391 2477 730 
Q 2766 1069 2766 1631 
L 2766 1759 
L 2194 1759 
z
M 3341 1997 
L 3341 0 
L 2766 0 
L 2766 531 
Q 2569 213 2275 61 
Q 1981 -91 1556 -91 
Q 1019 -91 701 211 
Q 384 513 384 1019 
Q 384 1609 779 1909 
Q 1175 2209 1959 2209 
L 2766 2209 
L 2766 2266 
Q 2766 2663 2505 2880 
Q 2244 3097 1772 3097 
Q 1472 3097 1187 3025 
Q 903 2953 641 2809 
L 641 3341 
Q 956 3463 1253 3523 
Q 1550 3584 1831 3584 
Q 2591 3584 2966 3190 
Q 3341 2797 3341 1997 
z
" transform="scale(0.015625)"/>
      <path id="DejaVuSans-75" d="M 544 1381 
L 544 3500 
L 1119 3500 
L 1119 1403 
Q 1119 906 1312 657 
Q 1506 409 1894 409 
Q 2359 409 2629 706 
Q 2900 1003 2900 1516 
L 2900 3500 
L 3475 3500 
L 3475 0 
L 2900 0 
L 2900 538 
Q 2691 219 2414 64 
Q 2138 -91 1772 -91 
Q 1169 -91 856 284 
Q 544 659 544 1381 
z
M 1991 3584 
L 1991 3584 
z
" transform="scale(0.015625)"/>
      <path id="DejaVuSans-66" d="M 2375 4863 
L 2375 4384 
L 1825 4384 
Q 1516 4384 1395 4259 
Q 1275 4134 1275 3809 
L 1275 3500 
L 2222 3500 
L 2222 3053 
L 1275 3053 
L 1275 0 
L 697 0 
L 697 3053 
L 147 3053 
L 147 3500 
L 697 3500 
L 697 3744 
Q 697 4328 969 4595 
Q 1241 4863 1831 4863 
L 2375 4863 
z
" transform="scale(0.015625)"/>
      <path id="DejaVuSans-6b" d="M 581 4863 
L 1159 4863 
L 1159 1991 
L 2875 3500 
L 3609 3500 
L 1753 1863 
L 3688 0 
L 2938 0 
L 1159 1709 
L 1159 0 
L 581 0 
L 581 4863 
z
" transform="scale(0.015625)"/>
      <path id="DejaVuSans-76" d="M 191 3500 
L 800 3500 
L 1894 563 
L 2988 3500 
L 3597 3500 
L 2284 0 
L 1503 0 
L 191 3500 
z
" transform="scale(0.015625)"/>
     </defs>
     <use xlink:href="#DejaVuSans-41"/>
     <use xlink:href="#DejaVuSans-6e" x="68.408203"/>
     <use xlink:href="#DejaVuSans-6c" x="131.787109"/>
     <use xlink:href="#DejaVuSans-61" x="159.570312"/>
     <use xlink:href="#DejaVuSans-75" x="220.849609"/>
     <use xlink:href="#DejaVuSans-66" x="284.228516"/>
     <use xlink:href="#DejaVuSans-6b" x="319.433594"/>
     <use xlink:href="#DejaVuSans-75" x="374.21875"/>
     <use xlink:href="#DejaVuSans-72" x="437.597656"/>
     <use xlink:href="#DejaVuSans-76" x="478.710938"/>
     <use xlink:href="#DejaVuSans-65" x="537.890625"/>
     <use xlink:href="#DejaVuSans-6e" x="599.414062"/>
    </g>
   </g>
  </g>
  <g id="axes_2">
   <g id="matplotlib.axis_3">
    <g id="ytick_10">
     <g id="line2d_33">
      <defs>
       <path id="m4f4e8e115d" d="M 0 0 
L 3.5 0 
" style="stroke: #000000; stroke-width: 0.8"/>
      </defs>
      <g>
       <use xlink:href="#m4f4e8e115d" x="517.298429" y="288.430125" style="stroke: #000000; stroke-width: 0.8"/>
      </g>
     </g>
     <g id="text_19">
      <!-- 0 -->
      <g transform="translate(524.298429 292.229344) scale(0.1 -0.1)">
       <use xlink:href="#DejaVuSans-30"/>
      </g>
     </g>
    </g>
    <g id="ytick_11">
     <g id="line2d_34">
      <g>
       <use xlink:href="#m4f4e8e115d" x="517.298429" y="254.772754" style="stroke: #000000; stroke-width: 0.8"/>
      </g>
     </g>
     <g id="text_20">
      <!-- 200 -->
      <g transform="translate(524.298429 258.571973) scale(0.1 -0.1)">
       <use xlink:href="#DejaVuSans-32"/>
       <use xlink:href="#DejaVuSans-30" x="63.623047"/>
       <use xlink:href="#DejaVuSans-30" x="127.246094"/>
      </g>
     </g>
    </g>
    <g id="ytick_12">
     <g id="line2d_35">
      <g>
       <use xlink:href="#m4f4e8e115d" x="517.298429" y="221.115384" style="stroke: #000000; stroke-width: 0.8"/>
      </g>
     </g>
     <g id="text_21">
      <!-- 400 -->
      <g transform="translate(524.298429 224.914603) scale(0.1 -0.1)">
       <use xlink:href="#DejaVuSans-34"/>
       <use xlink:href="#DejaVuSans-30" x="63.623047"/>
       <use xlink:href="#DejaVuSans-30" x="127.246094"/>
      </g>
     </g>
    </g>
    <g id="ytick_13">
     <g id="line2d_36">
      <g>
       <use xlink:href="#m4f4e8e115d" x="517.298429" y="187.458013" style="stroke: #000000; stroke-width: 0.8"/>
      </g>
     </g>
     <g id="text_22">
      <!-- 600 -->
      <g transform="translate(524.298429 191.257232) scale(0.1 -0.1)">
       <use xlink:href="#DejaVuSans-36"/>
       <use xlink:href="#DejaVuSans-30" x="63.623047"/>
       <use xlink:href="#DejaVuSans-30" x="127.246094"/>
      </g>
     </g>
    </g>
    <g id="ytick_14">
     <g id="line2d_37">
      <g>
       <use xlink:href="#m4f4e8e115d" x="517.298429" y="153.800643" style="stroke: #000000; stroke-width: 0.8"/>
      </g>
     </g>
     <g id="text_23">
      <!-- 800 -->
      <g transform="translate(524.298429 157.599862) scale(0.1 -0.1)">
       <use xlink:href="#DejaVuSans-38"/>
       <use xlink:href="#DejaVuSans-30" x="63.623047"/>
       <use xlink:href="#DejaVuSans-30" x="127.246094"/>
      </g>
     </g>
    </g>
    <g id="ytick_15">
     <g id="line2d_38">
      <g>
       <use xlink:href="#m4f4e8e115d" x="517.298429" y="120.143272" style="stroke: #000000; stroke-width: 0.8"/>
      </g>
     </g>
     <g id="text_24">
      <!-- 1000 -->
      <g transform="translate(524.298429 123.942491) scale(0.1 -0.1)">
       <use xlink:href="#DejaVuSans-31"/>
       <use xlink:href="#DejaVuSans-30" x="63.623047"/>
       <use xlink:href="#DejaVuSans-30" x="127.246094"/>
       <use xlink:href="#DejaVuSans-30" x="190.869141"/>
      </g>
     </g>
    </g>
    <g id="ytick_16">
     <g id="line2d_39">
      <g>
       <use xlink:href="#m4f4e8e115d" x="517.298429" y="86.485902" style="stroke: #000000; stroke-width: 0.8"/>
      </g>
     </g>
     <g id="text_25">
      <!-- 1200 -->
      <g transform="translate(524.298429 90.285121) scale(0.1 -0.1)">
       <use xlink:href="#DejaVuSans-31"/>
       <use xlink:href="#DejaVuSans-32" x="63.623047"/>
       <use xlink:href="#DejaVuSans-30" x="127.246094"/>
       <use xlink:href="#DejaVuSans-30" x="190.869141"/>
      </g>
     </g>
    </g>
    <g id="ytick_17">
     <g id="line2d_40">
      <g>
       <use xlink:href="#m4f4e8e115d" x="517.298429" y="52.828531" style="stroke: #000000; stroke-width: 0.8"/>
      </g>
     </g>
     <g id="text_26">
      <!-- 1400 -->
      <g transform="translate(524.298429 56.62775) scale(0.1 -0.1)">
       <use xlink:href="#DejaVuSans-31"/>
       <use xlink:href="#DejaVuSans-34" x="63.623047"/>
       <use xlink:href="#DejaVuSans-30" x="127.246094"/>
       <use xlink:href="#DejaVuSans-30" x="190.869141"/>
      </g>
     </g>
    </g>
    <g id="text_27">
     <!-- Drehzahl in rpm -->
     <g transform="translate(561.346867 195.494437) rotate(-90) scale(0.1 -0.1)">
      <defs>
       <path id="DejaVuSans-44" d="M 1259 4147 
L 1259 519 
L 2022 519 
Q 2988 519 3436 956 
Q 3884 1394 3884 2338 
Q 3884 3275 3436 3711 
Q 2988 4147 2022 4147 
L 1259 4147 
z
M 628 4666 
L 1925 4666 
Q 3281 4666 3915 4102 
Q 4550 3538 4550 2338 
Q 4550 1131 3912 565 
Q 3275 0 1925 0 
L 628 0 
L 628 4666 
z
" transform="scale(0.015625)"/>
       <path id="DejaVuSans-68" d="M 3513 2113 
L 3513 0 
L 2938 0 
L 2938 2094 
Q 2938 2591 2744 2837 
Q 2550 3084 2163 3084 
Q 1697 3084 1428 2787 
Q 1159 2491 1159 1978 
L 1159 0 
L 581 0 
L 581 4863 
L 1159 4863 
L 1159 2956 
Q 1366 3272 1645 3428 
Q 1925 3584 2291 3584 
Q 2894 3584 3203 3211 
Q 3513 2838 3513 2113 
z
" transform="scale(0.015625)"/>
       <path id="DejaVuSans-7a" d="M 353 3500 
L 3084 3500 
L 3084 2975 
L 922 459 
L 3084 459 
L 3084 0 
L 275 0 
L 275 525 
L 2438 3041 
L 353 3041 
L 353 3500 
z
" transform="scale(0.015625)"/>
       <path id="DejaVuSans-70" d="M 1159 525 
L 1159 -1331 
L 581 -1331 
L 581 3500 
L 1159 3500 
L 1159 2969 
Q 1341 3281 1617 3432 
Q 1894 3584 2278 3584 
Q 2916 3584 3314 3078 
Q 3713 2572 3713 1747 
Q 3713 922 3314 415 
Q 2916 -91 2278 -91 
Q 1894 -91 1617 61 
Q 1341 213 1159 525 
z
M 3116 1747 
Q 3116 2381 2855 2742 
Q 2594 3103 2138 3103 
Q 1681 3103 1420 2742 
Q 1159 2381 1159 1747 
Q 1159 1113 1420 752 
Q 1681 391 2138 391 
Q 2594 391 2855 752 
Q 3116 1113 3116 1747 
z
" transform="scale(0.015625)"/>
      </defs>
      <use xlink:href="#DejaVuSans-44"/>
      <use xlink:href="#DejaVuSans-72" x="77.001953"/>
      <use xlink:href="#DejaVuSans-65" x="115.865234"/>
      <use xlink:href="#DejaVuSans-68" x="177.388672"/>
      <use xlink:href="#DejaVuSans-7a" x="240.767578"/>
      <use xlink:href="#DejaVuSans-61" x="293.257812"/>
      <use xlink:href="#DejaVuSans-68" x="354.537109"/>
      <use xlink:href="#DejaVuSans-6c" x="417.916016"/>
      <use xlink:href="#DejaVuSans-20" x="445.699219"/>
      <use xlink:href="#DejaVuSans-69" x="477.486328"/>
      <use xlink:href="#DejaVuSans-6e" x="505.269531"/>
      <use xlink:href="#DejaVuSans-20" x="568.648438"/>
      <use xlink:href="#DejaVuSans-72" x="600.435547"/>
      <use xlink:href="#DejaVuSans-70" x="641.548828"/>
      <use xlink:href="#DejaVuSans-6d" x="705.025391"/>
     </g>
    </g>
   </g>
   <g id="line2d_41">
    <path d="M 103.039229 288.430125 
L 74.455344 288.430125 
L 78.597936 288.766699 
L 82.740528 288.093551 
L 86.88312 288.430125 
L 91.025712 288.430125 
L 95.168304 288.430125 
L 99.310896 288.430125 
L 103.453488 288.430125 
L 107.59608 288.430125 
L 111.738672 288.430125 
L 115.881264 288.430125 
L 120.438115 281.698651 
L 124.580707 277.99634 
L 128.723299 268.90885 
L 132.865891 261.840802 
L 137.008483 252.416739 
L 141.151075 244.675543 
L 145.293667 237.944069 
L 149.436259 228.183432 
L 153.578851 221.451958 
L 157.721443 213.037615 
L 161.864035 204.286699 
L 166.420887 196.943272 
L 170.563479 188.131161 
L 174.706071 181.73626 
L 178.848663 173.995065 
L 182.991255 166.590444 
L 187.133847 157.839527 
L 191.276439 150.434906 
L 195.419031 142.020563 
L 199.561623 134.952515 
L 203.704215 127.547894 
L 207.846807 120.479846 
L 212.403658 112.49387 
L 216.54625 104.660882 
L 220.688842 98.602555 
L 224.831434 91.534507 
L 228.974026 85.476181 
L 233.116618 79.417854 
L 237.25921 75.042396 
L 241.401802 70.330364 
L 245.544394 64.272037 
L 249.686986 59.560005 
L 253.829578 56.530842 
L 258.386429 53.74646 
L 262.529021 50.135942 
L 266.671613 47.443352 
L 270.814205 45.760484 
L 274.956797 45.760484 
L 279.099389 43.404468 
L 283.241981 43.067894 
L 287.384573 42.394747 
L 291.527165 41.721599 
L 295.669757 42.058173 
L 299.812349 42.058173 
L 304.3692 39.977535 
L 308.511792 40.038731 
L 312.654384 39.029009 
L 316.796976 38.019288 
L 320.939568 38.355862 
L 325.08216 38.019288 
L 329.224752 39.029009 
L 333.367344 37.346141 
L 337.509936 38.692436 
L 341.652528 37.682715 
L 345.79512 35.999846 
L 350.351971 36.917774 
L 354.494563 37.346141 
L 358.637155 36.33642 
L 362.779747 35.326699 
L 366.922339 36.672994 
L 371.064931 36.33642 
L 375.207523 35.999846 
L 379.350115 35.999846 
L 383.492707 36.672994 
L 387.635299 36.672994 
L 391.777891 37.682715 
L 396.334743 36.305822 
L 400.477335 35.326699 
L 404.619927 35.999846 
L 408.762519 35.999846 
L 412.905111 35.999846 
L 417.047703 35.999846 
L 421.190295 37.346141 
L 425.332887 37.682715 
L 429.475479 37.682715 
L 433.618071 36.672994 
L 437.760663 36.672994 
L 442.317514 36.611798 
L 446.460106 36.672994 
L 450.602698 36.672994 
L 454.74529 36.672994 
L 458.887882 36.672994 
L 463.030474 35.999846 
L 467.173066 35.999846 
L 471.315658 37.009567 
L 475.45825 37.009567 
L 479.600842 34.990125 
L 483.743434 36.672994 
L 488.300285 35.999846 
" clip-path="url(#p7f7bc9a6b2)" style="fill: none; stroke: #ff8c00; stroke-width: 1.5; stroke-linecap: square"/>
   </g>
   <g id="line2d_42">
    <path d="M 103.039229 288.430125 
L 74.455344 288.430125 
L 78.597936 288.766699 
L 82.740528 288.430125 
L 86.88312 288.430125 
L 91.025712 288.430125 
L 95.168304 288.430125 
L 99.310896 288.430125 
L 103.453488 288.430125 
L 107.59608 288.430125 
L 111.738672 288.430125 
L 115.881264 288.430125 
L 120.438115 288.430125 
L 124.580707 288.430125 
L 128.723299 289.103272 
L 132.865891 288.766699 
L 137.008483 288.430125 
L 141.151075 288.430125 
L 145.293667 288.430125 
L 149.436259 288.430125 
L 153.578851 282.371798 
L 157.721443 277.99634 
L 161.864035 269.581998 
L 166.420887 260.280324 
L 170.563479 252.080165 
L 174.706071 243.665822 
L 178.848663 235.25148 
L 182.991255 227.846858 
L 187.133847 219.095942 
L 191.276439 210.345025 
L 195.419031 202.940404 
L 199.561623 195.535782 
L 203.704215 187.458013 
L 207.846807 179.043671 
L 212.403658 171.853233 
L 216.54625 162.888133 
L 220.688842 155.483511 
L 224.831434 147.405743 
L 228.974026 138.9914 
L 233.116618 132.259926 
L 237.25921 124.518731 
L 241.401802 117.114109 
L 245.544394 109.709488 
L 249.686986 103.651161 
L 253.829578 95.909966 
L 258.386429 88.627735 
L 262.529021 82.783591 
L 266.671613 77.734986 
L 270.814205 72.68638 
L 274.956797 68.647496 
L 279.099389 62.589169 
L 283.241981 58.886858 
L 287.384573 55.184547 
L 291.527165 52.491958 
L 295.669757 49.799368 
L 299.812349 47.106778 
L 304.3692 45.179129 
L 308.511792 44.750762 
L 312.654384 43.404468 
L 316.796976 43.067894 
L 320.939568 41.385025 
L 325.08216 41.048452 
L 329.224752 40.375304 
L 333.367344 40.375304 
L 337.509936 39.365583 
L 341.652528 39.702157 
L 345.79512 38.355862 
L 350.351971 39.365583 
L 354.494563 38.355862 
L 358.637155 39.029009 
L 362.779747 38.019288 
L 366.922339 37.682715 
L 371.064931 38.019288 
L 375.207523 38.355862 
L 379.350115 37.682715 
L 383.492707 37.009567 
L 387.635299 37.682715 
L 391.777891 36.33642 
L 396.334743 37.835703 
L 400.477335 35.326699 
L 404.619927 35.663272 
L 408.762519 37.009567 
L 412.905111 35.999846 
L 417.047703 35.663272 
L 421.190295 36.672994 
L 425.332887 35.999846 
L 429.475479 36.672994 
L 433.618071 35.999846 
L 437.760663 36.33642 
L 442.317514 35.69387 
L 446.460106 36.33642 
L 450.602698 36.33642 
L 454.74529 36.33642 
L 458.887882 37.009567 
L 463.030474 35.999846 
L 467.173066 36.672994 
L 471.315658 37.009567 
L 475.45825 38.355862 
L 479.600842 37.346141 
L 483.743434 35.999846 
L 488.300285 36.917774 
" clip-path="url(#p7f7bc9a6b2)" style="fill: none; stroke: #ffd700; stroke-width: 1.5; stroke-linecap: square"/>
   </g>
   <g id="patch_7">
    <path d="M 103.039229 288.430125 
L 103.039229 22.318125 
" style="fill: none; stroke: #000000; stroke-width: 0.8; stroke-linejoin: miter; stroke-linecap: square"/>
   </g>
   <g id="patch_8">
    <path d="M 517.298429 288.430125 
L 517.298429 22.318125 
" style="fill: none; stroke: #000000; stroke-width: 0.8; stroke-linejoin: miter; stroke-linecap: square"/>
   </g>
   <g id="patch_9">
    <path d="M 103.039229 288.430125 
L 517.298429 288.430125 
" style="fill: none; stroke: #000000; stroke-width: 0.8; stroke-linejoin: miter; stroke-linecap: square"/>
   </g>
   <g id="patch_10">
    <path d="M 103.039229 22.318125 
L 517.298429 22.318125 
" style="fill: none; stroke: #000000; stroke-width: 0.8; stroke-linejoin: miter; stroke-linecap: square"/>
   </g>
  </g>
  <g id="axes_3">
   <g id="matplotlib.axis_4">
    <g id="ytick_18">
     <g id="line2d_43">
      <g>
       <use xlink:href="#m0bf20a4e34" x="53.328125" y="288.430125" style="stroke: #000000; stroke-width: 0.8"/>
      </g>
     </g>
     <g id="text_28">
      <!-- 0 -->
      <g transform="translate(39.965625 292.229344) scale(0.1 -0.1)">
       <use xlink:href="#DejaVuSans-30"/>
      </g>
     </g>
    </g>
    <g id="ytick_19">
     <g id="line2d_44">
      <g>
       <use xlink:href="#m0bf20a4e34" x="53.328125" y="256.965657" style="stroke: #000000; stroke-width: 0.8"/>
      </g>
     </g>
     <g id="text_29">
      <!-- 200 -->
      <g transform="translate(27.240625 260.764875) scale(0.1 -0.1)">
       <use xlink:href="#DejaVuSans-32"/>
       <use xlink:href="#DejaVuSans-30" x="63.623047"/>
       <use xlink:href="#DejaVuSans-30" x="127.246094"/>
      </g>
     </g>
    </g>
    <g id="ytick_20">
     <g id="line2d_45">
      <g>
       <use xlink:href="#m0bf20a4e34" x="53.328125" y="225.501188" style="stroke: #000000; stroke-width: 0.8"/>
      </g>
     </g>
     <g id="text_30">
      <!-- 400 -->
      <g transform="translate(27.240625 229.300407) scale(0.1 -0.1)">
       <use xlink:href="#DejaVuSans-34"/>
       <use xlink:href="#DejaVuSans-30" x="63.623047"/>
       <use xlink:href="#DejaVuSans-30" x="127.246094"/>
      </g>
     </g>
    </g>
    <g id="ytick_21">
     <g id="line2d_46">
      <g>
       <use xlink:href="#m0bf20a4e34" x="53.328125" y="194.03672" style="stroke: #000000; stroke-width: 0.8"/>
      </g>
     </g>
     <g id="text_31">
      <!-- 600 -->
      <g transform="translate(27.240625 197.835939) scale(0.1 -0.1)">
       <use xlink:href="#DejaVuSans-36"/>
       <use xlink:href="#DejaVuSans-30" x="63.623047"/>
       <use xlink:href="#DejaVuSans-30" x="127.246094"/>
      </g>
     </g>
    </g>
    <g id="ytick_22">
     <g id="line2d_47">
      <g>
       <use xlink:href="#m0bf20a4e34" x="53.328125" y="162.572251" style="stroke: #000000; stroke-width: 0.8"/>
      </g>
     </g>
     <g id="text_32">
      <!-- 800 -->
      <g transform="translate(27.240625 166.37147) scale(0.1 -0.1)">
       <use xlink:href="#DejaVuSans-38"/>
       <use xlink:href="#DejaVuSans-30" x="63.623047"/>
       <use xlink:href="#DejaVuSans-30" x="127.246094"/>
      </g>
     </g>
    </g>
    <g id="ytick_23">
     <g id="line2d_48">
      <g>
       <use xlink:href="#m0bf20a4e34" x="53.328125" y="131.107783" style="stroke: #000000; stroke-width: 0.8"/>
      </g>
     </g>
     <g id="text_33">
      <!-- 1000 -->
      <g transform="translate(20.878125 134.907002) scale(0.1 -0.1)">
       <use xlink:href="#DejaVuSans-31"/>
       <use xlink:href="#DejaVuSans-30" x="63.623047"/>
       <use xlink:href="#DejaVuSans-30" x="127.246094"/>
       <use xlink:href="#DejaVuSans-30" x="190.869141"/>
      </g>
     </g>
    </g>
    <g id="ytick_24">
     <g id="line2d_49">
      <g>
       <use xlink:href="#m0bf20a4e34" x="53.328125" y="99.643315" style="stroke: #000000; stroke-width: 0.8"/>
      </g>
     </g>
     <g id="text_34">
      <!-- 1200 -->
      <g transform="translate(20.878125 103.442533) scale(0.1 -0.1)">
       <use xlink:href="#DejaVuSans-31"/>
       <use xlink:href="#DejaVuSans-32" x="63.623047"/>
       <use xlink:href="#DejaVuSans-30" x="127.246094"/>
       <use xlink:href="#DejaVuSans-30" x="190.869141"/>
      </g>
     </g>
    </g>
    <g id="ytick_25">
     <g id="line2d_50">
      <g>
       <use xlink:href="#m0bf20a4e34" x="53.328125" y="68.178846" style="stroke: #000000; stroke-width: 0.8"/>
      </g>
     </g>
     <g id="text_35">
      <!-- 1400 -->
      <g transform="translate(20.878125 71.978065) scale(0.1 -0.1)">
       <use xlink:href="#DejaVuSans-31"/>
       <use xlink:href="#DejaVuSans-34" x="63.623047"/>
       <use xlink:href="#DejaVuSans-30" x="127.246094"/>
       <use xlink:href="#DejaVuSans-30" x="190.869141"/>
      </g>
     </g>
    </g>
    <g id="ytick_26">
     <g id="line2d_51">
      <g>
       <use xlink:href="#m0bf20a4e34" x="53.328125" y="36.714378" style="stroke: #000000; stroke-width: 0.8"/>
      </g>
     </g>
     <g id="text_36">
      <!-- 1600 -->
      <g transform="translate(20.878125 40.513597) scale(0.1 -0.1)">
       <use xlink:href="#DejaVuSans-31"/>
       <use xlink:href="#DejaVuSans-36" x="63.623047"/>
       <use xlink:href="#DejaVuSans-30" x="127.246094"/>
       <use xlink:href="#DejaVuSans-30" x="190.869141"/>
      </g>
     </g>
    </g>
    <g id="text_37">
     <!-- Drehmoment in Nm -->
     <g transform="translate(14.798438 204.76475) rotate(-90) scale(0.1 -0.1)">
      <defs>
       <path id="DejaVuSans-4e" d="M 628 4666 
L 1478 4666 
L 3547 763 
L 3547 4666 
L 4159 4666 
L 4159 0 
L 3309 0 
L 1241 3903 
L 1241 0 
L 628 0 
L 628 4666 
z
" transform="scale(0.015625)"/>
      </defs>
      <use xlink:href="#DejaVuSans-44"/>
      <use xlink:href="#DejaVuSans-72" x="77.001953"/>
      <use xlink:href="#DejaVuSans-65" x="115.865234"/>
      <use xlink:href="#DejaVuSans-68" x="177.388672"/>
      <use xlink:href="#DejaVuSans-6d" x="240.767578"/>
      <use xlink:href="#DejaVuSans-6f" x="338.179688"/>
      <use xlink:href="#DejaVuSans-6d" x="399.361328"/>
      <use xlink:href="#DejaVuSans-65" x="496.773438"/>
      <use xlink:href="#DejaVuSans-6e" x="558.296875"/>
      <use xlink:href="#DejaVuSans-74" x="621.675781"/>
      <use xlink:href="#DejaVuSans-20" x="660.884766"/>
      <use xlink:href="#DejaVuSans-69" x="692.671875"/>
      <use xlink:href="#DejaVuSans-6e" x="720.455078"/>
      <use xlink:href="#DejaVuSans-20" x="783.833984"/>
      <use xlink:href="#DejaVuSans-4e" x="815.621094"/>
      <use xlink:href="#DejaVuSans-6d" x="890.425781"/>
     </g>
    </g>
   </g>
   <g id="line2d_52">
    <path d="M 103.039229 288.430125 
L 74.455344 288.493054 
L 78.597936 288.467882 
L 82.740528 288.430125 
L 86.88312 288.467882 
L 91.025712 288.442711 
L 95.168304 288.442711 
L 99.310896 288.404953 
L 103.453488 288.392368 
L 107.59608 288.417539 
L 111.738672 288.430125 
L 115.881264 261.546883 
L 120.438115 162.70383 
L 124.580707 203.060729 
L 128.723299 200.556158 
L 132.865891 200.455471 
L 137.008483 191.897136 
L 141.151075 192.224366 
L 145.293667 162.295364 
L 149.436259 160.596283 
L 153.578851 152.314835 
L 157.721443 135.915554 
L 161.864035 119.692474 
L 166.420887 109.500274 
L 170.563479 112.329788 
L 174.706071 115.476235 
L 178.848663 113.273722 
L 182.991255 110.290891 
L 187.133847 84.326411 
L 191.276439 78.411091 
L 195.419031 57.556442 
L 199.561623 46.883694 
L 203.704215 44.958069 
L 207.846807 36.877993 
L 212.403658 51.262404 
L 216.54625 38.300187 
L 220.688842 35.569071 
L 224.831434 34.990125 
L 228.974026 35.480971 
L 233.116618 44.580495 
L 237.25921 43.535875 
L 241.401802 46.380263 
L 245.544394 65.737204 
L 249.686986 120.825195 
L 253.829578 134.430431 
L 258.386429 142.440712 
L 262.529021 186.699206 
L 266.671613 214.853612 
L 270.814205 226.382193 
L 274.956797 241.74944 
L 279.099389 248.822652 
L 283.241981 251.641869 
L 287.384573 255.757421 
L 291.527165 256.449639 
L 295.669757 256.638426 
L 299.812349 256.877556 
L 304.3692 257.291743 
L 308.511792 260.602949 
L 312.654384 262.125829 
L 316.796976 262.528575 
L 320.939568 265.272276 
L 325.08216 265.763122 
L 329.224752 265.448477 
L 333.367344 268.745954 
L 337.509936 268.393552 
L 341.652528 268.884397 
L 345.79512 268.834054 
L 350.351971 274.271114 
L 354.494563 269.425586 
L 358.637155 259.445057 
L 362.779747 275.076605 
L 366.922339 278.109779 
L 371.064931 273.969055 
L 375.207523 269.866089 
L 379.350115 275.114362 
L 383.492707 277.48049 
L 387.635299 277.014816 
L 391.777891 270.155562 
L 396.334743 273.916424 
L 400.477335 276.536556 
L 404.619927 277.455318 
L 408.762519 274.006813 
L 412.905111 274.258528 
L 417.047703 275.441592 
L 421.190295 275.705894 
L 425.332887 272.509104 
L 429.475479 269.664716 
L 433.618071 276.725343 
L 437.760663 276.486213 
L 442.317514 266.891266 
L 446.460106 275.919852 
L 450.602698 277.077745 
L 454.74529 270.709336 
L 458.887882 270.747094 
L 463.030474 274.057156 
L 467.173066 276.964473 
L 471.315658 271.955329 
L 475.45825 263.472509 
L 479.600842 271.338626 
L 483.743434 277.744792 
L 488.300285 276.056008 
" clip-path="url(#p7f7bc9a6b2)" style="fill: none; stroke: #006400; stroke-width: 1.5; stroke-linecap: square"/>
   </g>
   <g id="line2d_53">
    <path d="M 103.039229 288.430125 
L 74.455344 288.241338 
L 78.597936 288.467882 
L 82.740528 288.455297 
L 86.88312 288.367196 
L 91.025712 288.417539 
L 95.168304 288.467882 
L 99.310896 288.392368 
L 103.453488 288.430125 
L 107.59608 288.379782 
L 111.738672 288.417539 
L 115.881264 288.342024 
L 120.438115 288.378638 
L 124.580707 288.392368 
L 128.723299 288.404953 
L 132.865891 288.404953 
L 137.008483 288.417539 
L 141.151075 288.392368 
L 145.293667 288.455297 
L 149.436259 247.060642 
L 153.578851 203.95432 
L 157.721443 219.648797 
L 161.864035 190.311327 
L 166.420887 175.083668 
L 170.563479 172.426923 
L 174.706071 172.70381 
L 178.848663 172.590538 
L 182.991255 171.785048 
L 187.133847 167.228993 
L 191.276439 141.3652 
L 195.419031 135.172992 
L 199.561623 118.446481 
L 203.704215 105.684493 
L 207.846807 95.036916 
L 212.403658 115.38127 
L 216.54625 95.527762 
L 220.688842 95.150189 
L 224.831434 72.5587 
L 228.974026 59.393967 
L 233.116618 43.649147 
L 237.25921 44.567909 
L 241.401802 39.483251 
L 245.544394 39.923754 
L 249.686986 38.627418 
L 253.829578 40.5908 
L 258.386429 27.555357 
L 262.529021 42.717798 
L 266.671613 42.629698 
L 270.814205 44.165164 
L 274.956797 52.773843 
L 279.099389 89.838986 
L 283.241981 106.854971 
L 287.384573 162.232435 
L 291.527165 175.057352 
L 295.669757 209.026393 
L 299.812349 226.357022 
L 304.3692 230.289508 
L 308.511792 243.637308 
L 312.654384 250.219675 
L 316.796976 251.767726 
L 320.939568 253.693352 
L 325.08216 253.66818 
L 329.224752 255.895865 
L 333.367344 257.557189 
L 337.509936 257.796319 
L 341.652528 259.419885 
L 345.79512 263.938183 
L 350.351971 262.989672 
L 354.494563 262.45306 
L 358.637155 265.49882 
L 362.779747 265.070904 
L 366.922339 267.424446 
L 371.064931 266.618956 
L 375.207523 271.703614 
L 379.350115 266.820328 
L 383.492707 265.88898 
L 387.635299 274.094913 
L 391.777891 272.949607 
L 396.334743 256.525154 
L 400.477335 256.210509 
L 404.619927 280.475907 
L 408.762519 275.32832 
L 412.905111 276.461041 
L 417.047703 275.051433 
L 421.190295 275.71848 
L 425.332887 276.158982 
L 429.475479 275.378664 
L 433.618071 275.32832 
L 437.760663 273.755097 
L 442.317514 274.717338 
L 446.460106 275.844338 
L 450.602698 275.24022 
L 454.74529 273.654411 
L 458.887882 274.094913 
L 463.030474 276.826029 
L 467.173066 274.321457 
L 471.315658 273.629239 
L 475.45825 274.699031 
L 479.600842 273.440452 
L 483.743434 274.912989 
L 488.300285 272.474779 
" clip-path="url(#p7f7bc9a6b2)" style="fill: none; stroke: #00ff00; stroke-width: 1.5; stroke-linecap: square"/>
   </g>
   <g id="patch_11">
    <path d="M 53.328125 288.430125 
L 53.328125 22.318125 
" style="fill: none; stroke: #000000; stroke-width: 0.8; stroke-linejoin: miter; stroke-linecap: square"/>
   </g>
   <g id="patch_12">
    <path d="M 517.298429 288.430125 
L 517.298429 22.318125 
" style="fill: none; stroke: #000000; stroke-width: 0.8; stroke-linejoin: miter; stroke-linecap: square"/>
   </g>
   <g id="patch_13">
    <path d="M 103.039229 288.430125 
L 517.298429 288.430125 
" style="fill: none; stroke: #000000; stroke-width: 0.8; stroke-linejoin: miter; stroke-linecap: square"/>
   </g>
   <g id="patch_14">
    <path d="M 103.039229 22.318125 
L 517.298429 22.318125 
" style="fill: none; stroke: #000000; stroke-width: 0.8; stroke-linejoin: miter; stroke-linecap: square"/>
   </g>
  </g>
  <g id="axes_4">
   <g id="matplotlib.axis_5">
    <g id="ytick_27">
     <g id="line2d_54">
      <g>
       <use xlink:href="#m4f4e8e115d" x="579.437309" y="288.430125" style="stroke: #000000; stroke-width: 0.8"/>
      </g>
     </g>
     <g id="text_38">
      <!-- 0 -->
      <g transform="translate(586.437309 292.229344) scale(0.1 -0.1)">
       <use xlink:href="#DejaVuSans-30"/>
      </g>
     </g>
    </g>
    <g id="ytick_28">
     <g id="line2d_55">
      <g>
       <use xlink:href="#m4f4e8e115d" x="579.437309" y="230.194831" style="stroke: #000000; stroke-width: 0.8"/>
      </g>
     </g>
     <g id="text_39">
      <!-- 50 -->
      <g transform="translate(586.437309 233.99405) scale(0.1 -0.1)">
       <use xlink:href="#DejaVuSans-35"/>
       <use xlink:href="#DejaVuSans-30" x="63.623047"/>
      </g>
     </g>
    </g>
    <g id="ytick_29">
     <g id="line2d_56">
      <g>
       <use xlink:href="#m4f4e8e115d" x="579.437309" y="171.959537" style="stroke: #000000; stroke-width: 0.8"/>
      </g>
     </g>
     <g id="text_40">
      <!-- 100 -->
      <g transform="translate(586.437309 175.758756) scale(0.1 -0.1)">
       <use xlink:href="#DejaVuSans-31"/>
       <use xlink:href="#DejaVuSans-30" x="63.623047"/>
       <use xlink:href="#DejaVuSans-30" x="127.246094"/>
      </g>
     </g>
    </g>
    <g id="ytick_30">
     <g id="line2d_57">
      <g>
       <use xlink:href="#m4f4e8e115d" x="579.437309" y="113.724243" style="stroke: #000000; stroke-width: 0.8"/>
      </g>
     </g>
     <g id="text_41">
      <!-- 150 -->
      <g transform="translate(586.437309 117.523461) scale(0.1 -0.1)">
       <use xlink:href="#DejaVuSans-31"/>
       <use xlink:href="#DejaVuSans-35" x="63.623047"/>
       <use xlink:href="#DejaVuSans-30" x="127.246094"/>
      </g>
     </g>
    </g>
    <g id="ytick_31">
     <g id="line2d_58">
      <g>
       <use xlink:href="#m4f4e8e115d" x="579.437309" y="55.488949" style="stroke: #000000; stroke-width: 0.8"/>
      </g>
     </g>
     <g id="text_42">
      <!-- 200 -->
      <g transform="translate(586.437309 59.288167) scale(0.1 -0.1)">
       <use xlink:href="#DejaVuSans-32"/>
       <use xlink:href="#DejaVuSans-30" x="63.623047"/>
       <use xlink:href="#DejaVuSans-30" x="127.246094"/>
      </g>
     </g>
    </g>
    <g id="text_43">
     <!-- Spannung in V -->
     <g transform="translate(617.123246 191.792094) rotate(-90) scale(0.1 -0.1)">
      <defs>
       <path id="DejaVuSans-67" d="M 2906 1791 
Q 2906 2416 2648 2759 
Q 2391 3103 1925 3103 
Q 1463 3103 1205 2759 
Q 947 2416 947 1791 
Q 947 1169 1205 825 
Q 1463 481 1925 481 
Q 2391 481 2648 825 
Q 2906 1169 2906 1791 
z
M 3481 434 
Q 3481 -459 3084 -895 
Q 2688 -1331 1869 -1331 
Q 1566 -1331 1297 -1286 
Q 1028 -1241 775 -1147 
L 775 -588 
Q 1028 -725 1275 -790 
Q 1522 -856 1778 -856 
Q 2344 -856 2625 -561 
Q 2906 -266 2906 331 
L 2906 616 
Q 2728 306 2450 153 
Q 2172 0 1784 0 
Q 1141 0 747 490 
Q 353 981 353 1791 
Q 353 2603 747 3093 
Q 1141 3584 1784 3584 
Q 2172 3584 2450 3431 
Q 2728 3278 2906 2969 
L 2906 3500 
L 3481 3500 
L 3481 434 
z
" transform="scale(0.015625)"/>
       <path id="DejaVuSans-56" d="M 1831 0 
L 50 4666 
L 709 4666 
L 2188 738 
L 3669 4666 
L 4325 4666 
L 2547 0 
L 1831 0 
z
" transform="scale(0.015625)"/>
      </defs>
      <use xlink:href="#DejaVuSans-53"/>
      <use xlink:href="#DejaVuSans-70" x="63.476562"/>
      <use xlink:href="#DejaVuSans-61" x="126.953125"/>
      <use xlink:href="#DejaVuSans-6e" x="188.232422"/>
      <use xlink:href="#DejaVuSans-6e" x="251.611328"/>
      <use xlink:href="#DejaVuSans-75" x="314.990234"/>
      <use xlink:href="#DejaVuSans-6e" x="378.369141"/>
      <use xlink:href="#DejaVuSans-67" x="441.748047"/>
      <use xlink:href="#DejaVuSans-20" x="505.224609"/>
      <use xlink:href="#DejaVuSans-69" x="537.011719"/>
      <use xlink:href="#DejaVuSans-6e" x="564.794922"/>
      <use xlink:href="#DejaVuSans-20" x="628.173828"/>
      <use xlink:href="#DejaVuSans-56" x="659.960938"/>
     </g>
    </g>
   </g>
   <g id="line2d_59">
    <path d="M 103.039229 288.430125 
L 74.455344 283.771301 
L 78.597936 288.430125 
L 82.740528 290.293654 
L 86.88312 288.430125 
L 91.025712 283.771301 
L 95.168304 288.430125 
L 99.310896 286.566596 
L 103.453488 287.49836 
L 107.59608 287.49836 
L 111.738672 285.634831 
L 115.881264 169.164243 
L 120.438115 113.512478 
L 124.580707 198.048949 
L 128.723299 201.776007 
L 132.865891 203.639537 
L 137.008483 200.844243 
L 141.151075 197.117184 
L 145.293667 169.164243 
L 149.436259 165.437184 
L 153.578851 156.119537 
L 157.721443 136.552478 
L 161.864035 118.848949 
L 166.420887 113.512478 
L 170.563479 113.25836 
L 174.706071 118.848949 
L 178.848663 116.985419 
L 182.991255 115.12189 
L 187.133847 86.237184 
L 191.276439 76.919537 
L 195.419031 57.352478 
L 199.561623 48.966596 
L 203.704215 52.693654 
L 207.846807 39.648949 
L 212.403658 58.453654 
L 216.54625 39.648949 
L 220.688842 41.512478 
L 224.831434 34.990125 
L 228.974026 39.648949 
L 233.116618 46.171301 
L 237.25921 44.307772 
L 241.401802 46.171301 
L 245.544394 62.011301 
L 249.686986 89.964243 
L 253.829578 80.646596 
L 258.386429 44.053654 
L 262.529021 88.100713 
L 266.671613 112.326596 
L 270.814205 106.736007 
L 274.956797 136.552478 
L 279.099389 135.620713 
L 283.241981 135.620713 
L 287.384573 131.893654 
L 291.527165 129.09836 
L 295.669757 130.96189 
L 299.812349 127.234831 
L 304.3692 111.81836 
L 308.511792 124.439537 
L 312.654384 124.439537 
L 316.796976 125.371301 
L 320.939568 124.439537 
L 325.08216 122.576007 
L 329.224752 122.576007 
L 333.367344 119.780713 
L 337.509936 116.985419 
L 341.652528 116.985419 
L 345.79512 117.917184 
L 350.351971 103.347772 
L 354.494563 109.531301 
L 358.637155 106.736007 
L 362.779747 169.164243 
L 366.922339 111.394831 
L 371.064931 76.919537 
L 375.207523 98.350125 
L 379.350115 111.394831 
L 383.492707 125.371301 
L 387.635299 126.303066 
L 391.777891 83.44189 
L 396.334743 111.81836 
L 400.477335 124.439537 
L 404.619927 115.12189 
L 408.762519 73.192478 
L 412.905111 71.328949 
L 417.047703 86.237184 
L 421.190295 106.736007 
L 425.332887 67.60189 
L 429.475479 62.943066 
L 433.618071 137.484243 
L 437.760663 114.190125 
L 442.317514 45.747772 
L 446.460106 132.825419 
L 450.602698 126.303066 
L 454.74529 123.507772 
L 458.887882 95.554831 
L 463.030474 116.053654 
L 467.173066 123.507772 
L 471.315658 92.759537 
L 475.45825 128.166596 
L 479.600842 150.528949 
L 483.743434 108.599537 
L 488.300285 73.700713 
" clip-path="url(#p7f7bc9a6b2)" style="fill: none; stroke: #8b0000; stroke-width: 1.5; stroke-linecap: square"/>
   </g>
   <g id="line2d_60">
    <path d="M 103.039229 288.430125 
L 74.455344 283.771301 
L 78.597936 288.430125 
L 82.740528 287.49836 
L 86.88312 286.566596 
L 91.025712 286.566596 
L 95.168304 288.430125 
L 99.310896 286.566596 
L 103.453488 285.634831 
L 107.59608 285.634831 
L 111.738672 289.36189 
L 115.881264 284.703066 
L 120.438115 286.312478 
L 124.580707 285.634831 
L 128.723299 285.634831 
L 132.865891 284.703066 
L 137.008483 288.430125 
L 141.151075 284.703066 
L 145.293667 286.566596 
L 149.436259 133.757184 
L 153.578851 188.731301 
L 157.721443 217.616007 
L 161.864035 186.867772 
L 166.420887 177.888949 
L 170.563479 177.550125 
L 174.706071 177.550125 
L 178.848663 181.277184 
L 182.991255 178.48189 
L 187.133847 174.754831 
L 191.276439 144.93836 
L 195.419031 136.552478 
L 199.561623 119.780713 
L 203.704215 104.872478 
L 207.846807 95.554831 
L 212.403658 116.053654 
L 216.54625 97.41836 
L 220.688842 99.28189 
L 224.831434 72.260713 
L 228.974026 59.216007 
L 233.116618 46.171301 
L 237.25921 50.830125 
L 241.401802 46.171301 
L 245.544394 47.103066 
L 249.686986 42.444243 
L 253.829578 47.103066 
L 258.386429 32.194831 
L 262.529021 46.171301 
L 266.671613 46.171301 
L 270.814205 46.171301 
L 274.956797 53.625419 
L 279.099389 74.124243 
L 283.241981 63.874831 
L 287.384573 103.008949 
L 291.527165 91.827772 
L 295.669757 130.96189 
L 299.812349 131.893654 
L 304.3692 117.747772 
L 308.511792 129.09836 
L 312.654384 128.166596 
L 316.796976 125.371301 
L 320.939568 122.576007 
L 325.08216 120.712478 
L 329.224752 121.644243 
L 333.367344 122.576007 
L 337.509936 116.053654 
L 341.652528 116.985419 
L 345.79512 116.985419 
L 350.351971 121.136007 
L 354.494563 106.736007 
L 358.637155 106.736007 
L 362.779747 106.736007 
L 366.922339 99.28189 
L 371.064931 98.350125 
L 375.207523 97.41836 
L 379.350115 102.077184 
L 383.492707 90.896007 
L 387.635299 74.124243 
L 391.777891 98.350125 
L 396.334743 117.747772 
L 400.477335 156.119537 
L 404.619927 75.056007 
L 408.762519 103.008949 
L 412.905111 110.463066 
L 417.047703 112.326596 
L 421.190295 112.326596 
L 425.332887 113.25836 
L 429.475479 96.486596 
L 433.618071 127.234831 
L 437.760663 84.373654 
L 442.317514 117.747772 
L 446.460106 101.145419 
L 450.602698 106.736007 
L 454.74529 87.168949 
L 458.887882 137.484243 
L 463.030474 105.804243 
L 467.173066 123.507772 
L 471.315658 89.032478 
L 475.45825 127.234831 
L 479.600842 131.893654 
L 483.743434 127.234831 
L 488.300285 113.512478 
" clip-path="url(#p7f7bc9a6b2)" style="fill: none; stroke: #ff0000; stroke-width: 1.5; stroke-linecap: square"/>
   </g>
   <g id="patch_15">
    <path d="M 103.039229 288.430125 
L 103.039229 22.318125 
" style="fill: none; stroke: #000000; stroke-width: 0.8; stroke-linejoin: miter; stroke-linecap: square"/>
   </g>
   <g id="patch_16">
    <path d="M 579.437309 288.430125 
L 579.437309 22.318125 
" style="fill: none; stroke: #000000; stroke-width: 0.8; stroke-linejoin: miter; stroke-linecap: square"/>
   </g>
   <g id="patch_17">
    <path d="M 103.039229 288.430125 
L 517.298429 288.430125 
" style="fill: none; stroke: #000000; stroke-width: 0.8; stroke-linejoin: miter; stroke-linecap: square"/>
   </g>
   <g id="patch_18">
    <path d="M 103.039229 22.318125 
L 517.298429 22.318125 
" style="fill: none; stroke: #000000; stroke-width: 0.8; stroke-linejoin: miter; stroke-linecap: square"/>
   </g>
  </g>
  <g id="legend_1">
   <g id="patch_19">
    <path d="M 404.098429 256.791125 
L 511.726554 256.791125 
Q 513.726554 256.791125 513.726554 254.791125 
L 513.726554 138.366125 
Q 513.726554 136.366125 511.726554 136.366125 
L 404.098429 136.366125 
Q 402.098429 136.366125 402.098429 138.366125 
L 402.098429 254.791125 
Q 402.098429 256.791125 404.098429 256.791125 
z
" style="fill: #ffffff; opacity: 0.8; stroke: #cccccc; stroke-linejoin: miter"/>
   </g>
   <g id="line2d_61">
    <path d="M 406.098429 144.464562 
L 416.098429 144.464562 
L 426.098429 144.464562 
" style="fill: none; stroke: #00008b; stroke-width: 1.5; stroke-linecap: square"/>
   </g>
   <g id="text_44">
    <!-- Strom 1 -->
    <g transform="translate(434.098429 147.964562) scale(0.1 -0.1)">
     <use xlink:href="#DejaVuSans-53"/>
     <use xlink:href="#DejaVuSans-74" x="63.476562"/>
     <use xlink:href="#DejaVuSans-72" x="102.685547"/>
     <use xlink:href="#DejaVuSans-6f" x="141.548828"/>
     <use xlink:href="#DejaVuSans-6d" x="202.730469"/>
     <use xlink:href="#DejaVuSans-20" x="300.142578"/>
     <use xlink:href="#DejaVuSans-31" x="331.929688"/>
    </g>
   </g>
   <g id="line2d_62">
    <path d="M 406.098429 159.142687 
L 416.098429 159.142687 
L 426.098429 159.142687 
" style="fill: none; stroke: #1e90ff; stroke-width: 1.5; stroke-linecap: square"/>
   </g>
   <g id="text_45">
    <!-- Strom 2 -->
    <g transform="translate(434.098429 162.642687) scale(0.1 -0.1)">
     <use xlink:href="#DejaVuSans-53"/>
     <use xlink:href="#DejaVuSans-74" x="63.476562"/>
     <use xlink:href="#DejaVuSans-72" x="102.685547"/>
     <use xlink:href="#DejaVuSans-6f" x="141.548828"/>
     <use xlink:href="#DejaVuSans-6d" x="202.730469"/>
     <use xlink:href="#DejaVuSans-20" x="300.142578"/>
     <use xlink:href="#DejaVuSans-32" x="331.929688"/>
    </g>
   </g>
   <g id="line2d_63">
    <path d="M 406.098429 173.820812 
L 416.098429 173.820812 
L 426.098429 173.820812 
" style="fill: none; stroke: #ff8c00; stroke-width: 1.5; stroke-linecap: square"/>
   </g>
   <g id="text_46">
    <!-- Drehzahl 1 -->
    <g transform="translate(434.098429 177.320812) scale(0.1 -0.1)">
     <use xlink:href="#DejaVuSans-44"/>
     <use xlink:href="#DejaVuSans-72" x="77.001953"/>
     <use xlink:href="#DejaVuSans-65" x="115.865234"/>
     <use xlink:href="#DejaVuSans-68" x="177.388672"/>
     <use xlink:href="#DejaVuSans-7a" x="240.767578"/>
     <use xlink:href="#DejaVuSans-61" x="293.257812"/>
     <use xlink:href="#DejaVuSans-68" x="354.537109"/>
     <use xlink:href="#DejaVuSans-6c" x="417.916016"/>
     <use xlink:href="#DejaVuSans-20" x="445.699219"/>
     <use xlink:href="#DejaVuSans-31" x="477.486328"/>
    </g>
   </g>
   <g id="line2d_64">
    <path d="M 406.098429 188.498937 
L 416.098429 188.498937 
L 426.098429 188.498937 
" style="fill: none; stroke: #ffd700; stroke-width: 1.5; stroke-linecap: square"/>
   </g>
   <g id="text_47">
    <!-- Drehzahl 2 -->
    <g transform="translate(434.098429 191.998937) scale(0.1 -0.1)">
     <use xlink:href="#DejaVuSans-44"/>
     <use xlink:href="#DejaVuSans-72" x="77.001953"/>
     <use xlink:href="#DejaVuSans-65" x="115.865234"/>
     <use xlink:href="#DejaVuSans-68" x="177.388672"/>
     <use xlink:href="#DejaVuSans-7a" x="240.767578"/>
     <use xlink:href="#DejaVuSans-61" x="293.257812"/>
     <use xlink:href="#DejaVuSans-68" x="354.537109"/>
     <use xlink:href="#DejaVuSans-6c" x="417.916016"/>
     <use xlink:href="#DejaVuSans-20" x="445.699219"/>
     <use xlink:href="#DejaVuSans-32" x="477.486328"/>
    </g>
   </g>
   <g id="line2d_65">
    <path d="M 406.098429 203.177062 
L 416.098429 203.177062 
L 426.098429 203.177062 
" style="fill: none; stroke: #006400; stroke-width: 1.5; stroke-linecap: square"/>
   </g>
   <g id="text_48">
    <!-- Drehmoment 1 -->
    <g transform="translate(434.098429 206.677062) scale(0.1 -0.1)">
     <use xlink:href="#DejaVuSans-44"/>
     <use xlink:href="#DejaVuSans-72" x="77.001953"/>
     <use xlink:href="#DejaVuSans-65" x="115.865234"/>
     <use xlink:href="#DejaVuSans-68" x="177.388672"/>
     <use xlink:href="#DejaVuSans-6d" x="240.767578"/>
     <use xlink:href="#DejaVuSans-6f" x="338.179688"/>
     <use xlink:href="#DejaVuSans-6d" x="399.361328"/>
     <use xlink:href="#DejaVuSans-65" x="496.773438"/>
     <use xlink:href="#DejaVuSans-6e" x="558.296875"/>
     <use xlink:href="#DejaVuSans-74" x="621.675781"/>
     <use xlink:href="#DejaVuSans-20" x="660.884766"/>
     <use xlink:href="#DejaVuSans-31" x="692.671875"/>
    </g>
   </g>
   <g id="line2d_66">
    <path d="M 406.098429 217.855187 
L 416.098429 217.855187 
L 426.098429 217.855187 
" style="fill: none; stroke: #00ff00; stroke-width: 1.5; stroke-linecap: square"/>
   </g>
   <g id="text_49">
    <!-- Drehmoment 2 -->
    <g transform="translate(434.098429 221.355187) scale(0.1 -0.1)">
     <use xlink:href="#DejaVuSans-44"/>
     <use xlink:href="#DejaVuSans-72" x="77.001953"/>
     <use xlink:href="#DejaVuSans-65" x="115.865234"/>
     <use xlink:href="#DejaVuSans-68" x="177.388672"/>
     <use xlink:href="#DejaVuSans-6d" x="240.767578"/>
     <use xlink:href="#DejaVuSans-6f" x="338.179688"/>
     <use xlink:href="#DejaVuSans-6d" x="399.361328"/>
     <use xlink:href="#DejaVuSans-65" x="496.773438"/>
     <use xlink:href="#DejaVuSans-6e" x="558.296875"/>
     <use xlink:href="#DejaVuSans-74" x="621.675781"/>
     <use xlink:href="#DejaVuSans-20" x="660.884766"/>
     <use xlink:href="#DejaVuSans-32" x="692.671875"/>
    </g>
   </g>
   <g id="line2d_67">
    <path d="M 406.098429 232.533312 
L 416.098429 232.533312 
L 426.098429 232.533312 
" style="fill: none; stroke: #8b0000; stroke-width: 1.5; stroke-linecap: square"/>
   </g>
   <g id="text_50">
    <!-- Spannung 1 -->
    <g transform="translate(434.098429 236.033312) scale(0.1 -0.1)">
     <use xlink:href="#DejaVuSans-53"/>
     <use xlink:href="#DejaVuSans-70" x="63.476562"/>
     <use xlink:href="#DejaVuSans-61" x="126.953125"/>
     <use xlink:href="#DejaVuSans-6e" x="188.232422"/>
     <use xlink:href="#DejaVuSans-6e" x="251.611328"/>
     <use xlink:href="#DejaVuSans-75" x="314.990234"/>
     <use xlink:href="#DejaVuSans-6e" x="378.369141"/>
     <use xlink:href="#DejaVuSans-67" x="441.748047"/>
     <use xlink:href="#DejaVuSans-20" x="505.224609"/>
     <use xlink:href="#DejaVuSans-31" x="537.011719"/>
    </g>
   </g>
   <g id="line2d_68">
    <path d="M 406.098429 247.211437 
L 416.098429 247.211437 
L 426.098429 247.211437 
" style="fill: none; stroke: #ff0000; stroke-width: 1.5; stroke-linecap: square"/>
   </g>
   <g id="text_51">
    <!-- Spannung 2 -->
    <g transform="translate(434.098429 250.711437) scale(0.1 -0.1)">
     <use xlink:href="#DejaVuSans-53"/>
     <use xlink:href="#DejaVuSans-70" x="63.476562"/>
     <use xlink:href="#DejaVuSans-61" x="126.953125"/>
     <use xlink:href="#DejaVuSans-6e" x="188.232422"/>
     <use xlink:href="#DejaVuSans-6e" x="251.611328"/>
     <use xlink:href="#DejaVuSans-75" x="314.990234"/>
     <use xlink:href="#DejaVuSans-6e" x="378.369141"/>
     <use xlink:href="#DejaVuSans-67" x="441.748047"/>
     <use xlink:href="#DejaVuSans-20" x="505.224609"/>
     <use xlink:href="#DejaVuSans-32" x="537.011719"/>
    </g>
   </g>
  </g>
 </g>
 <defs>
  <clipPath id="p7f7bc9a6b2">
   <rect x="103.039229" y="22.318125" width="414.2592" height="266.112"/>
  </clipPath>
 </defs>
</svg>
