<?xml version="1.0" encoding="utf-8" standalone="no"?>
<!DOCTYPE svg PUBLIC "-//W3C//DTD SVG 1.1//EN"
  "http://www.w3.org/Graphics/SVG/1.1/DTD/svg11.dtd">
<svg xmlns:xlink="http://www.w3.org/1999/xlink" width="457.41375pt" height="325.986375pt" viewBox="0 0 457.41375 325.986375" xmlns="http://www.w3.org/2000/svg" version="1.1">
 <metadata>
  <rdf:RDF xmlns:dc="http://purl.org/dc/elements/1.1/" xmlns:cc="http://creativecommons.org/ns#" xmlns:rdf="http://www.w3.org/1999/02/22-rdf-syntax-ns#">
   <cc:Work>
    <dc:type rdf:resource="http://purl.org/dc/dcmitype/StillImage"/>
    <dc:date>2024-11-26T14:42:49.843300</dc:date>
    <dc:format>image/svg+xml</dc:format>
    <dc:creator>
     <cc:Agent>
      <dc:title>Matplotlib v3.6.2, https://matplotlib.org/</dc:title>
     </cc:Agent>
    </dc:creator>
   </cc:Work>
  </rdf:RDF>
 </metadata>
 <defs>
  <style type="text/css">*{stroke-linejoin: round; stroke-linecap: butt}</style>
 </defs>
 <g id="figure_1">
  <g id="patch_1">
   <path d="M 0 325.986375 
L 457.41375 325.986375 
L 457.41375 0 
L 0 0 
z
" style="fill: #ffffff"/>
  </g>
  <g id="axes_1">
   <g id="patch_2">
    <path d="M 46.965625 288.430125 
L 404.085625 288.430125 
L 404.085625 22.318125 
L 46.965625 22.318125 
z
" style="fill: #ffffff"/>
   </g>
   <g id="matplotlib.axis_1">
    <g id="xtick_1">
     <g id="line2d_1">
      <path d="M 46.965625 288.430125 
L 46.965625 22.318125 
" clip-path="url(#pee7a3a45ad)" style="fill: none; stroke: #b0b0b0; stroke-opacity: 0.5; stroke-width: 0.8; stroke-linecap: square"/>
     </g>
     <g id="line2d_2">
      <defs>
       <path id="m09c9be1853" d="M 0 0 
L 0 3.5 
" style="stroke: #000000; stroke-width: 0.8"/>
      </defs>
      <g>
       <use xlink:href="#m09c9be1853" x="46.965625" y="288.430125" style="stroke: #000000; stroke-width: 0.8"/>
      </g>
     </g>
     <g id="text_1">
      <!-- 0.0 -->
      <g transform="translate(39.014063 303.028562) scale(0.1 -0.1)">
       <defs>
        <path id="DejaVuSans-30" d="M 2034 4250 
Q 1547 4250 1301 3770 
Q 1056 3291 1056 2328 
Q 1056 1369 1301 889 
Q 1547 409 2034 409 
Q 2525 409 2770 889 
Q 3016 1369 3016 2328 
Q 3016 3291 2770 3770 
Q 2525 4250 2034 4250 
z
M 2034 4750 
Q 2819 4750 3233 4129 
Q 3647 3509 3647 2328 
Q 3647 1150 3233 529 
Q 2819 -91 2034 -91 
Q 1250 -91 836 529 
Q 422 1150 422 2328 
Q 422 3509 836 4129 
Q 1250 4750 2034 4750 
z
" transform="scale(0.015625)"/>
        <path id="DejaVuSans-2e" d="M 684 794 
L 1344 794 
L 1344 0 
L 684 0 
L 684 794 
z
" transform="scale(0.015625)"/>
       </defs>
       <use xlink:href="#DejaVuSans-30"/>
       <use xlink:href="#DejaVuSans-2e" x="63.623047"/>
       <use xlink:href="#DejaVuSans-30" x="95.410156"/>
      </g>
     </g>
    </g>
    <g id="xtick_2">
     <g id="line2d_3">
      <path d="M 118.389625 288.430125 
L 118.389625 22.318125 
" clip-path="url(#pee7a3a45ad)" style="fill: none; stroke: #b0b0b0; stroke-opacity: 0.5; stroke-width: 0.8; stroke-linecap: square"/>
     </g>
     <g id="line2d_4">
      <g>
       <use xlink:href="#m09c9be1853" x="118.389625" y="288.430125" style="stroke: #000000; stroke-width: 0.8"/>
      </g>
     </g>
     <g id="text_2">
      <!-- 0.2 -->
      <g transform="translate(110.438063 303.028562) scale(0.1 -0.1)">
       <defs>
        <path id="DejaVuSans-32" d="M 1228 531 
L 3431 531 
L 3431 0 
L 469 0 
L 469 531 
Q 828 903 1448 1529 
Q 2069 2156 2228 2338 
Q 2531 2678 2651 2914 
Q 2772 3150 2772 3378 
Q 2772 3750 2511 3984 
Q 2250 4219 1831 4219 
Q 1534 4219 1204 4116 
Q 875 4013 500 3803 
L 500 4441 
Q 881 4594 1212 4672 
Q 1544 4750 1819 4750 
Q 2544 4750 2975 4387 
Q 3406 4025 3406 3419 
Q 3406 3131 3298 2873 
Q 3191 2616 2906 2266 
Q 2828 2175 2409 1742 
Q 1991 1309 1228 531 
z
" transform="scale(0.015625)"/>
       </defs>
       <use xlink:href="#DejaVuSans-30"/>
       <use xlink:href="#DejaVuSans-2e" x="63.623047"/>
       <use xlink:href="#DejaVuSans-32" x="95.410156"/>
      </g>
     </g>
    </g>
    <g id="xtick_3">
     <g id="line2d_5">
      <path d="M 189.813625 288.430125 
L 189.813625 22.318125 
" clip-path="url(#pee7a3a45ad)" style="fill: none; stroke: #b0b0b0; stroke-opacity: 0.5; stroke-width: 0.8; stroke-linecap: square"/>
     </g>
     <g id="line2d_6">
      <g>
       <use xlink:href="#m09c9be1853" x="189.813625" y="288.430125" style="stroke: #000000; stroke-width: 0.8"/>
      </g>
     </g>
     <g id="text_3">
      <!-- 0.4 -->
      <g transform="translate(181.862063 303.028562) scale(0.1 -0.1)">
       <defs>
        <path id="DejaVuSans-34" d="M 2419 4116 
L 825 1625 
L 2419 1625 
L 2419 4116 
z
M 2253 4666 
L 3047 4666 
L 3047 1625 
L 3713 1625 
L 3713 1100 
L 3047 1100 
L 3047 0 
L 2419 0 
L 2419 1100 
L 313 1100 
L 313 1709 
L 2253 4666 
z
" transform="scale(0.015625)"/>
       </defs>
       <use xlink:href="#DejaVuSans-30"/>
       <use xlink:href="#DejaVuSans-2e" x="63.623047"/>
       <use xlink:href="#DejaVuSans-34" x="95.410156"/>
      </g>
     </g>
    </g>
    <g id="xtick_4">
     <g id="line2d_7">
      <path d="M 261.237625 288.430125 
L 261.237625 22.318125 
" clip-path="url(#pee7a3a45ad)" style="fill: none; stroke: #b0b0b0; stroke-opacity: 0.5; stroke-width: 0.8; stroke-linecap: square"/>
     </g>
     <g id="line2d_8">
      <g>
       <use xlink:href="#m09c9be1853" x="261.237625" y="288.430125" style="stroke: #000000; stroke-width: 0.8"/>
      </g>
     </g>
     <g id="text_4">
      <!-- 0.6 -->
      <g transform="translate(253.286063 303.028562) scale(0.1 -0.1)">
       <defs>
        <path id="DejaVuSans-36" d="M 2113 2584 
Q 1688 2584 1439 2293 
Q 1191 2003 1191 1497 
Q 1191 994 1439 701 
Q 1688 409 2113 409 
Q 2538 409 2786 701 
Q 3034 994 3034 1497 
Q 3034 2003 2786 2293 
Q 2538 2584 2113 2584 
z
M 3366 4563 
L 3366 3988 
Q 3128 4100 2886 4159 
Q 2644 4219 2406 4219 
Q 1781 4219 1451 3797 
Q 1122 3375 1075 2522 
Q 1259 2794 1537 2939 
Q 1816 3084 2150 3084 
Q 2853 3084 3261 2657 
Q 3669 2231 3669 1497 
Q 3669 778 3244 343 
Q 2819 -91 2113 -91 
Q 1303 -91 875 529 
Q 447 1150 447 2328 
Q 447 3434 972 4092 
Q 1497 4750 2381 4750 
Q 2619 4750 2861 4703 
Q 3103 4656 3366 4563 
z
" transform="scale(0.015625)"/>
       </defs>
       <use xlink:href="#DejaVuSans-30"/>
       <use xlink:href="#DejaVuSans-2e" x="63.623047"/>
       <use xlink:href="#DejaVuSans-36" x="95.410156"/>
      </g>
     </g>
    </g>
    <g id="xtick_5">
     <g id="line2d_9">
      <path d="M 332.661625 288.430125 
L 332.661625 22.318125 
" clip-path="url(#pee7a3a45ad)" style="fill: none; stroke: #b0b0b0; stroke-opacity: 0.5; stroke-width: 0.8; stroke-linecap: square"/>
     </g>
     <g id="line2d_10">
      <g>
       <use xlink:href="#m09c9be1853" x="332.661625" y="288.430125" style="stroke: #000000; stroke-width: 0.8"/>
      </g>
     </g>
     <g id="text_5">
      <!-- 0.8 -->
      <g transform="translate(324.710063 303.028562) scale(0.1 -0.1)">
       <defs>
        <path id="DejaVuSans-38" d="M 2034 2216 
Q 1584 2216 1326 1975 
Q 1069 1734 1069 1313 
Q 1069 891 1326 650 
Q 1584 409 2034 409 
Q 2484 409 2743 651 
Q 3003 894 3003 1313 
Q 3003 1734 2745 1975 
Q 2488 2216 2034 2216 
z
M 1403 2484 
Q 997 2584 770 2862 
Q 544 3141 544 3541 
Q 544 4100 942 4425 
Q 1341 4750 2034 4750 
Q 2731 4750 3128 4425 
Q 3525 4100 3525 3541 
Q 3525 3141 3298 2862 
Q 3072 2584 2669 2484 
Q 3125 2378 3379 2068 
Q 3634 1759 3634 1313 
Q 3634 634 3220 271 
Q 2806 -91 2034 -91 
Q 1263 -91 848 271 
Q 434 634 434 1313 
Q 434 1759 690 2068 
Q 947 2378 1403 2484 
z
M 1172 3481 
Q 1172 3119 1398 2916 
Q 1625 2713 2034 2713 
Q 2441 2713 2670 2916 
Q 2900 3119 2900 3481 
Q 2900 3844 2670 4047 
Q 2441 4250 2034 4250 
Q 1625 4250 1398 4047 
Q 1172 3844 1172 3481 
z
" transform="scale(0.015625)"/>
       </defs>
       <use xlink:href="#DejaVuSans-30"/>
       <use xlink:href="#DejaVuSans-2e" x="63.623047"/>
       <use xlink:href="#DejaVuSans-38" x="95.410156"/>
      </g>
     </g>
    </g>
    <g id="xtick_6">
     <g id="line2d_11">
      <path d="M 404.085625 288.430125 
L 404.085625 22.318125 
" clip-path="url(#pee7a3a45ad)" style="fill: none; stroke: #b0b0b0; stroke-opacity: 0.5; stroke-width: 0.8; stroke-linecap: square"/>
     </g>
     <g id="line2d_12">
      <g>
       <use xlink:href="#m09c9be1853" x="404.085625" y="288.430125" style="stroke: #000000; stroke-width: 0.8"/>
      </g>
     </g>
     <g id="text_6">
      <!-- 1.0 -->
      <g transform="translate(396.134063 303.028562) scale(0.1 -0.1)">
       <defs>
        <path id="DejaVuSans-31" d="M 794 531 
L 1825 531 
L 1825 4091 
L 703 3866 
L 703 4441 
L 1819 4666 
L 2450 4666 
L 2450 531 
L 3481 531 
L 3481 0 
L 794 0 
L 794 531 
z
" transform="scale(0.015625)"/>
       </defs>
       <use xlink:href="#DejaVuSans-31"/>
       <use xlink:href="#DejaVuSans-2e" x="63.623047"/>
       <use xlink:href="#DejaVuSans-30" x="95.410156"/>
      </g>
     </g>
    </g>
    <g id="text_7">
     <!-- Zeit in s -->
     <g transform="translate(205.334219 316.706687) scale(0.1 -0.1)">
      <defs>
       <path id="DejaVuSans-5a" d="M 359 4666 
L 4025 4666 
L 4025 4184 
L 1075 531 
L 4097 531 
L 4097 0 
L 288 0 
L 288 481 
L 3238 4134 
L 359 4134 
L 359 4666 
z
" transform="scale(0.015625)"/>
       <path id="DejaVuSans-65" d="M 3597 1894 
L 3597 1613 
L 953 1613 
Q 991 1019 1311 708 
Q 1631 397 2203 397 
Q 2534 397 2845 478 
Q 3156 559 3463 722 
L 3463 178 
Q 3153 47 2828 -22 
Q 2503 -91 2169 -91 
Q 1331 -91 842 396 
Q 353 884 353 1716 
Q 353 2575 817 3079 
Q 1281 3584 2069 3584 
Q 2775 3584 3186 3129 
Q 3597 2675 3597 1894 
z
M 3022 2063 
Q 3016 2534 2758 2815 
Q 2500 3097 2075 3097 
Q 1594 3097 1305 2825 
Q 1016 2553 972 2059 
L 3022 2063 
z
" transform="scale(0.015625)"/>
       <path id="DejaVuSans-69" d="M 603 3500 
L 1178 3500 
L 1178 0 
L 603 0 
L 603 3500 
z
M 603 4863 
L 1178 4863 
L 1178 4134 
L 603 4134 
L 603 4863 
z
" transform="scale(0.015625)"/>
       <path id="DejaVuSans-74" d="M 1172 4494 
L 1172 3500 
L 2356 3500 
L 2356 3053 
L 1172 3053 
L 1172 1153 
Q 1172 725 1289 603 
Q 1406 481 1766 481 
L 2356 481 
L 2356 0 
L 1766 0 
Q 1100 0 847 248 
Q 594 497 594 1153 
L 594 3053 
L 172 3053 
L 172 3500 
L 594 3500 
L 594 4494 
L 1172 4494 
z
" transform="scale(0.015625)"/>
       <path id="DejaVuSans-20" transform="scale(0.015625)"/>
       <path id="DejaVuSans-6e" d="M 3513 2113 
L 3513 0 
L 2938 0 
L 2938 2094 
Q 2938 2591 2744 2837 
Q 2550 3084 2163 3084 
Q 1697 3084 1428 2787 
Q 1159 2491 1159 1978 
L 1159 0 
L 581 0 
L 581 3500 
L 1159 3500 
L 1159 2956 
Q 1366 3272 1645 3428 
Q 1925 3584 2291 3584 
Q 2894 3584 3203 3211 
Q 3513 2838 3513 2113 
z
" transform="scale(0.015625)"/>
       <path id="DejaVuSans-73" d="M 2834 3397 
L 2834 2853 
Q 2591 2978 2328 3040 
Q 2066 3103 1784 3103 
Q 1356 3103 1142 2972 
Q 928 2841 928 2578 
Q 928 2378 1081 2264 
Q 1234 2150 1697 2047 
L 1894 2003 
Q 2506 1872 2764 1633 
Q 3022 1394 3022 966 
Q 3022 478 2636 193 
Q 2250 -91 1575 -91 
Q 1294 -91 989 -36 
Q 684 19 347 128 
L 347 722 
Q 666 556 975 473 
Q 1284 391 1588 391 
Q 1994 391 2212 530 
Q 2431 669 2431 922 
Q 2431 1156 2273 1281 
Q 2116 1406 1581 1522 
L 1381 1569 
Q 847 1681 609 1914 
Q 372 2147 372 2553 
Q 372 3047 722 3315 
Q 1072 3584 1716 3584 
Q 2034 3584 2315 3537 
Q 2597 3491 2834 3397 
z
" transform="scale(0.015625)"/>
      </defs>
      <use xlink:href="#DejaVuSans-5a"/>
      <use xlink:href="#DejaVuSans-65" x="68.505859"/>
      <use xlink:href="#DejaVuSans-69" x="130.029297"/>
      <use xlink:href="#DejaVuSans-74" x="157.8125"/>
      <use xlink:href="#DejaVuSans-20" x="197.021484"/>
      <use xlink:href="#DejaVuSans-69" x="228.808594"/>
      <use xlink:href="#DejaVuSans-6e" x="256.591797"/>
      <use xlink:href="#DejaVuSans-20" x="319.970703"/>
      <use xlink:href="#DejaVuSans-73" x="351.757812"/>
     </g>
    </g>
   </g>
   <g id="matplotlib.axis_2">
    <g id="ytick_1">
     <g id="line2d_13">
      <path d="M 46.965625 288.430125 
L 404.085625 288.430125 
" clip-path="url(#pee7a3a45ad)" style="fill: none; stroke: #b0b0b0; stroke-opacity: 0.5; stroke-width: 0.8; stroke-linecap: square"/>
     </g>
     <g id="line2d_14">
      <defs>
       <path id="m5660315f47" d="M 0 0 
L -3.5 0 
" style="stroke: #000000; stroke-width: 0.8"/>
      </defs>
      <g>
       <use xlink:href="#m5660315f47" x="46.965625" y="288.430125" style="stroke: #000000; stroke-width: 0.8"/>
      </g>
     </g>
     <g id="text_8">
      <!-- 0 -->
      <g transform="translate(33.603125 292.229344) scale(0.1 -0.1)">
       <use xlink:href="#DejaVuSans-30"/>
      </g>
     </g>
    </g>
    <g id="ytick_2">
     <g id="line2d_15">
      <path d="M 46.965625 230.194831 
L 404.085625 230.194831 
" clip-path="url(#pee7a3a45ad)" style="fill: none; stroke: #b0b0b0; stroke-opacity: 0.5; stroke-width: 0.8; stroke-linecap: square"/>
     </g>
     <g id="line2d_16">
      <g>
       <use xlink:href="#m5660315f47" x="46.965625" y="230.194831" style="stroke: #000000; stroke-width: 0.8"/>
      </g>
     </g>
     <g id="text_9">
      <!-- 50 -->
      <g transform="translate(27.240625 233.99405) scale(0.1 -0.1)">
       <defs>
        <path id="DejaVuSans-35" d="M 691 4666 
L 3169 4666 
L 3169 4134 
L 1269 4134 
L 1269 2991 
Q 1406 3038 1543 3061 
Q 1681 3084 1819 3084 
Q 2600 3084 3056 2656 
Q 3513 2228 3513 1497 
Q 3513 744 3044 326 
Q 2575 -91 1722 -91 
Q 1428 -91 1123 -41 
Q 819 9 494 109 
L 494 744 
Q 775 591 1075 516 
Q 1375 441 1709 441 
Q 2250 441 2565 725 
Q 2881 1009 2881 1497 
Q 2881 1984 2565 2268 
Q 2250 2553 1709 2553 
Q 1456 2553 1204 2497 
Q 953 2441 691 2322 
L 691 4666 
z
" transform="scale(0.015625)"/>
       </defs>
       <use xlink:href="#DejaVuSans-35"/>
       <use xlink:href="#DejaVuSans-30" x="63.623047"/>
      </g>
     </g>
    </g>
    <g id="ytick_3">
     <g id="line2d_17">
      <path d="M 46.965625 171.959537 
L 404.085625 171.959537 
" clip-path="url(#pee7a3a45ad)" style="fill: none; stroke: #b0b0b0; stroke-opacity: 0.5; stroke-width: 0.8; stroke-linecap: square"/>
     </g>
     <g id="line2d_18">
      <g>
       <use xlink:href="#m5660315f47" x="46.965625" y="171.959537" style="stroke: #000000; stroke-width: 0.8"/>
      </g>
     </g>
     <g id="text_10">
      <!-- 100 -->
      <g transform="translate(20.878125 175.758756) scale(0.1 -0.1)">
       <use xlink:href="#DejaVuSans-31"/>
       <use xlink:href="#DejaVuSans-30" x="63.623047"/>
       <use xlink:href="#DejaVuSans-30" x="127.246094"/>
      </g>
     </g>
    </g>
    <g id="ytick_4">
     <g id="line2d_19">
      <path d="M 46.965625 113.724243 
L 404.085625 113.724243 
" clip-path="url(#pee7a3a45ad)" style="fill: none; stroke: #b0b0b0; stroke-opacity: 0.5; stroke-width: 0.8; stroke-linecap: square"/>
     </g>
     <g id="line2d_20">
      <g>
       <use xlink:href="#m5660315f47" x="46.965625" y="113.724243" style="stroke: #000000; stroke-width: 0.8"/>
      </g>
     </g>
     <g id="text_11">
      <!-- 150 -->
      <g transform="translate(20.878125 117.523461) scale(0.1 -0.1)">
       <use xlink:href="#DejaVuSans-31"/>
       <use xlink:href="#DejaVuSans-35" x="63.623047"/>
       <use xlink:href="#DejaVuSans-30" x="127.246094"/>
      </g>
     </g>
    </g>
    <g id="ytick_5">
     <g id="line2d_21">
      <path d="M 46.965625 55.488949 
L 404.085625 55.488949 
" clip-path="url(#pee7a3a45ad)" style="fill: none; stroke: #b0b0b0; stroke-opacity: 0.5; stroke-width: 0.8; stroke-linecap: square"/>
     </g>
     <g id="line2d_22">
      <g>
       <use xlink:href="#m5660315f47" x="46.965625" y="55.488949" style="stroke: #000000; stroke-width: 0.8"/>
      </g>
     </g>
     <g id="text_12">
      <!-- 200 -->
      <g transform="translate(20.878125 59.288167) scale(0.1 -0.1)">
       <use xlink:href="#DejaVuSans-32"/>
       <use xlink:href="#DejaVuSans-30" x="63.623047"/>
       <use xlink:href="#DejaVuSans-30" x="127.246094"/>
      </g>
     </g>
    </g>
    <g id="text_13">
     <!-- Spannung in V -->
     <g transform="translate(14.798438 191.792094) rotate(-90) scale(0.1 -0.1)">
      <defs>
       <path id="DejaVuSans-53" d="M 3425 4513 
L 3425 3897 
Q 3066 4069 2747 4153 
Q 2428 4238 2131 4238 
Q 1616 4238 1336 4038 
Q 1056 3838 1056 3469 
Q 1056 3159 1242 3001 
Q 1428 2844 1947 2747 
L 2328 2669 
Q 3034 2534 3370 2195 
Q 3706 1856 3706 1288 
Q 3706 609 3251 259 
Q 2797 -91 1919 -91 
Q 1588 -91 1214 -16 
Q 841 59 441 206 
L 441 856 
Q 825 641 1194 531 
Q 1563 422 1919 422 
Q 2459 422 2753 634 
Q 3047 847 3047 1241 
Q 3047 1584 2836 1778 
Q 2625 1972 2144 2069 
L 1759 2144 
Q 1053 2284 737 2584 
Q 422 2884 422 3419 
Q 422 4038 858 4394 
Q 1294 4750 2059 4750 
Q 2388 4750 2728 4690 
Q 3069 4631 3425 4513 
z
" transform="scale(0.015625)"/>
       <path id="DejaVuSans-70" d="M 1159 525 
L 1159 -1331 
L 581 -1331 
L 581 3500 
L 1159 3500 
L 1159 2969 
Q 1341 3281 1617 3432 
Q 1894 3584 2278 3584 
Q 2916 3584 3314 3078 
Q 3713 2572 3713 1747 
Q 3713 922 3314 415 
Q 2916 -91 2278 -91 
Q 1894 -91 1617 61 
Q 1341 213 1159 525 
z
M 3116 1747 
Q 3116 2381 2855 2742 
Q 2594 3103 2138 3103 
Q 1681 3103 1420 2742 
Q 1159 2381 1159 1747 
Q 1159 1113 1420 752 
Q 1681 391 2138 391 
Q 2594 391 2855 752 
Q 3116 1113 3116 1747 
z
" transform="scale(0.015625)"/>
       <path id="DejaVuSans-61" d="M 2194 1759 
Q 1497 1759 1228 1600 
Q 959 1441 959 1056 
Q 959 750 1161 570 
Q 1363 391 1709 391 
Q 2188 391 2477 730 
Q 2766 1069 2766 1631 
L 2766 1759 
L 2194 1759 
z
M 3341 1997 
L 3341 0 
L 2766 0 
L 2766 531 
Q 2569 213 2275 61 
Q 1981 -91 1556 -91 
Q 1019 -91 701 211 
Q 384 513 384 1019 
Q 384 1609 779 1909 
Q 1175 2209 1959 2209 
L 2766 2209 
L 2766 2266 
Q 2766 2663 2505 2880 
Q 2244 3097 1772 3097 
Q 1472 3097 1187 3025 
Q 903 2953 641 2809 
L 641 3341 
Q 956 3463 1253 3523 
Q 1550 3584 1831 3584 
Q 2591 3584 2966 3190 
Q 3341 2797 3341 1997 
z
" transform="scale(0.015625)"/>
       <path id="DejaVuSans-75" d="M 544 1381 
L 544 3500 
L 1119 3500 
L 1119 1403 
Q 1119 906 1312 657 
Q 1506 409 1894 409 
Q 2359 409 2629 706 
Q 2900 1003 2900 1516 
L 2900 3500 
L 3475 3500 
L 3475 0 
L 2900 0 
L 2900 538 
Q 2691 219 2414 64 
Q 2138 -91 1772 -91 
Q 1169 -91 856 284 
Q 544 659 544 1381 
z
M 1991 3584 
L 1991 3584 
z
" transform="scale(0.015625)"/>
       <path id="DejaVuSans-67" d="M 2906 1791 
Q 2906 2416 2648 2759 
Q 2391 3103 1925 3103 
Q 1463 3103 1205 2759 
Q 947 2416 947 1791 
Q 947 1169 1205 825 
Q 1463 481 1925 481 
Q 2391 481 2648 825 
Q 2906 1169 2906 1791 
z
M 3481 434 
Q 3481 -459 3084 -895 
Q 2688 -1331 1869 -1331 
Q 1566 -1331 1297 -1286 
Q 1028 -1241 775 -1147 
L 775 -588 
Q 1028 -725 1275 -790 
Q 1522 -856 1778 -856 
Q 2344 -856 2625 -561 
Q 2906 -266 2906 331 
L 2906 616 
Q 2728 306 2450 153 
Q 2172 0 1784 0 
Q 1141 0 747 490 
Q 353 981 353 1791 
Q 353 2603 747 3093 
Q 1141 3584 1784 3584 
Q 2172 3584 2450 3431 
Q 2728 3278 2906 2969 
L 2906 3500 
L 3481 3500 
L 3481 434 
z
" transform="scale(0.015625)"/>
       <path id="DejaVuSans-56" d="M 1831 0 
L 50 4666 
L 709 4666 
L 2188 738 
L 3669 4666 
L 4325 4666 
L 2547 0 
L 1831 0 
z
" transform="scale(0.015625)"/>
      </defs>
      <use xlink:href="#DejaVuSans-53"/>
      <use xlink:href="#DejaVuSans-70" x="63.476562"/>
      <use xlink:href="#DejaVuSans-61" x="126.953125"/>
      <use xlink:href="#DejaVuSans-6e" x="188.232422"/>
      <use xlink:href="#DejaVuSans-6e" x="251.611328"/>
      <use xlink:href="#DejaVuSans-75" x="314.990234"/>
      <use xlink:href="#DejaVuSans-6e" x="378.369141"/>
      <use xlink:href="#DejaVuSans-67" x="441.748047"/>
      <use xlink:href="#DejaVuSans-20" x="505.224609"/>
      <use xlink:href="#DejaVuSans-69" x="537.011719"/>
      <use xlink:href="#DejaVuSans-6e" x="564.794922"/>
      <use xlink:href="#DejaVuSans-20" x="628.173828"/>
      <use xlink:href="#DejaVuSans-56" x="659.960938"/>
     </g>
    </g>
   </g>
   <g id="line2d_23">
    <path d="M 46.965625 288.430125 
L 22.324345 283.771301 
L 25.895545 288.430125 
L 29.466745 290.293654 
L 33.037945 288.430125 
L 36.609145 283.771301 
L 40.180345 288.430125 
L 43.751545 286.566596 
L 47.322745 287.49836 
L 50.893945 287.49836 
L 54.465145 285.634831 
L 58.036345 169.164243 
L 61.964665 113.512478 
L 65.535865 198.048949 
L 69.107065 201.776007 
L 72.678265 203.639537 
L 76.249465 200.844243 
L 79.820665 197.117184 
L 83.391865 169.164243 
L 86.963065 165.437184 
L 90.534265 156.119537 
L 94.105465 136.552478 
L 97.676665 118.848949 
L 101.604985 113.512478 
L 105.176185 113.25836 
L 108.747385 118.848949 
L 112.318585 116.985419 
L 115.889785 115.12189 
L 119.460985 86.237184 
L 123.032185 76.919537 
L 126.603385 57.352478 
L 130.174585 48.966596 
L 133.745785 52.693654 
L 137.316985 39.648949 
L 141.245305 58.453654 
L 144.816505 39.648949 
L 148.387705 41.512478 
L 151.958905 34.990125 
L 155.530105 39.648949 
L 159.101305 46.171301 
L 162.672505 44.307772 
L 166.243705 46.171301 
L 169.814905 62.011301 
L 173.386105 89.964243 
L 176.957305 80.646596 
L 180.885625 44.053654 
L 184.456825 88.100713 
L 188.028025 112.326596 
L 191.599225 106.736007 
L 195.170425 136.552478 
L 198.741625 135.620713 
L 202.312825 135.620713 
L 205.884025 131.893654 
L 209.455225 129.09836 
L 213.026425 130.96189 
L 216.597625 127.234831 
L 220.525945 111.81836 
L 224.097145 124.439537 
L 227.668345 124.439537 
L 231.239545 125.371301 
L 234.810745 124.439537 
L 238.381945 122.576007 
L 241.953145 122.576007 
L 245.524345 119.780713 
L 249.095545 116.985419 
L 252.666745 116.985419 
L 256.237945 117.917184 
L 260.166265 103.347772 
L 263.737465 109.531301 
L 267.308665 106.736007 
L 270.879865 169.164243 
L 274.451065 111.394831 
L 278.022265 76.919537 
L 281.593465 98.350125 
L 285.164665 111.394831 
L 288.735865 125.371301 
L 292.307065 126.303066 
L 295.878265 83.44189 
L 299.806585 111.81836 
L 303.377785 124.439537 
L 306.948985 115.12189 
L 310.520185 73.192478 
L 314.091385 71.328949 
L 317.662585 86.237184 
L 321.233785 106.736007 
L 324.804985 67.60189 
L 328.376185 62.943066 
L 331.947385 137.484243 
L 335.518585 114.190125 
L 339.446905 45.747772 
L 343.018105 132.825419 
L 346.589305 126.303066 
L 350.160505 123.507772 
L 353.731705 95.554831 
L 357.302905 116.053654 
L 360.874105 123.507772 
L 364.445305 92.759537 
L 368.016505 128.166596 
L 371.587705 150.528949 
L 375.158905 108.599537 
L 379.087225 73.700713 
" clip-path="url(#pee7a3a45ad)" style="fill: none; stroke: #006400; stroke-width: 1.5; stroke-linecap: square"/>
   </g>
   <g id="line2d_24">
    <path d="M 46.965625 288.430125 
L 22.324345 283.771301 
L 25.895545 288.430125 
L 29.466745 287.49836 
L 33.037945 286.566596 
L 36.609145 286.566596 
L 40.180345 288.430125 
L 43.751545 286.566596 
L 47.322745 285.634831 
L 50.893945 285.634831 
L 54.465145 289.36189 
L 58.036345 284.703066 
L 61.964665 286.312478 
L 65.535865 285.634831 
L 69.107065 285.634831 
L 72.678265 284.703066 
L 76.249465 288.430125 
L 79.820665 284.703066 
L 83.391865 286.566596 
L 86.963065 133.757184 
L 90.534265 188.731301 
L 94.105465 217.616007 
L 97.676665 186.867772 
L 101.604985 177.888949 
L 105.176185 177.550125 
L 108.747385 177.550125 
L 112.318585 181.277184 
L 115.889785 178.48189 
L 119.460985 174.754831 
L 123.032185 144.93836 
L 126.603385 136.552478 
L 130.174585 119.780713 
L 133.745785 104.872478 
L 137.316985 95.554831 
L 141.245305 116.053654 
L 144.816505 97.41836 
L 148.387705 99.28189 
L 151.958905 72.260713 
L 155.530105 59.216007 
L 159.101305 46.171301 
L 162.672505 50.830125 
L 166.243705 46.171301 
L 169.814905 47.103066 
L 173.386105 42.444243 
L 176.957305 47.103066 
L 180.885625 32.194831 
L 184.456825 46.171301 
L 188.028025 46.171301 
L 191.599225 46.171301 
L 195.170425 53.625419 
L 198.741625 74.124243 
L 202.312825 63.874831 
L 205.884025 103.008949 
L 209.455225 91.827772 
L 213.026425 130.96189 
L 216.597625 131.893654 
L 220.525945 117.747772 
L 224.097145 129.09836 
L 227.668345 128.166596 
L 231.239545 125.371301 
L 234.810745 122.576007 
L 238.381945 120.712478 
L 241.953145 121.644243 
L 245.524345 122.576007 
L 249.095545 116.053654 
L 252.666745 116.985419 
L 256.237945 116.985419 
L 260.166265 121.136007 
L 263.737465 106.736007 
L 267.308665 106.736007 
L 270.879865 106.736007 
L 274.451065 99.28189 
L 278.022265 98.350125 
L 281.593465 97.41836 
L 285.164665 102.077184 
L 288.735865 90.896007 
L 292.307065 74.124243 
L 295.878265 98.350125 
L 299.806585 117.747772 
L 303.377785 156.119537 
L 306.948985 75.056007 
L 310.520185 103.008949 
L 314.091385 110.463066 
L 317.662585 112.326596 
L 321.233785 112.326596 
L 324.804985 113.25836 
L 328.376185 96.486596 
L 331.947385 127.234831 
L 335.518585 84.373654 
L 339.446905 117.747772 
L 343.018105 101.145419 
L 346.589305 106.736007 
L 350.160505 87.168949 
L 353.731705 137.484243 
L 357.302905 105.804243 
L 360.874105 123.507772 
L 364.445305 89.032478 
L 368.016505 127.234831 
L 371.587705 131.893654 
L 375.158905 127.234831 
L 379.087225 113.512478 
" clip-path="url(#pee7a3a45ad)" style="fill: none; stroke: #00ff00; stroke-width: 1.5; stroke-linecap: square"/>
   </g>
   <g id="patch_3">
    <path d="M 46.965625 288.430125 
L 46.965625 22.318125 
" style="fill: none; stroke: #000000; stroke-width: 0.8; stroke-linejoin: miter; stroke-linecap: square"/>
   </g>
   <g id="patch_4">
    <path d="M 404.085625 288.430125 
L 404.085625 22.318125 
" style="fill: none; stroke: #000000; stroke-width: 0.8; stroke-linejoin: miter; stroke-linecap: square"/>
   </g>
   <g id="patch_5">
    <path d="M 46.965625 288.430125 
L 404.085625 288.430125 
" style="fill: none; stroke: #000000; stroke-width: 0.8; stroke-linejoin: miter; stroke-linecap: square"/>
   </g>
   <g id="patch_6">
    <path d="M 46.965625 22.318125 
L 404.085625 22.318125 
" style="fill: none; stroke: #000000; stroke-width: 0.8; stroke-linejoin: miter; stroke-linecap: square"/>
   </g>
   <g id="text_14">
    <!-- Anlaufkurven -->
    <g transform="translate(185.75875 16.318125) scale(0.12 -0.12)">
     <defs>
      <path id="DejaVuSans-41" d="M 2188 4044 
L 1331 1722 
L 3047 1722 
L 2188 4044 
z
M 1831 4666 
L 2547 4666 
L 4325 0 
L 3669 0 
L 3244 1197 
L 1141 1197 
L 716 0 
L 50 0 
L 1831 4666 
z
" transform="scale(0.015625)"/>
      <path id="DejaVuSans-6c" d="M 603 4863 
L 1178 4863 
L 1178 0 
L 603 0 
L 603 4863 
z
" transform="scale(0.015625)"/>
      <path id="DejaVuSans-66" d="M 2375 4863 
L 2375 4384 
L 1825 4384 
Q 1516 4384 1395 4259 
Q 1275 4134 1275 3809 
L 1275 3500 
L 2222 3500 
L 2222 3053 
L 1275 3053 
L 1275 0 
L 697 0 
L 697 3053 
L 147 3053 
L 147 3500 
L 697 3500 
L 697 3744 
Q 697 4328 969 4595 
Q 1241 4863 1831 4863 
L 2375 4863 
z
" transform="scale(0.015625)"/>
      <path id="DejaVuSans-6b" d="M 581 4863 
L 1159 4863 
L 1159 1991 
L 2875 3500 
L 3609 3500 
L 1753 1863 
L 3688 0 
L 2938 0 
L 1159 1709 
L 1159 0 
L 581 0 
L 581 4863 
z
" transform="scale(0.015625)"/>
      <path id="DejaVuSans-72" d="M 2631 2963 
Q 2534 3019 2420 3045 
Q 2306 3072 2169 3072 
Q 1681 3072 1420 2755 
Q 1159 2438 1159 1844 
L 1159 0 
L 581 0 
L 581 3500 
L 1159 3500 
L 1159 2956 
Q 1341 3275 1631 3429 
Q 1922 3584 2338 3584 
Q 2397 3584 2469 3576 
Q 2541 3569 2628 3553 
L 2631 2963 
z
" transform="scale(0.015625)"/>
      <path id="DejaVuSans-76" d="M 191 3500 
L 800 3500 
L 1894 563 
L 2988 3500 
L 3597 3500 
L 2284 0 
L 1503 0 
L 191 3500 
z
" transform="scale(0.015625)"/>
     </defs>
     <use xlink:href="#DejaVuSans-41"/>
     <use xlink:href="#DejaVuSans-6e" x="68.408203"/>
     <use xlink:href="#DejaVuSans-6c" x="131.787109"/>
     <use xlink:href="#DejaVuSans-61" x="159.570312"/>
     <use xlink:href="#DejaVuSans-75" x="220.849609"/>
     <use xlink:href="#DejaVuSans-66" x="284.228516"/>
     <use xlink:href="#DejaVuSans-6b" x="319.433594"/>
     <use xlink:href="#DejaVuSans-75" x="374.21875"/>
     <use xlink:href="#DejaVuSans-72" x="437.597656"/>
     <use xlink:href="#DejaVuSans-76" x="478.710938"/>
     <use xlink:href="#DejaVuSans-65" x="537.890625"/>
     <use xlink:href="#DejaVuSans-6e" x="599.414062"/>
    </g>
   </g>
  </g>
  <g id="axes_2">
   <g id="matplotlib.axis_3">
    <g id="ytick_6">
     <g id="line2d_25">
      <defs>
       <path id="m3c86569524" d="M 0 0 
L 3.5 0 
" style="stroke: #000000; stroke-width: 0.8"/>
      </defs>
      <g>
       <use xlink:href="#m3c86569524" x="404.085625" y="288.430125" style="stroke: #000000; stroke-width: 0.8"/>
      </g>
     </g>
     <g id="text_15">
      <!-- 0 -->
      <g transform="translate(411.085625 292.229344) scale(0.1 -0.1)">
       <use xlink:href="#DejaVuSans-30"/>
      </g>
     </g>
    </g>
    <g id="ytick_7">
     <g id="line2d_26">
      <g>
       <use xlink:href="#m3c86569524" x="404.085625" y="254.772754" style="stroke: #000000; stroke-width: 0.8"/>
      </g>
     </g>
     <g id="text_16">
      <!-- 200 -->
      <g transform="translate(411.085625 258.571973) scale(0.1 -0.1)">
       <use xlink:href="#DejaVuSans-32"/>
       <use xlink:href="#DejaVuSans-30" x="63.623047"/>
       <use xlink:href="#DejaVuSans-30" x="127.246094"/>
      </g>
     </g>
    </g>
    <g id="ytick_8">
     <g id="line2d_27">
      <g>
       <use xlink:href="#m3c86569524" x="404.085625" y="221.115384" style="stroke: #000000; stroke-width: 0.8"/>
      </g>
     </g>
     <g id="text_17">
      <!-- 400 -->
      <g transform="translate(411.085625 224.914603) scale(0.1 -0.1)">
       <use xlink:href="#DejaVuSans-34"/>
       <use xlink:href="#DejaVuSans-30" x="63.623047"/>
       <use xlink:href="#DejaVuSans-30" x="127.246094"/>
      </g>
     </g>
    </g>
    <g id="ytick_9">
     <g id="line2d_28">
      <g>
       <use xlink:href="#m3c86569524" x="404.085625" y="187.458013" style="stroke: #000000; stroke-width: 0.8"/>
      </g>
     </g>
     <g id="text_18">
      <!-- 600 -->
      <g transform="translate(411.085625 191.257232) scale(0.1 -0.1)">
       <use xlink:href="#DejaVuSans-36"/>
       <use xlink:href="#DejaVuSans-30" x="63.623047"/>
       <use xlink:href="#DejaVuSans-30" x="127.246094"/>
      </g>
     </g>
    </g>
    <g id="ytick_10">
     <g id="line2d_29">
      <g>
       <use xlink:href="#m3c86569524" x="404.085625" y="153.800643" style="stroke: #000000; stroke-width: 0.8"/>
      </g>
     </g>
     <g id="text_19">
      <!-- 800 -->
      <g transform="translate(411.085625 157.599862) scale(0.1 -0.1)">
       <use xlink:href="#DejaVuSans-38"/>
       <use xlink:href="#DejaVuSans-30" x="63.623047"/>
       <use xlink:href="#DejaVuSans-30" x="127.246094"/>
      </g>
     </g>
    </g>
    <g id="ytick_11">
     <g id="line2d_30">
      <g>
       <use xlink:href="#m3c86569524" x="404.085625" y="120.143272" style="stroke: #000000; stroke-width: 0.8"/>
      </g>
     </g>
     <g id="text_20">
      <!-- 1000 -->
      <g transform="translate(411.085625 123.942491) scale(0.1 -0.1)">
       <use xlink:href="#DejaVuSans-31"/>
       <use xlink:href="#DejaVuSans-30" x="63.623047"/>
       <use xlink:href="#DejaVuSans-30" x="127.246094"/>
       <use xlink:href="#DejaVuSans-30" x="190.869141"/>
      </g>
     </g>
    </g>
    <g id="ytick_12">
     <g id="line2d_31">
      <g>
       <use xlink:href="#m3c86569524" x="404.085625" y="86.485902" style="stroke: #000000; stroke-width: 0.8"/>
      </g>
     </g>
     <g id="text_21">
      <!-- 1200 -->
      <g transform="translate(411.085625 90.285121) scale(0.1 -0.1)">
       <use xlink:href="#DejaVuSans-31"/>
       <use xlink:href="#DejaVuSans-32" x="63.623047"/>
       <use xlink:href="#DejaVuSans-30" x="127.246094"/>
       <use xlink:href="#DejaVuSans-30" x="190.869141"/>
      </g>
     </g>
    </g>
    <g id="ytick_13">
     <g id="line2d_32">
      <g>
       <use xlink:href="#m3c86569524" x="404.085625" y="52.828531" style="stroke: #000000; stroke-width: 0.8"/>
      </g>
     </g>
     <g id="text_22">
      <!-- 1400 -->
      <g transform="translate(411.085625 56.62775) scale(0.1 -0.1)">
       <use xlink:href="#DejaVuSans-31"/>
       <use xlink:href="#DejaVuSans-34" x="63.623047"/>
       <use xlink:href="#DejaVuSans-30" x="127.246094"/>
       <use xlink:href="#DejaVuSans-30" x="190.869141"/>
      </g>
     </g>
    </g>
    <g id="text_23">
     <!-- Drehzahl in rpm -->
     <g transform="translate(448.134063 195.494437) rotate(-90) scale(0.1 -0.1)">
      <defs>
       <path id="DejaVuSans-44" d="M 1259 4147 
L 1259 519 
L 2022 519 
Q 2988 519 3436 956 
Q 3884 1394 3884 2338 
Q 3884 3275 3436 3711 
Q 2988 4147 2022 4147 
L 1259 4147 
z
M 628 4666 
L 1925 4666 
Q 3281 4666 3915 4102 
Q 4550 3538 4550 2338 
Q 4550 1131 3912 565 
Q 3275 0 1925 0 
L 628 0 
L 628 4666 
z
" transform="scale(0.015625)"/>
       <path id="DejaVuSans-68" d="M 3513 2113 
L 3513 0 
L 2938 0 
L 2938 2094 
Q 2938 2591 2744 2837 
Q 2550 3084 2163 3084 
Q 1697 3084 1428 2787 
Q 1159 2491 1159 1978 
L 1159 0 
L 581 0 
L 581 4863 
L 1159 4863 
L 1159 2956 
Q 1366 3272 1645 3428 
Q 1925 3584 2291 3584 
Q 2894 3584 3203 3211 
Q 3513 2838 3513 2113 
z
" transform="scale(0.015625)"/>
       <path id="DejaVuSans-7a" d="M 353 3500 
L 3084 3500 
L 3084 2975 
L 922 459 
L 3084 459 
L 3084 0 
L 275 0 
L 275 525 
L 2438 3041 
L 353 3041 
L 353 3500 
z
" transform="scale(0.015625)"/>
       <path id="DejaVuSans-6d" d="M 3328 2828 
Q 3544 3216 3844 3400 
Q 4144 3584 4550 3584 
Q 5097 3584 5394 3201 
Q 5691 2819 5691 2113 
L 5691 0 
L 5113 0 
L 5113 2094 
Q 5113 2597 4934 2840 
Q 4756 3084 4391 3084 
Q 3944 3084 3684 2787 
Q 3425 2491 3425 1978 
L 3425 0 
L 2847 0 
L 2847 2094 
Q 2847 2600 2669 2842 
Q 2491 3084 2119 3084 
Q 1678 3084 1418 2786 
Q 1159 2488 1159 1978 
L 1159 0 
L 581 0 
L 581 3500 
L 1159 3500 
L 1159 2956 
Q 1356 3278 1631 3431 
Q 1906 3584 2284 3584 
Q 2666 3584 2933 3390 
Q 3200 3197 3328 2828 
z
" transform="scale(0.015625)"/>
      </defs>
      <use xlink:href="#DejaVuSans-44"/>
      <use xlink:href="#DejaVuSans-72" x="77.001953"/>
      <use xlink:href="#DejaVuSans-65" x="115.865234"/>
      <use xlink:href="#DejaVuSans-68" x="177.388672"/>
      <use xlink:href="#DejaVuSans-7a" x="240.767578"/>
      <use xlink:href="#DejaVuSans-61" x="293.257812"/>
      <use xlink:href="#DejaVuSans-68" x="354.537109"/>
      <use xlink:href="#DejaVuSans-6c" x="417.916016"/>
      <use xlink:href="#DejaVuSans-20" x="445.699219"/>
      <use xlink:href="#DejaVuSans-69" x="477.486328"/>
      <use xlink:href="#DejaVuSans-6e" x="505.269531"/>
      <use xlink:href="#DejaVuSans-20" x="568.648438"/>
      <use xlink:href="#DejaVuSans-72" x="600.435547"/>
      <use xlink:href="#DejaVuSans-70" x="641.548828"/>
      <use xlink:href="#DejaVuSans-6d" x="705.025391"/>
     </g>
    </g>
   </g>
   <g id="line2d_33">
    <path d="M 46.965625 288.430125 
L 22.324345 288.430125 
L 25.895545 288.766699 
L 29.466745 288.093551 
L 33.037945 288.430125 
L 36.609145 288.430125 
L 40.180345 288.430125 
L 43.751545 288.430125 
L 47.322745 288.430125 
L 50.893945 288.430125 
L 54.465145 288.430125 
L 58.036345 288.430125 
L 61.964665 281.698651 
L 65.535865 277.99634 
L 69.107065 268.90885 
L 72.678265 261.840802 
L 76.249465 252.416739 
L 79.820665 244.675543 
L 83.391865 237.944069 
L 86.963065 228.183432 
L 90.534265 221.451958 
L 94.105465 213.037615 
L 97.676665 204.286699 
L 101.604985 196.943272 
L 105.176185 188.131161 
L 108.747385 181.73626 
L 112.318585 173.995065 
L 115.889785 166.590444 
L 119.460985 157.839527 
L 123.032185 150.434906 
L 126.603385 142.020563 
L 130.174585 134.952515 
L 133.745785 127.547894 
L 137.316985 120.479846 
L 141.245305 112.49387 
L 144.816505 104.660882 
L 148.387705 98.602555 
L 151.958905 91.534507 
L 155.530105 85.476181 
L 159.101305 79.417854 
L 162.672505 75.042396 
L 166.243705 70.330364 
L 169.814905 64.272037 
L 173.386105 59.560005 
L 176.957305 56.530842 
L 180.885625 53.74646 
L 184.456825 50.135942 
L 188.028025 47.443352 
L 191.599225 45.760484 
L 195.170425 45.760484 
L 198.741625 43.404468 
L 202.312825 43.067894 
L 205.884025 42.394747 
L 209.455225 41.721599 
L 213.026425 42.058173 
L 216.597625 42.058173 
L 220.525945 39.977535 
L 224.097145 40.038731 
L 227.668345 39.029009 
L 231.239545 38.019288 
L 234.810745 38.355862 
L 238.381945 38.019288 
L 241.953145 39.029009 
L 245.524345 37.346141 
L 249.095545 38.692436 
L 252.666745 37.682715 
L 256.237945 35.999846 
L 260.166265 36.917774 
L 263.737465 37.346141 
L 267.308665 36.33642 
L 270.879865 35.326699 
L 274.451065 36.672994 
L 278.022265 36.33642 
L 281.593465 35.999846 
L 285.164665 35.999846 
L 288.735865 36.672994 
L 292.307065 36.672994 
L 295.878265 37.682715 
L 299.806585 36.305822 
L 303.377785 35.326699 
L 306.948985 35.999846 
L 310.520185 35.999846 
L 314.091385 35.999846 
L 317.662585 35.999846 
L 321.233785 37.346141 
L 324.804985 37.682715 
L 328.376185 37.682715 
L 331.947385 36.672994 
L 335.518585 36.672994 
L 339.446905 36.611798 
L 343.018105 36.672994 
L 346.589305 36.672994 
L 350.160505 36.672994 
L 353.731705 36.672994 
L 357.302905 35.999846 
L 360.874105 35.999846 
L 364.445305 37.009567 
L 368.016505 37.009567 
L 371.587705 34.990125 
L 375.158905 36.672994 
L 379.087225 35.999846 
" clip-path="url(#pee7a3a45ad)" style="fill: none; stroke: #ff8c00; stroke-width: 1.5; stroke-linecap: square"/>
   </g>
   <g id="line2d_34">
    <path d="M 46.965625 288.430125 
L 22.324345 288.430125 
L 25.895545 288.766699 
L 29.466745 288.430125 
L 33.037945 288.430125 
L 36.609145 288.430125 
L 40.180345 288.430125 
L 43.751545 288.430125 
L 47.322745 288.430125 
L 50.893945 288.430125 
L 54.465145 288.430125 
L 58.036345 288.430125 
L 61.964665 288.430125 
L 65.535865 288.430125 
L 69.107065 289.103272 
L 72.678265 288.766699 
L 76.249465 288.430125 
L 79.820665 288.430125 
L 83.391865 288.430125 
L 86.963065 288.430125 
L 90.534265 282.371798 
L 94.105465 277.99634 
L 97.676665 269.581998 
L 101.604985 260.280324 
L 105.176185 252.080165 
L 108.747385 243.665822 
L 112.318585 235.25148 
L 115.889785 227.846858 
L 119.460985 219.095942 
L 123.032185 210.345025 
L 126.603385 202.940404 
L 130.174585 195.535782 
L 133.745785 187.458013 
L 137.316985 179.043671 
L 141.245305 171.853233 
L 144.816505 162.888133 
L 148.387705 155.483511 
L 151.958905 147.405743 
L 155.530105 138.9914 
L 159.101305 132.259926 
L 162.672505 124.518731 
L 166.243705 117.114109 
L 169.814905 109.709488 
L 173.386105 103.651161 
L 176.957305 95.909966 
L 180.885625 88.627735 
L 184.456825 82.783591 
L 188.028025 77.734986 
L 191.599225 72.68638 
L 195.170425 68.647496 
L 198.741625 62.589169 
L 202.312825 58.886858 
L 205.884025 55.184547 
L 209.455225 52.491958 
L 213.026425 49.799368 
L 216.597625 47.106778 
L 220.525945 45.179129 
L 224.097145 44.750762 
L 227.668345 43.404468 
L 231.239545 43.067894 
L 234.810745 41.385025 
L 238.381945 41.048452 
L 241.953145 40.375304 
L 245.524345 40.375304 
L 249.095545 39.365583 
L 252.666745 39.702157 
L 256.237945 38.355862 
L 260.166265 39.365583 
L 263.737465 38.355862 
L 267.308665 39.029009 
L 270.879865 38.019288 
L 274.451065 37.682715 
L 278.022265 38.019288 
L 281.593465 38.355862 
L 285.164665 37.682715 
L 288.735865 37.009567 
L 292.307065 37.682715 
L 295.878265 36.33642 
L 299.806585 37.835703 
L 303.377785 35.326699 
L 306.948985 35.663272 
L 310.520185 37.009567 
L 314.091385 35.999846 
L 317.662585 35.663272 
L 321.233785 36.672994 
L 324.804985 35.999846 
L 328.376185 36.672994 
L 331.947385 35.999846 
L 335.518585 36.33642 
L 339.446905 35.69387 
L 343.018105 36.33642 
L 346.589305 36.33642 
L 350.160505 36.33642 
L 353.731705 37.009567 
L 357.302905 35.999846 
L 360.874105 36.672994 
L 364.445305 37.009567 
L 368.016505 38.355862 
L 371.587705 37.346141 
L 375.158905 35.999846 
L 379.087225 36.917774 
" clip-path="url(#pee7a3a45ad)" style="fill: none; stroke: #ffd700; stroke-width: 1.5; stroke-linecap: square"/>
   </g>
   <g id="patch_7">
    <path d="M 46.965625 288.430125 
L 46.965625 22.318125 
" style="fill: none; stroke: #000000; stroke-width: 0.8; stroke-linejoin: miter; stroke-linecap: square"/>
   </g>
   <g id="patch_8">
    <path d="M 404.085625 288.430125 
L 404.085625 22.318125 
" style="fill: none; stroke: #000000; stroke-width: 0.8; stroke-linejoin: miter; stroke-linecap: square"/>
   </g>
   <g id="patch_9">
    <path d="M 46.965625 288.430125 
L 404.085625 288.430125 
" style="fill: none; stroke: #000000; stroke-width: 0.8; stroke-linejoin: miter; stroke-linecap: square"/>
   </g>
   <g id="patch_10">
    <path d="M 46.965625 22.318125 
L 404.085625 22.318125 
" style="fill: none; stroke: #000000; stroke-width: 0.8; stroke-linejoin: miter; stroke-linecap: square"/>
   </g>
  </g>
  <g id="legend_1">
   <g id="patch_11">
    <path d="M 304.709625 281.022625 
L 396.773688 281.022625 
Q 398.773688 281.022625 398.773688 279.022625 
L 398.773688 221.310125 
Q 398.773688 219.310125 396.773688 219.310125 
L 304.709625 219.310125 
Q 302.709625 219.310125 302.709625 221.310125 
L 302.709625 279.022625 
Q 302.709625 281.022625 304.709625 281.022625 
z
" style="fill: #ffffff; opacity: 0.8; stroke: #cccccc; stroke-linejoin: miter"/>
   </g>
   <g id="line2d_35">
    <path d="M 306.709625 227.408562 
L 316.709625 227.408562 
L 326.709625 227.408562 
" style="fill: none; stroke: #006400; stroke-width: 1.5; stroke-linecap: square"/>
   </g>
   <g id="text_24">
    <!-- Spannung 1 -->
    <g transform="translate(334.709625 230.908562) scale(0.1 -0.1)">
     <use xlink:href="#DejaVuSans-53"/>
     <use xlink:href="#DejaVuSans-70" x="63.476562"/>
     <use xlink:href="#DejaVuSans-61" x="126.953125"/>
     <use xlink:href="#DejaVuSans-6e" x="188.232422"/>
     <use xlink:href="#DejaVuSans-6e" x="251.611328"/>
     <use xlink:href="#DejaVuSans-75" x="314.990234"/>
     <use xlink:href="#DejaVuSans-6e" x="378.369141"/>
     <use xlink:href="#DejaVuSans-67" x="441.748047"/>
     <use xlink:href="#DejaVuSans-20" x="505.224609"/>
     <use xlink:href="#DejaVuSans-31" x="537.011719"/>
    </g>
   </g>
   <g id="line2d_36">
    <path d="M 306.709625 242.086687 
L 316.709625 242.086687 
L 326.709625 242.086687 
" style="fill: none; stroke: #00ff00; stroke-width: 1.5; stroke-linecap: square"/>
   </g>
   <g id="text_25">
    <!-- Spannung 2 -->
    <g transform="translate(334.709625 245.586687) scale(0.1 -0.1)">
     <use xlink:href="#DejaVuSans-53"/>
     <use xlink:href="#DejaVuSans-70" x="63.476562"/>
     <use xlink:href="#DejaVuSans-61" x="126.953125"/>
     <use xlink:href="#DejaVuSans-6e" x="188.232422"/>
     <use xlink:href="#DejaVuSans-6e" x="251.611328"/>
     <use xlink:href="#DejaVuSans-75" x="314.990234"/>
     <use xlink:href="#DejaVuSans-6e" x="378.369141"/>
     <use xlink:href="#DejaVuSans-67" x="441.748047"/>
     <use xlink:href="#DejaVuSans-20" x="505.224609"/>
     <use xlink:href="#DejaVuSans-32" x="537.011719"/>
    </g>
   </g>
   <g id="line2d_37">
    <path d="M 306.709625 256.764812 
L 316.709625 256.764812 
L 326.709625 256.764812 
" style="fill: none; stroke: #ff8c00; stroke-width: 1.5; stroke-linecap: square"/>
   </g>
   <g id="text_26">
    <!-- Drehzahl 1 -->
    <g transform="translate(334.709625 260.264812) scale(0.1 -0.1)">
     <use xlink:href="#DejaVuSans-44"/>
     <use xlink:href="#DejaVuSans-72" x="77.001953"/>
     <use xlink:href="#DejaVuSans-65" x="115.865234"/>
     <use xlink:href="#DejaVuSans-68" x="177.388672"/>
     <use xlink:href="#DejaVuSans-7a" x="240.767578"/>
     <use xlink:href="#DejaVuSans-61" x="293.257812"/>
     <use xlink:href="#DejaVuSans-68" x="354.537109"/>
     <use xlink:href="#DejaVuSans-6c" x="417.916016"/>
     <use xlink:href="#DejaVuSans-20" x="445.699219"/>
     <use xlink:href="#DejaVuSans-31" x="477.486328"/>
    </g>
   </g>
   <g id="line2d_38">
    <path d="M 306.709625 271.442937 
L 316.709625 271.442937 
L 326.709625 271.442937 
" style="fill: none; stroke: #ffd700; stroke-width: 1.5; stroke-linecap: square"/>
   </g>
   <g id="text_27">
    <!-- Drehzahl 2 -->
    <g transform="translate(334.709625 274.942937) scale(0.1 -0.1)">
     <use xlink:href="#DejaVuSans-44"/>
     <use xlink:href="#DejaVuSans-72" x="77.001953"/>
     <use xlink:href="#DejaVuSans-65" x="115.865234"/>
     <use xlink:href="#DejaVuSans-68" x="177.388672"/>
     <use xlink:href="#DejaVuSans-7a" x="240.767578"/>
     <use xlink:href="#DejaVuSans-61" x="293.257812"/>
     <use xlink:href="#DejaVuSans-68" x="354.537109"/>
     <use xlink:href="#DejaVuSans-6c" x="417.916016"/>
     <use xlink:href="#DejaVuSans-20" x="445.699219"/>
     <use xlink:href="#DejaVuSans-32" x="477.486328"/>
    </g>
   </g>
  </g>
 </g>
 <defs>
  <clipPath id="pee7a3a45ad">
   <rect x="46.965625" y="22.318125" width="357.12" height="266.112"/>
  </clipPath>
 </defs>
</svg>
